<svg id="logo" xmlns="http://www.w3.org/2000/svg" width="792" height="151"><path fill="#BA9765" d="M74.529 6.826C35.915 6.826 4.62 38.118 4.62 76.739c0 38.618 31.294 69.894 69.909 69.894 38.621 0 69.916-31.276 69.916-69.894-.001-38.621-31.296-69.913-69.916-69.913zM36.137 58.838c4.125-.358 7.786 2.682 8.168 6.8.376 4.131-2.675 7.792-6.799 8.157-4.12.374-7.778-2.659-8.153-6.776-.39-4.127 2.662-7.776 6.784-8.181zm80.502 32.548c-4.122.385-7.782-2.661-8.154-6.801-.379-4.114 2.66-7.774 6.797-8.148 4.122-.389 7.768 2.664 8.145 6.787.371 4.116-2.657 7.77-6.788 8.162zM86.078 77.71c-65.131 24.904-71.391-10.364-71.391-10.364 14.481 18.575 28.56 14.262 63.908 4.713 42.079-11.387 57.965-.276 57.965-.276-20.816-4.82-38.094 1.187-50.482 5.927zm131.653 45.778c-27.851 0-46.089-18.72-46.089-46.243 0-27.515 18.573-46.23 46.089-46.23 27.511 0 45.912 18.078 45.912 46.06v2.611H183.86c1.308 21.009 13.676 32.73 33.871 32.73 14.812 0 25.724-7.156 29.953-19.54h12.702c-4.56 18.728-20.843 30.612-42.655 30.612zm33.05-53.235c-1.306-17.264-14.499-28.496-33.05-28.496-18.888 0-32.072 11.389-33.54 28.496h66.59zm29.675 50.144l39.078-45.916-34.357-40.375h14.483l27.203 32.407 26.544-32.407h14.65l-34.198 40.708 38.097 45.583h-13.355l-32.066-37.456-32.234 37.456h-13.845zM400.488 2.845h10.906v47.211c8.467-11.723 20.847-17.751 36.153-17.751 22.8 0 33.217 10.266 33.217 32.243v55.85h-11.236V71.876c0-20.36-5.212-29.305-23.937-29.305-19.54 0-33.867 11.72-33.867 28.653v49.174h-11.236V2.845zM602.22 119.253c-3.096.976-6.352 1.63-9.609 1.63-7.65 0-10.574-3.917-11.407-13.679-9.75 11.07-20.988 15.298-36.942 15.298-21.165 0-32.734-9.604-32.734-25.875 0-7.654 3.096-13.838 9.118-18.403 6.187-4.559 16.432-6.169 30.612-8.142 21.011-2.937 29.946-1.948 29.946-13.349 0-9.437-8.122-14.478-23.923-14.478-19.718 0-29.958 6.668-30.771 20.023h-11.225c1.281-20.187 14.809-30.285 40.526-30.285 15.642 0 25.726 2.765 31.753 10.262 4.729 5.853 5.046 12.526 5.046 21.151v38.268c0 5.69.153 8.631 4.716 8.631 1.306 0 2.936-.156 4.894-.818v9.766zm-50.792-38.749c-18.9 2.939-28.5 4.893-28.5 16.451 0 8.951 8.139 15.287 22.306 15.287 21.336 0 35.97-10.898 35.97-26.845V73.665c-5.037 2.772-14.961 4.559-29.776 6.839zm77.416-76.449h11.233v117.559h-11.233V4.055zm86.452 120.652c-27.838 0-46.076-18.723-46.076-46.248 0-27.514 18.56-46.232 46.076-46.232 27.512 0 45.915 18.083 45.915 46.071v2.613h-79.776c1.295 20.999 13.681 32.723 33.861 32.723 14.819 0 25.73-7.16 29.963-19.541h12.696c-4.556 18.725-20.844 30.614-42.659 30.614zm33.061-53.24c-1.317-17.263-14.506-28.495-33.062-28.495-18.895 0-32.075 11.388-33.538 28.495h66.6z"/><path fill="none" stroke="#BA9765" stroke-width="1.64" d="M785.218 24.005c0 6.868-5.572 12.45-12.442 12.45-6.879 0-12.448-5.582-12.448-12.45 0-6.875 5.569-12.436 12.448-12.436 6.87 0 12.442 5.561 12.442 12.436z"/><path fill="#BA9765" d="M767.63 16.975h6.481c2.247 0 4.595.864 4.595 4.126 0 1.83-.828 3.598-3.312 4.003l3.927 6.181h-2.272l-3.871-6.064h-3.662v6.064h-1.886v-14.31zm1.886 6.6h4.279c1.773 0 3.019-.564 3.019-2.474 0-1.883-1.245-2.469-3.019-2.469h-4.279v4.943z"/></svg>