<?xml version="1.0" encoding="iso-8859-1"?>
<!-- Generator: Adobe Illustrator 19.0.0, SVG Export Plug-In . SVG Version: 6.00 Build 0)  -->
<svg version="1.1" id="Capa_1" xmlns="http://www.w3.org/2000/svg" xmlns:xlink="http://www.w3.org/1999/xlink" x="0px" y="0px"
	 viewBox="0 0 512 512" style="enable-background:new 0 0 512 512;" xml:space="preserve">
<path style="fill:#B8DBFF;" d="M237.326,46.043l40.612-18.298c2.67-1.203,5.782-0.871,8.138,0.869l28.165,20.799
	c1.765,1.303,3.983,1.835,6.148,1.473l32.971-5.518c4.551-0.762,8.818,2.428,9.376,7.009l4.857,39.898
	c0.275,2.256-0.411,4.523-1.89,6.249L323.93,147.26c-1.959,2.286-5.025,3.296-7.96,2.623l-33.18-7.613
	c-1.397-0.321-2.854-0.265-4.222,0.162l-43.548,13.579c-2.548,0.794-5.323,0.283-7.42-1.368l-38.276-30.132
	c-4.281-3.37-4.08-9.922,0.401-13.022l32.556-22.532c1.679-1.162,2.857-2.915,3.298-4.909l7.166-32.372
	C233.298,49.181,234.995,47.093,237.326,46.043z"/>
<path style="fill:#FDE27C;" d="M151.393,134.881l-88.144,15.941c-3.928,0.71-7.891-1.044-10.007-4.428L19.884,93.018
	c-3.525-5.64-0.495-13.076,5.968-14.646l26.68-6.483c2.665-0.648,4.934-2.387,6.251-4.792l17.302-31.584
	c2.221-4.054,6.982-5.992,11.403-4.642l54.867,16.761c4.672,1.427,7.567,6.091,6.774,10.911l-5.59,33.986
	c-0.385,2.342,0.097,4.745,1.356,6.757l13.03,20.824C161.585,125.958,158.182,133.653,151.393,134.881z"/>
<path style="opacity:0.1;enable-background:new    ;" d="M290.835,57.443l-10.36-30.357c-0.864,0.085-1.722,0.292-2.538,0.659
	l-40.612,18.298c-2.33,1.05-4.028,3.138-4.58,5.633l-7.166,32.372c-0.441,1.993-1.619,3.747-3.298,4.909l-32.556,22.532
	c-4.48,3.101-4.682,9.652-0.401,13.022l38.276,30.132c2.097,1.651,4.872,2.163,7.42,1.368l8.067-2.516l14.175-34.844
	c0.475-1.169,1.126-2.248,1.939-3.211l26.673-31.616C292.008,76.551,293.908,66.442,290.835,57.443z"/>
<path style="opacity:0.1;enable-background:new    ;" d="M157.926,120.11l-13.031-20.824c-1.259-2.012-1.741-4.414-1.356-6.757
	l5.591-33.986c0.793-4.82-2.102-9.484-6.774-10.911l-39.362-12.024l-3.607,4.213c-5.282,6.172-7.527,14.307-6.159,22.322
	l12.943,75.671c0.296,1.732,0.763,3.4,1.359,5l43.863-7.933C158.182,133.653,161.585,125.958,157.926,120.11z"/>
<path style="fill:#EEF0F1;" d="M114.027,52.345l42.43-49.55c2.859-3.339,7.877-3.744,11.234-0.906l28.923,24.445
	c1.676,1.416,3.86,2.082,6.04,1.84l49.356-5.461c3.725-0.412,7.236,1.818,8.446,5.365l12.145,35.589
	c0.906,2.656,0.354,5.593-1.456,7.738l-26.67,31.613c-2.116,2.508-3.824,5.334-5.06,8.374l-19.635,48.266
	c-1.548,3.806-5.73,5.819-9.671,4.655l-79.332-23.429c-2.924-0.863-5.102-3.315-5.616-6.32l-12.942-75.671
	C111.818,56.55,112.481,54.15,114.027,52.345z"/>
<g style="opacity:0.1;">
	<path d="M79.52,133.958c-3.028,0-5.88-1.848-7.016-4.848l-7.367-19.47c-2.753-7.273-0.014-15.625,6.512-19.857l13.766-8.927
		c3.475-2.253,8.12-1.265,10.374,2.212c2.253,3.476,1.263,8.12-2.212,10.374l-13.766,8.927c-0.646,0.418-0.917,1.244-0.645,1.963
		l7.367,19.47c1.466,3.874-0.486,8.203-4.36,9.669C81.299,133.801,80.402,133.958,79.52,133.958z"/>
	<path d="M187.829,98.212c-1.278,0-2.573-0.326-3.758-1.015c-3.583-2.079-4.801-6.669-2.722-10.251l10.689-18.414
		c1.342-2.313,3.814-3.735,6.486-3.735h26.367c4.143,0,7.5,3.357,7.5,7.5s-3.357,7.5-7.5,7.5h-22.049l-8.521,14.679
		C192.932,96.873,190.415,98.212,187.829,98.212z"/>
	<path d="M290.805,107.592c-1.42,0-2.855-0.402-4.128-1.244c-3.456-2.283-4.406-6.937-2.122-10.392l6.064-9.175
		c2.95-4.466,7.907-7.132,13.26-7.132h20.072c4.143,0,7.5,3.357,7.5,7.5s-3.357,7.5-7.5,7.5h-20.072
		c-0.301,0-0.579,0.15-0.745,0.401l-6.064,9.175C295.626,106.408,293.239,107.592,290.805,107.592z"/>
	<path d="M162.428,70.868c-1.236,0-2.489-0.306-3.646-0.951l-16.508-9.206c-3.617-2.017-4.914-6.585-2.896-10.203
		c2.018-3.617,6.583-4.915,10.203-2.896l16.508,9.206c3.617,2.017,4.914,6.585,2.896,10.203
		C167.613,69.481,165.059,70.868,162.428,70.868z"/>
</g>
<path style="fill:#5B6EA2;" d="M344.717,122.037H36.03c-13.713,0-24.462,11.783-23.206,25.438l29.577,321.586
	c2.238,24.325,22.641,42.938,47.069,42.938h201.808c24.428,0,44.831-18.613,47.068-42.938l29.577-321.586
	C369.179,133.819,358.43,122.037,344.717,122.037z"/>
<path style="fill:#B8DBFF;" d="M38.789,429.779l3.613,39.282c2.237,24.325,22.64,42.938,47.068,42.938h201.808
	c24.428,0,44.831-18.613,47.068-42.938l3.613-39.282H38.789z"/>
<path style="opacity:0.1;enable-background:new    ;" d="M138.955,122.037H36.03c-13.713,0-24.462,11.782-23.206,25.438
	l29.577,321.586c2.238,24.325,22.641,42.938,47.069,42.938h112.295C137.493,444.928,113.486,298.92,138.955,122.037z"/>
<g style="opacity:0.1;">
	<path d="M190.373,359.98c-4.143,0-7.5-3.357-7.5-7.5V189.676c0-4.143,3.357-7.5,7.5-7.5s7.5,3.357,7.5,7.5v162.805
		C197.873,356.623,194.516,359.98,190.373,359.98z"/>
	<path d="M112.574,359.981c-3.774,0-7.023-2.842-7.446-6.68L87.194,190.497c-0.453-4.117,2.517-7.822,6.634-8.276
		c4.135-0.455,7.823,2.519,8.276,6.634l17.934,162.805c0.453,4.117-2.517,7.822-6.634,8.276
		C113.124,359.966,112.847,359.981,112.574,359.981z"/>
	<path d="M268.174,359.981c-0.274,0-0.551-0.016-0.83-0.046c-4.117-0.454-7.087-4.159-6.634-8.276l17.933-162.805
		c0.453-4.117,4.154-7.084,8.276-6.634c4.117,0.454,7.087,4.159,6.634,8.276L275.62,353.301
		C275.198,357.14,271.949,359.981,268.174,359.981z"/>
</g>
<path style="fill:#5B6EA2;" d="M448.974,415.339c-2.613,0-5.152-1.368-6.532-3.804c-2.042-3.604-0.775-8.181,2.828-10.223
	l30.537-17.3c6.139-3.478,9.439-10.482,8.215-17.429l-14.806-83.967c-1.226-6.948-6.724-12.401-13.681-13.57l-34.612-5.812
	c-4.085-0.685-6.84-4.554-6.154-8.639c0.685-4.084,4.543-6.843,8.639-6.154l34.612,5.811c13.207,2.219,23.643,12.57,25.968,25.758
	l14.806,83.967c2.326,13.189-3.94,26.484-15.593,33.085l-30.536,17.3C451.496,415.025,450.227,415.339,448.974,415.339z"/>
<path style="fill:#B8DBFF;" d="M468.381,493.204l-57.169-324.223c-1.25-7.091-8.012-11.825-15.103-10.575l-19.802,3.492
	c-7.091,1.25-11.825,8.012-10.575,15.103l57.169,324.223c1.25,7.091,8.012,11.825,15.103,10.575l19.802-3.492
	C464.897,507.057,469.631,500.295,468.381,493.204z"/>
<path style="opacity:0.1;enable-background:new    ;" d="M422.901,501.224c1.25,7.091,8.012,11.825,15.103,10.575l19.802-3.492
	c7.091-1.25,11.825-8.012,10.575-15.103l-3.538-20.066c-33.949-18.06-60.142-98.635-74.517-156.657L422.901,501.224z"/>
<g>
</g>
<g>
</g>
<g>
</g>
<g>
</g>
<g>
</g>
<g>
</g>
<g>
</g>
<g>
</g>
<g>
</g>
<g>
</g>
<g>
</g>
<g>
</g>
<g>
</g>
<g>
</g>
<g>
</g>
</svg>
