<?xml version="1.0" encoding="iso-8859-1"?>
<!-- Generator: Adobe Illustrator 19.0.0, SVG Export Plug-In . SVG Version: 6.00 Build 0)  -->
<svg version="1.1" id="Capa_1" xmlns="http://www.w3.org/2000/svg" xmlns:xlink="http://www.w3.org/1999/xlink" x="0px" y="0px"
	 viewBox="0 0 512 512" style="enable-background:new 0 0 512 512;" xml:space="preserve">
<path style="fill:#55A6B5;" d="M502.17,356.78l-64.49-111.702c-6.803-11.783-21.868-15.813-33.649-9.016
	c-11.781,6.802-15.818,21.868-9.016,33.649l64.49,111.702c6.056,10.49,2.018,19.748,0,23.242
	c-2.016,3.494-8.016,11.622-20.128,11.622h-81.502l0,0v-26.075c0-14.872-17.419-22.92-28.744-13.282l-58.836,50.072
	c-8.575,7.298-8.575,20.539,0,27.837l58.836,50.072c11.326,9.638,28.744,1.589,28.744-13.282v-26.076l0,0h81.502
	c26.213,0,49.687-13.554,62.793-36.254C515.277,406.586,515.277,379.48,502.17,356.78z"/>
<path style="opacity:0.1;enable-background:new    ;" d="M354.333,449.666c-40.655,0-57.369-28.297-49.509-52.061l-34.53,29.386
	c-8.575,7.298-8.575,20.539,0,27.837l58.836,50.071c11.326,9.639,28.744,1.59,28.744-13.282v-26.076l0,0h81.502
	c26.213,0,49.688-13.554,62.793-36.254c0.093-0.161,0.179-0.325,0.27-0.486C457.301,457.309,399.728,449.666,354.333,449.666z"/>
<path style="fill:#609AD6;" d="M382.126,96.707l-22.583,13.038l-40.751-70.583C305.687,16.461,282.213,2.908,256,2.908
	s-49.687,13.554-62.793,36.254l-64.49,111.702c-6.802,11.781-2.765,26.847,9.016,33.649c3.879,2.24,8.114,3.305,12.294,3.305
	c8.512-0.002,16.792-4.419,21.355-12.321l64.49-111.702c6.056-10.489,16.093-11.622,20.128-11.622
	c4.035,0,14.072,1.132,20.128,11.622l40.751,70.583l-22.581,13.037c-12.879,7.436-11.14,26.545,2.87,31.534l72.781,25.917
	c10.608,3.777,22.075-2.843,24.107-13.918l13.945-75.989C410.685,100.332,395.005,89.271,382.126,96.707z"/>
<path style="opacity:0.1;enable-background:new    ;" d="M182.665,57.422l-53.948,93.441c-6.802,11.781-2.765,26.847,9.016,33.649
	c3.879,2.24,8.114,3.305,12.294,3.305c8.512-0.001,16.792-4.419,21.355-12.321l28.736-49.772
	C174.831,125.03,174.998,88.764,182.665,57.422z"/>
<path style="fill:#86DBD5;" d="M201.605,416.276H72.623c-12.112,0-18.112-8.128-20.128-11.622c-2.018-3.494-6.056-12.752,0-23.242
	l40.751-70.582c0,0,0,0,0-0.001l22.582,13.038c12.879,7.436,28.559-3.625,25.874-18.252l-13.945-75.989
	c-2.033-11.075-13.5-17.696-24.107-13.918l-72.781,25.917c-14.01,4.989-15.749,24.098-2.87,31.534l22.583,13.038v0.001L9.83,356.78
	c-13.107,22.701-13.107,49.806,0,72.507c13.106,22.701,36.58,36.254,62.793,36.254h128.982c13.605,0,24.632-11.028,24.632-24.633
	C226.238,427.303,215.21,416.276,201.605,416.276z"/>
<path style="opacity:0.1;enable-background:new    ;" d="M72.623,465.541h40.23c-86.301-15.535-102.495-79.503-93.718-124.877
	L9.83,356.78c-13.107,22.7-13.107,49.806,0,72.507C22.936,451.987,46.411,465.541,72.623,465.541z"/>
<ellipse style="fill:#495059;" cx="257.42" cy="370.439" rx="26.25" ry="25.824"/>
<path style="opacity:0.1;enable-background:new    ;" d="M231.19,371.501c0.52,12.77,10.69,23.379,23.62,24.636
	c3.319,0.323,6.519,0.02,9.511-0.78c-6.207-1.732-12.019-5.749-15.097-10.308c-1.903-2.818,0.249-6.59,3.688-6.59h29.466
	c0.838-2.525,1.297-5.219,1.297-8.019c0-7.379-3.151-14.029-8.195-18.735c-12.683,0.169-26.18,0.348-36.634,0.486
	C233.868,357.093,230.882,363.956,231.19,371.501z"/>
<path style="fill:#FDE27C;" d="M256.133,104.43c-46.64,0.665-84.734,37.985-85.588,83.859c-0.304,16.315,4.042,31.609,11.821,44.688
	c15.427,25.938,23.785,55.353,23.785,85.404v0.41h102.542v-0.405c0-30.172,8.587-59.608,23.966-85.714
	c7.411-12.581,11.655-27.192,11.655-42.78C344.314,142.265,304.713,103.737,256.133,104.43z"/>
<g>
	<ellipse style="fill:#EC7887;" cx="203.35" cy="199.299" rx="19.427" ry="15.47"/>
	<ellipse style="fill:#EC7887;" cx="308.65" cy="199.299" rx="19.427" ry="15.47"/>
</g>
<g>
	<path style="fill:#495059;" d="M214.672,191.367c-4.143,0-7.5-3.357-7.5-7.5v-6.86c0-4.143,3.357-7.5,7.5-7.5s7.5,3.357,7.5,7.5
		v6.86C222.172,188.01,218.815,191.367,214.672,191.367z"/>
	<path style="fill:#495059;" d="M297.328,191.367c-4.143,0-7.5-3.357-7.5-7.5v-6.86c0-4.143,3.357-7.5,7.5-7.5s7.5,3.357,7.5,7.5
		v6.86C304.828,188.01,301.471,191.367,297.328,191.367z"/>
	<path style="fill:#495059;" d="M256,196.636c-6.342,0-12.374-2.746-16.549-7.535c-2.722-3.122-2.397-7.86,0.725-10.582
		c3.121-2.724,7.859-2.397,10.582,0.725c1.325,1.521,3.236,2.393,5.242,2.393c2.006,0,3.917-0.872,5.242-2.393
		c2.723-3.124,7.458-3.448,10.582-0.725c3.122,2.722,3.446,7.46,0.725,10.582C268.374,193.89,262.342,196.636,256,196.636z"/>
</g>
<path style="fill:#55A6B5;" d="M288.128,370.439h-61.411c-11.358,0-20.566-9.208-20.566-20.566V318.79h102.542v31.083
	C308.693,361.232,299.486,370.439,288.128,370.439z"/>
<rect x="206.15" y="337.119" style="opacity:0.1;enable-background:new    ;" width="102.54" height="15"/>
<path style="opacity:0.1;enable-background:new    ;" d="M250.692,318.79c-0.938-33.233-5.928-69.442-29.567-98.553
	c-20.286-24.982-37.268-72.154,1.422-108.588c-30.083,13.072-51.367,42.482-52.003,76.639c-0.304,16.315,4.042,31.609,11.821,44.688
	c15.427,25.938,23.785,55.352,23.785,85.404v0.41H250.692z"/>
<path style="opacity:0.1;enable-background:new    ;" d="M206.151,318.79v31.252c0,11.265,9.284,20.397,20.736,20.397h43.649
	c-22.602-11.639-19.844-41.477-19.844-51.649L206.151,318.79L206.151,318.79z"/>
<g>
</g>
<g>
</g>
<g>
</g>
<g>
</g>
<g>
</g>
<g>
</g>
<g>
</g>
<g>
</g>
<g>
</g>
<g>
</g>
<g>
</g>
<g>
</g>
<g>
</g>
<g>
</g>
<g>
</g>
</svg>
