<?xml version="1.0" encoding="iso-8859-1"?>
<!-- Generator: Adobe Illustrator 19.0.0, SVG Export Plug-In . SVG Version: 6.00 Build 0)  -->
<svg version="1.1" id="Capa_1" xmlns="http://www.w3.org/2000/svg" xmlns:xlink="http://www.w3.org/1999/xlink" x="0px" y="0px"
	 viewBox="0 0 512 512" style="enable-background:new 0 0 512 512;" xml:space="preserve">
<path style="fill:#5B6EA2;" d="M109.132,373.085h39.225c11.395,0,20.633-9.238,20.633-20.633s-9.238-20.633-20.633-20.633h-39.225
	c-29.08,0-54.378-19.687-61.521-47.877l-6.087-24.016c-0.806-3.184,0.525-5.525,1.392-6.637c0.865-1.113,2.807-2.979,6.091-2.979
	h99.35c11.395,0,20.633-9.238,20.633-20.633c0-11.395-9.238-20.633-20.633-20.633h-99.35c-15.22,0-29.311,6.889-38.658,18.9
	c-9.348,12.012-12.564,27.364-8.825,42.118l6.086,24.016C19.397,340.597,61.145,373.085,109.132,373.085z"/>
<path style="opacity:0.1;enable-background:new    ;" d="M168.99,352.453c0-11.395-9.238-20.633-20.633-20.633h-39.225
	c-5.471,0-10.808-0.698-15.916-2.017c0.099,14.547,2.196,28.947,6.177,42.82c3.213,0.297,6.459,0.463,9.738,0.463h39.225
	C159.753,373.085,168.99,363.848,168.99,352.453z"/>
<path style="opacity:0.1;enable-background:new    ;" d="M148.358,209.046H93.199v41.265h55.159
	c11.395,0,20.633-9.238,20.633-20.633C168.99,218.283,159.753,209.046,148.358,209.046z"/>
<path style="fill:#EEF0F1;" d="M433.221,425.814H176.177c-12.93,0-24.867-6.93-31.279-18.158l0,0
	c-13.73-24.043-20.952-51.252-20.952-78.94V185.391c0-10.165,8.24-18.404,18.404-18.404h324.697c10.164,0,18.404,8.24,18.404,18.404
	v143.325c0,27.688-7.222,54.897-20.952,78.94l0,0C458.088,418.884,446.15,425.814,433.221,425.814z"/>
<path style="fill:#86DBD5;" d="M130.272,373.085c3.486,12.01,8.373,23.621,14.626,34.571l0,0
	c6.412,11.227,18.35,18.157,31.279,18.157h257.044c12.93,0,24.867-6.93,31.279-18.157l0,0c6.253-10.95,11.14-22.561,14.626-34.571
	L130.272,373.085L130.272,373.085z"/>
<path style="fill:#5B6EA2;" d="M430.183,487.852H179.215c-25.645,0-50.151-10.59-67.724-29.267l-10.601-11.267
	c-7.662-8.143-1.889-21.503,9.293-21.503h389.032c11.181,0,16.955,13.36,9.293,21.503l-10.601,11.267
	C480.334,477.261,455.828,487.852,430.183,487.852z"/>
<g>
	<path style="fill:#C58F85;" d="M210.814,130.668c-2.767,0-5.428-1.537-6.733-4.186c-8.082-16.402-8.082-35.986,0-52.389
		c6.036-12.25,6.036-26.877,0-39.128c-1.831-3.715-0.303-8.211,3.413-10.042c3.717-1.831,8.212-0.303,10.042,3.413
		c8.082,16.401,8.082,35.985,0,52.387c-6.036,12.251-6.036,26.878,0,39.128c1.831,3.716,0.303,8.212-3.413,10.043
		C213.057,130.419,211.927,130.668,210.814,130.668z"/>
	<path style="fill:#C58F85;" d="M304.705,130.668c-2.768,0-5.428-1.537-6.733-4.186c-8.083-16.402-8.083-35.986,0-52.389
		c6.036-12.25,6.036-26.877,0-39.128c-1.831-3.715-0.303-8.211,3.413-10.042c3.714-1.832,8.211-0.304,10.042,3.413
		c8.082,16.401,8.082,35.985,0,52.387c-6.037,12.251-6.037,26.878,0,39.128c1.831,3.716,0.303,8.212-3.412,10.043
		C306.948,130.419,305.817,130.668,304.705,130.668z"/>
	<path style="fill:#C58F85;" d="M398.596,130.668c-2.768,0-5.428-1.537-6.733-4.186c-8.083-16.402-8.083-35.986,0-52.389
		c6.036-12.25,6.036-26.877,0-39.128c-1.831-3.715-0.303-8.211,3.413-10.042c3.713-1.832,8.211-0.304,10.042,3.413
		c8.082,16.401,8.082,35.985,0,52.387c-6.037,12.251-6.037,26.878,0,39.128c1.831,3.716,0.303,8.212-3.412,10.043
		C400.839,130.419,399.708,130.668,398.596,130.668z"/>
	<ellipse style="fill:#C58F85;" cx="304.42" cy="339.84" rx="35.08" ry="45.34"/>
</g>
<path style="opacity:0.1;enable-background:new    ;" d="M310.61,295.214c-2.011-0.463-4.078-0.718-6.191-0.718
	c-3.187,0-6.271,0.559-9.205,1.588c-3.833,21.829,0.879,41.09,4.705,56.703c2.903,11.851,5.411,22.086,3.471,29.86
	c-0.209,0.839-0.26,1.679-0.186,2.494c0.404,0.018,0.808,0.04,1.216,0.04c5.133,0,10.004-1.437,14.399-3.997
	c1.046-9.97-1.571-20.7-4.331-31.966c-3.833-15.645-8.177-33.376-4.003-53.141C310.544,295.788,310.583,295.501,310.61,295.214z"/>
<g>
	<ellipse style="fill:#EC7887;" cx="208.38" cy="260.88" rx="35.541" ry="28.3"/>
	<ellipse style="fill:#EC7887;" cx="401.02" cy="260.88" rx="35.541" ry="28.3"/>
</g>
<g>
	<path style="fill:#495059;" d="M229.089,240.15c-4.142,0-7.5-3.357-7.5-7.5v-12.551c0-4.143,3.358-7.5,7.5-7.5s7.5,3.357,7.5,7.5
		v12.551C236.589,236.792,233.231,240.15,229.089,240.15z"/>
	<path style="fill:#495059;" d="M380.309,240.15c-4.143,0-7.5-3.357-7.5-7.5v-12.551c0-4.143,3.357-7.5,7.5-7.5s7.5,3.357,7.5,7.5
		v12.551C387.809,236.792,384.451,240.15,380.309,240.15z"/>
	<path style="fill:#495059;" d="M304.699,249.787c-9.809,0-19.136-4.248-25.589-11.655c-2.722-3.123-2.396-7.86,0.728-10.581
		c3.122-2.721,7.86-2.396,10.581,0.728c3.604,4.137,8.81,6.509,14.28,6.509c5.471,0,10.675-2.372,14.279-6.509
		c2.721-3.125,7.458-3.449,10.581-0.728c3.123,2.721,3.449,7.458,0.728,10.581C323.834,245.539,314.507,249.787,304.699,249.787z"/>
</g>
<path style="opacity:0.1;enable-background:new    ;" d="M142.35,166.987c-10.164,0-18.404,8.24-18.404,18.404v143.325
	c0,27.688,7.222,54.897,20.952,78.94l0,0c6.412,11.227,18.35,18.157,31.279,18.157h143.478
	c-98.855-18.422-121.964-152.85-107.363-258.826H142.35z"/>
<path style="opacity:0.1;enable-background:new    ;" d="M110.183,425.814c-11.181,0-16.955,13.36-9.293,21.504l10.601,11.266
	c17.573,18.677,42.079,29.267,67.724,29.267h126.031c-48.529-14.056-65.736-47.562-51.682-62.037H110.183z"/>
<g>
</g>
<g>
</g>
<g>
</g>
<g>
</g>
<g>
</g>
<g>
</g>
<g>
</g>
<g>
</g>
<g>
</g>
<g>
</g>
<g>
</g>
<g>
</g>
<g>
</g>
<g>
</g>
<g>
</g>
</svg>
