<?xml version="1.0" encoding="iso-8859-1"?>
<!-- Generator: Adobe Illustrator 19.0.0, SVG Export Plug-In . SVG Version: 6.00 Build 0)  -->
<svg version="1.1" id="Capa_1" xmlns="http://www.w3.org/2000/svg" xmlns:xlink="http://www.w3.org/1999/xlink" x="0px" y="0px"
	 viewBox="0 0 512.001 512.001" style="enable-background:new 0 0 512.001 512.001;" xml:space="preserve">
<path style="fill:#609AD6;" d="M296.716,389.138C296.716,460.734,285.171,512,256,512s-40.716-51.266-40.716-122.862H296.716z"/>
<path style="opacity:0.05;enable-background:new    ;" d="M242.818,437.185c17.03,4.087,38.439,1.085,52.041-2.82
	c1.26-13.79,1.856-28.983,1.856-45.227h-81.431C215.284,460.734,226.829,512,256,512c9.569,0,17.241-5.516,23.231-15.457
	c-28.331,7.401-39.995-28.674-42.977-53.417C235.805,439.4,239.169,436.309,242.818,437.185z"/>
<ellipse style="fill:#5B6EA2;" cx="256" cy="338.27" rx="96.68" ry="78.01"/>
<path style="opacity:0.1;enable-background:new    ;" d="M173.688,379.199c4.201,5.489,9.222,10.525,14.924,15h134.774
	c5.703-4.475,10.723-9.511,14.924-15H173.688z"/>
<path style="fill:#EC7887;" d="M187.933,0.004c-21.878,0.238-41.248,10.915-53.374,27.284c-3.465,4.678-8.409,8.037-14.085,9.335
	c-34.313,7.851-61.486,34.399-70.225,68.363c-1.643,6.386-5.419,11.983-10.78,15.823C15.577,137.921,0,165.901,0,197.532
	c0,39.574,24.376,73.434,58.927,87.437c5.74,2.327,9.99,7.272,11.59,13.256c10.767,40.256,47.491,69.902,91.142,69.902
	c12.785,0,24.975-2.546,36.092-7.156c9.036-3.747,19.01-4.088,28.568-2.003c1.731,0.378,3.531,0.572,5.378,0.56
	C245.251,359.445,256,347.984,256,334.431V68.523C256,31.085,225.368-0.404,187.933,0.004z"/>
<path style="opacity:0.1;enable-background:new    ;" d="M187.933,0.004c-21.878,0.238-41.248,10.915-53.374,27.284
	c-3.465,4.678-8.409,8.037-14.085,9.335c-34.313,7.851-61.486,34.399-70.225,68.363c-1.643,6.386-5.419,11.983-10.78,15.823
	C15.577,137.921,0,165.901,0,197.532c0,39.574,24.376,73.434,58.927,87.437c5.74,2.327,9.99,7.272,11.59,13.256
	c10.767,40.256,47.491,69.902,91.142,69.902c12.785,0,24.975-2.546,36.092-7.156c9.036-3.747,19.01-4.088,28.568-2.003
	c1.731,0.378,3.531,0.572,5.378,0.56C245.251,359.445,256,347.984,256,334.431V68.523C256,31.085,225.368-0.404,187.933,0.004z"/>
<path style="opacity:0.05;enable-background:new    ;" d="M161.659,368.128c12.794,0,24.991-2.549,36.115-7.165
	c9.026-3.745,18.991-4.081,28.538-1.996c2.153,0.47,4.412,0.657,6.737,0.517C246.062,358.699,256,347.469,256,334.431v-42.558
	c-32.788,18.106-70.902-6.992-76.63-32.133c-1.322-5.802-5.198-10.622-10.469-13.384c-13.16-6.896-28.853-22.351-32.982-36.688
	c-1.916-6.655-8.168-11.036-15.092-11.176c-57.561-1.166-66.354-64.487-62.923-113.436c-3.264,6.266-5.856,12.937-7.655,19.93
	c-1.648,6.404-5.458,12.006-10.832,15.86C15.555,137.961,0,165.924,0,197.532c0,39.574,24.376,73.434,58.926,87.437
	c5.741,2.327,9.991,7.273,11.591,13.257C81.284,338.482,118.009,368.128,161.659,368.128z"/>
<path id="SVGCleanerId_0" style="fill:#EC7887;" d="M324.067,0.004c21.878,0.238,41.248,10.915,53.374,27.284
	c3.465,4.678,8.409,8.037,14.085,9.335c34.313,7.851,61.486,34.399,70.225,68.363c1.643,6.386,5.419,11.983,10.78,15.823
	c23.893,17.113,39.47,45.093,39.47,76.724c0,39.574-24.376,73.434-58.927,87.437c-5.74,2.327-9.99,7.272-11.59,13.256
	c-10.766,40.256-47.491,69.902-91.142,69.902c-12.785,0-24.975-2.546-36.092-7.156c-9.036-3.747-19.01-4.088-28.568-2.003
	c-1.731,0.378-3.531,0.572-5.378,0.56C266.749,359.445,256,347.984,256,334.431V68.523C256,31.085,286.632-0.404,324.067,0.004z"/>
<g>
	<path id="SVGCleanerId_0_1_" style="fill:#EC7887;" d="M324.067,0.004c21.878,0.238,41.248,10.915,53.374,27.284
		c3.465,4.678,8.409,8.037,14.085,9.335c34.313,7.851,61.486,34.399,70.225,68.363c1.643,6.386,5.419,11.983,10.78,15.823
		c23.893,17.113,39.47,45.093,39.47,76.724c0,39.574-24.376,73.434-58.927,87.437c-5.74,2.327-9.99,7.272-11.59,13.256
		c-10.766,40.256-47.491,69.902-91.142,69.902c-12.785,0-24.975-2.546-36.092-7.156c-9.036-3.747-19.01-4.088-28.568-2.003
		c-1.731,0.378-3.531,0.572-5.378,0.56C266.749,359.445,256,347.984,256,334.431V68.523C256,31.085,286.632-0.404,324.067,0.004z"/>
</g>
<path style="opacity:0.05;enable-background:new    ;" d="M402.6,238.981c-33.821-3.532-82.903-40.326-78.481-89.711
	c0.569-6.359-3.189-12.223-9.199-14.377c-40.455-14.502-50.57-89.914-30.287-122.216C267.338,25.208,256,45.758,256,68.523v265.908
	c0,13.038,9.938,24.268,22.952,25.052c2.325,0.14,4.584-0.047,6.737-0.517c9.547-2.086,19.512-1.75,28.538,1.996
	c11.124,4.616,23.321,7.165,36.115,7.165c43.651,0,80.375-29.646,91.142-69.901c1.612-6.026,5.928-10.953,11.706-13.304
	c11.097-4.515,21.133-11.089,29.653-19.234c-24.906,7.04-55.035-6.619-66.641-19.811C412.732,241.935,407.822,239.526,402.6,238.981
	z"/>
<g style="opacity:0.1;">
	<path d="M158.011,299.373c-4.142,0-7.5-3.357-7.5-7.5c0-19.441,15.817-35.259,35.258-35.259c4.142,0,7.5,3.357,7.5,7.5
		c0,4.142-3.358,7.5-7.5,7.5c-11.17,0-20.258,9.088-20.258,20.259C165.511,296.016,162.153,299.373,158.011,299.373z"/>
	<path d="M216.53,185.788c-1.92,0-3.839-0.732-5.303-2.197c-2.593-2.593-6.041-4.021-9.708-4.021c-3.667,0-7.115,1.429-9.708,4.021
		c-2.929,2.93-7.678,2.929-10.606,0.001c-2.929-2.929-2.929-7.678,0-10.606c5.426-5.427,12.641-8.416,20.314-8.416
		c7.674,0,14.889,2.989,20.315,8.416c2.929,2.929,2.929,7.678,0,10.606C220.369,185.056,218.449,185.788,216.53,185.788z"/>
	<path d="M135.649,116.365c-0.571,0-1.15-0.065-1.73-0.203c-4.031-0.951-6.527-4.991-5.576-9.023
		c5.663-23.98,29.777-38.885,53.759-33.22c4.031,0.951,6.527,4.991,5.576,9.022c-0.952,4.03-4.994,6.534-9.023,5.575
		c-7.716-1.821-15.681-0.53-22.427,3.639c-6.745,4.168-11.463,10.714-13.286,18.431
		C142.127,114.038,139.048,116.365,135.649,116.365z"/>
	<path d="M112.025,227.386c-4.142,0-7.5-3.357-7.5-7.5c0-20.516-16.691-37.207-37.207-37.207c-4.142,0-7.5-3.357-7.5-7.5
		s3.358-7.5,7.5-7.5c28.787,0,52.207,23.42,52.207,52.207C119.525,224.028,116.167,227.386,112.025,227.386z"/>
</g>
<g style="opacity:0.1;">
	<path d="M353.989,299.373c-4.142,0-7.5-3.357-7.5-7.5c0-11.171-9.088-20.259-20.258-20.259c-4.142,0-7.5-3.358-7.5-7.5
		c0-4.143,3.358-7.5,7.5-7.5c19.441,0,35.258,15.817,35.258,35.259C361.489,296.016,358.131,299.373,353.989,299.373z"/>
	<path d="M325.493,185.788c-1.92,0-3.839-0.732-5.303-2.197c-2.593-2.593-6.041-4.021-9.708-4.021c-3.667,0-7.115,1.429-9.708,4.021
		c-2.929,2.93-7.678,2.929-10.606,0.001c-2.929-2.929-2.929-7.678,0-10.606c5.426-5.427,12.641-8.416,20.315-8.416
		s14.889,2.989,20.315,8.416c2.929,2.929,2.929,7.678,0,10.606C329.331,185.056,327.412,185.788,325.493,185.788z"/>
	<path d="M376.351,116.365c-3.399,0-6.478-2.326-7.293-5.778c-1.822-7.717-6.54-14.263-13.286-18.431
		c-6.746-4.169-14.712-5.461-22.427-3.639c-4.031,0.96-8.071-1.543-9.023-5.575c-0.952-4.031,1.544-8.071,5.576-9.022
		c23.979-5.666,48.096,9.239,53.759,33.22c0.952,4.031-1.544,8.071-5.576,9.023C377.501,116.3,376.921,116.365,376.351,116.365z"/>
	<path d="M399.975,227.386c-4.142,0-7.5-3.357-7.5-7.5c0-28.787,23.42-52.207,52.207-52.207c4.142,0,7.5,3.357,7.5,7.5
		s-3.358,7.5-7.5,7.5c-20.516,0-37.207,16.691-37.207,37.207C407.475,224.028,404.117,227.386,399.975,227.386z"/>
</g>
<g>
</g>
<g>
</g>
<g>
</g>
<g>
</g>
<g>
</g>
<g>
</g>
<g>
</g>
<g>
</g>
<g>
</g>
<g>
</g>
<g>
</g>
<g>
</g>
<g>
</g>
<g>
</g>
<g>
</g>
</svg>
