<?xml version="1.0" encoding="iso-8859-1"?>
<!-- Generator: Adobe Illustrator 19.0.0, SVG Export Plug-In . SVG Version: 6.00 Build 0)  -->
<svg version="1.1" id="Capa_1" xmlns="http://www.w3.org/2000/svg" xmlns:xlink="http://www.w3.org/1999/xlink" x="0px" y="0px"
	 viewBox="0 0 512 512" style="enable-background:new 0 0 512 512;" xml:space="preserve">
<path style="fill:#5B6EA2;" d="M415.233,323.059H266.442c-24.126,0-41.172-23.622-33.568-46.518l37.584-113.168h194.807
	c8.402,0,12.637,10.134,6.733,16.112l-54.004,54.684c-5.49,5.559-7.426,13.712-5.023,21.146l15.861,49.053
	C431.818,313.6,424.935,323.059,415.233,323.059z"/>
<path style="opacity:0.1;enable-background:new    ;" d="M328.138,163.373h-57.68l-37.584,113.168
	c-7.604,22.896,9.442,46.518,33.567,46.518h76.452C277,297.591,309.684,210.974,328.138,163.373z"/>
<path style="fill:#609AD6;" d="M305.965,243.216H92.957L145.99,83.53h197.879c15.535,0,26.511,15.211,21.615,29.954l-37.905,114.135
	C324.487,236.931,315.777,243.216,305.965,243.216z"/>
<path style="fill:#B8DBFF;" d="M463.35,103.082L463.35,103.082c-2.297,4.754-9.068,4.754-11.365,0l0,0
	c-5.907-12.229-15.777-22.099-28.006-28.006l0,0c-4.754-2.296-4.754-9.068,0-11.365l0,0c12.229-5.907,22.099-15.778,28.006-28.006
	l0,0c2.296-4.754,9.068-4.754,11.365,0l0,0c5.907,12.229,15.777,22.099,28.006,28.006l0,0c4.754,2.297,4.754,9.068,0,11.365l0,0
	C479.128,80.983,469.257,90.854,463.35,103.082z"/>
<path style="fill:#609AD6;" d="M193.227,413.62L193.227,413.62c-2.296,4.754-9.068,4.754-11.365,0l0,0
	c-5.907-12.229-15.778-22.099-28.006-28.006l0,0c-4.754-2.297-4.754-9.068,0-11.365l0,0c12.229-5.907,22.099-15.777,28.006-28.006
	l0,0c2.296-4.754,9.068-4.754,11.365,0l0,0c5.907,12.229,15.777,22.099,28.006,28.006l0,0c4.754,2.297,4.754,9.068,0,11.365l0,0
	C209.005,391.521,199.134,401.392,193.227,413.62z"/>
<g>
	<path style="fill:#FDE27C;" d="M480.429,403.852L480.429,403.852c-2.297,4.754-9.068,4.754-11.365,0l0,0
		c-5.907-12.229-15.777-22.099-28.006-28.006l0,0c-4.754-2.297-4.754-9.068,0-11.365l0,0c12.229-5.907,22.099-15.777,28.006-28.006
		l0,0c2.296-4.754,9.068-4.754,11.365,0l0,0c5.907,12.229,15.777,22.099,28.006,28.006l0,0c4.754,2.297,4.754,9.068,0,11.365l0,0
		C496.207,381.753,486.336,391.623,480.429,403.852z"/>
	<path style="fill:#FDE27C;" d="M231.769,203.86L231.769,203.86c-4.979,5.714-13.117,5.714-13.658,0l0,0
		c-1.392-14.696-8.648-26.559-20.587-33.658l0,0c-4.642-2.76-1.482-10.898,5.304-13.658l0,0
		c17.453-7.099,33.922-18.961,46.728-33.658l0,0c4.979-5.714,13.117-5.714,13.658,0l0,0c1.392,14.696,8.648,26.559,20.587,33.658
		l0,0c4.642,2.76,1.482,10.898-5.304,13.658l0,0C261.044,177.301,244.575,189.163,231.769,203.86z"/>
</g>
<path style="opacity:0.1;enable-background:new    ;" d="M145.99,83.53L92.957,243.216h163.89
	c-62.323-36.681-50.81-113.228-30.559-159.686H145.99z"/>
<path style="fill:#C58F85;" d="M21.511,479.86c-2.247,0-4.531-0.354-6.78-1.102c-11.27-3.743-17.372-15.912-13.629-27.182
	l127.053-382.56c3.742-11.271,15.913-17.372,27.182-13.629c11.27,3.743,17.372,15.912,13.629,27.182L41.913,465.13
	C38.917,474.15,30.522,479.86,21.511,479.86z"/>
<path style="fill:#5B6EA2;" d="M51.926,298.547L1.103,451.577c-3.743,11.27,2.359,23.439,13.629,27.182
	c2.249,0.747,4.533,1.102,6.78,1.102c9.011,0,17.406-5.71,20.402-14.73l55.324-166.583L51.926,298.547L51.926,298.547z"/>
<path style="opacity:0.1;enable-background:new    ;" d="M76.527,224.472L1.103,451.577c-3.743,11.27,2.359,23.439,13.629,27.182
	c2.249,0.747,4.533,1.102,6.78,1.102c9.011,0,17.406-5.71,20.402-14.73l37.325-112.386C53.06,348.148,63.787,282.94,76.527,224.472z
	"/>
<g>
</g>
<g>
</g>
<g>
</g>
<g>
</g>
<g>
</g>
<g>
</g>
<g>
</g>
<g>
</g>
<g>
</g>
<g>
</g>
<g>
</g>
<g>
</g>
<g>
</g>
<g>
</g>
<g>
</g>
</svg>
