<?xml version="1.0" encoding="iso-8859-1"?>
<!-- Generator: Adobe Illustrator 19.0.0, SVG Export Plug-In . SVG Version: 6.00 Build 0)  -->
<svg version="1.1" id="Capa_1" xmlns="http://www.w3.org/2000/svg" xmlns:xlink="http://www.w3.org/1999/xlink" x="0px" y="0px"
	 viewBox="0 0 511.999 511.999" style="enable-background:new 0 0 511.999 511.999;" xml:space="preserve">
<path style="fill:#5B6EA2;" d="M299.839,425.677H52.766c-10.892,0-19.722-8.83-19.722-19.722V196.692h266.795L299.839,425.677
	L299.839,425.677z"/>
<path style="fill:#B8DBFF;" d="M299.839,425.677h159.395c10.892,0,19.722-8.83,19.722-19.722V196.692H299.839V425.677z"/>
<g>
	<path style="fill:#609AD6;" d="M356.914,86.321h145.077c6.831,0,11.651,6.696,9.484,13.174l-32.519,97.197H299.839l30.534-91.264
		C334.192,94.015,344.879,86.321,356.914,86.321z"/>
	<path style="fill:#609AD6;" d="M155.086,86.321H10.009c-6.831,0-11.652,6.696-9.484,13.174l32.519,97.197h179.117l-30.534-91.264
		C177.808,94.015,167.121,86.321,155.086,86.321z"/>
</g>
<polygon style="fill:#B8DBFF;" points="454.815,86.321 417.887,196.692 360.907,196.692 397.835,86.321 "/>
<g>
	<path style="fill:#EEF0F1;" d="M413.973,342.735l-7.082-6.192c-1.861-1.627-4.637-1.627-6.498,0l-6.764,5.914
		c-2.423,2.119-6.041,2.119-8.464,0l-6.764-5.914c-1.86-1.627-4.637-1.627-6.498,0l-7.082,6.192
		c-1.526,1.335-3.914,0.251-3.914-1.777V196.692h56.98v144.266C417.887,342.985,415.499,344.069,413.973,342.735z"/>
	<path style="fill:#EEF0F1;" d="M70.312,346.444h79.024c5.459,0,9.884,4.425,9.884,9.884v32.081c0,5.459-4.425,9.884-9.884,9.884
		H70.312c-5.459,0-9.884-4.425-9.884-9.884v-32.081C60.429,350.869,64.854,346.444,70.312,346.444z"/>
	<path style="fill:#EEF0F1;" d="M252.539,253.431h-66.597c-4.143,0-7.5-3.357-7.5-7.5s3.357-7.5,7.5-7.5h66.597
		c4.143,0,7.5,3.357,7.5,7.5C260.039,250.073,256.682,253.431,252.539,253.431z"/>
	<path style="fill:#EEF0F1;" d="M252.539,284.385h-33.298c-4.143,0-7.5-3.357-7.5-7.5c0-4.142,3.357-7.5,7.5-7.5h33.298
		c4.143,0,7.5,3.358,7.5,7.5C260.039,281.027,256.682,284.385,252.539,284.385z"/>
</g>
<path style="fill:#495059;" d="M128.676,379.868H90.974c-4.143,0-7.5-3.357-7.5-7.5c0-4.142,3.357-7.5,7.5-7.5h37.702
	c4.143,0,7.5,3.358,7.5,7.5C136.176,376.511,132.818,379.868,128.676,379.868z"/>
<path style="opacity:0.1;enable-background:new    ;" d="M116.028,196.692H33.044v209.263c0,10.892,8.83,19.722,19.722,19.722
	H243.03C97.352,387.466,112.831,248.91,116.028,196.692z"/>
<path style="opacity:0.1;enable-background:new    ;" d="M346.796,196.692h-46.957v228.986h139.104
	C345.628,383.773,346.796,234.718,346.796,196.692z"/>
<path style="opacity:0.1;enable-background:new    ;" d="M330.373,105.428l-30.535,91.264h46.957l0,0
	c3.578-21.868,33.817-97.655,71.091-110.371h-60.974C344.879,86.321,334.192,94.015,330.373,105.428z"/>
<g>
</g>
<g>
</g>
<g>
</g>
<g>
</g>
<g>
</g>
<g>
</g>
<g>
</g>
<g>
</g>
<g>
</g>
<g>
</g>
<g>
</g>
<g>
</g>
<g>
</g>
<g>
</g>
<g>
</g>
</svg>
