<?xml version="1.0" encoding="iso-8859-1"?>
<!-- Generator: Adobe Illustrator 19.0.0, SVG Export Plug-In . SVG Version: 6.00 Build 0)  -->
<svg version="1.1" id="Capa_1" xmlns="http://www.w3.org/2000/svg" xmlns:xlink="http://www.w3.org/1999/xlink" x="0px" y="0px"
	 viewBox="0 0 512.001 512.001" style="enable-background:new 0 0 512.001 512.001;" xml:space="preserve">
<circle style="fill:#495059;" cx="265.5" cy="466.69" r="45.31"/>
<path style="opacity:0.1;enable-background:new    ;" d="M220.232,468.557c0.897,22.404,18.448,41.016,40.761,43.221
	c5.727,0.566,11.249,0.034,16.412-1.369c-10.711-3.039-20.74-10.086-26.051-18.083c-3.284-4.944,0.429-11.562,6.365-11.562h50.849
	c1.446-4.43,2.239-9.156,2.239-14.069c0-12.945-5.438-24.612-14.143-32.868c-21.886,0.296-45.178,0.61-63.218,0.852
	C224.854,443.281,219.702,455.32,220.232,468.557z"/>
<path style="fill:#B8DBFF;" d="M263.275,0.016c-80.485,1.167-146.221,66.64-147.695,147.12
	c-0.524,28.622,6.976,55.454,20.399,78.398c26.622,45.505,41.045,97.109,41.045,149.829v0.719h176.953v-0.711
	c0-52.934,14.818-104.575,41.357-150.374c12.79-22.072,20.112-47.706,20.112-75.052C415.446,66.393,347.107-1.199,263.275,0.016z"/>
<path style="fill:#EC7887;" d="M352.287,228.946L274.8,295.038c-5.358,4.57-13.242,4.57-18.6,0l-77.486-66.092
	c-6.218-5.304-6.749-14.725-1.165-20.694l26.359-28.177c2.71-2.897,6.499-4.541,10.466-4.541h102.255
	c3.967,0,7.756,1.644,10.466,4.541l26.359,28.177C359.036,214.221,358.505,223.642,352.287,228.946z"/>
<g>
	<path style="fill:#FFFFFF;" d="M263.203,298.274c1.522,0.247,3.074,0.247,4.595,0C266.276,298.521,264.725,298.521,263.203,298.274
		z"/>
	<path style="fill:#FFFFFF;" d="M283.626,175.535l19.308,36.851c2.248,4.29,2.318,9.394,0.188,13.743L267.8,298.274
		c2.515-0.408,4.944-1.482,7.001-3.236l77.487-66.092c6.218-5.304,6.749-14.726,1.165-20.694l-26.359-28.177
		c-2.71-2.897-6.499-4.541-10.466-4.541h-33.002V175.535z"/>
</g>
<g>
	<rect x="263.2" y="298.27" style="fill:#5B6EA2;" width="0.008" height="0.002"/>
	<path style="fill:#5B6EA2;" d="M226.332,219.209h-52.589c0.297,3.638,1.961,7.17,4.97,9.737l77.487,66.092
		c2.056,1.754,4.486,2.828,7.001,3.236l-35.322-72.145C226.81,223.946,226.296,221.574,226.332,219.209z"/>
	<path style="fill:#5B6EA2;" d="M263.212,298.275c1.516,0.244,3.062,0.244,4.578,0C266.273,298.52,264.728,298.52,263.212,298.275z"
		/>
</g>
<path style="fill:#86DBD5;" d="M304.669,219.209c0.036,2.364-0.478,4.737-1.546,6.919L267.8,298.274
	c2.515-0.408,4.944-1.482,7.001-3.236l77.487-66.092c3.009-2.567,4.673-6.099,4.97-9.737L304.669,219.209L304.669,219.209z"/>
<path style="fill:#5B6EA2;" d="M227.879,226.129l35.322,72.145c1.523,0.247,3.076,0.247,4.599,0l35.322-72.145
	c2.129-4.35,2.06-9.454-0.188-13.744l-19.308-36.851h-36.251l-19.308,36.851C225.819,216.675,225.749,221.779,227.879,226.129z"/>
<path style="fill:#609AD6;" d="M227.879,226.129l35.322,72.145c0.003,0.001,0.005,0.001,0.008,0.001
	c1.517,0.245,3.065,0.245,4.582,0c0.003,0,0.006-0.001,0.008-0.001l35.322-72.145c1.069-2.183,1.583-4.555,1.546-6.919h-78.336
	C226.296,221.574,226.81,223.946,227.879,226.129z"/>
<path style="fill:#55A6B5;" d="M318.193,466.694H212.808c-19.763,0-35.784-16.021-35.784-35.784v-54.828h176.953v54.828
	C353.977,450.674,337.956,466.694,318.193,466.694z"/>
<rect x="177.02" y="413.89" style="opacity:0.1;enable-background:new    ;" width="176.95" height="15"/>
<g>
	<ellipse style="fill:#FFFFFF;" cx="194.01" cy="109.76" rx="26.378" ry="21.18"/>
	<ellipse style="fill:#FFFFFF;" cx="336.99" cy="109.76" rx="26.378" ry="21.18"/>
</g>
<g>
	<path style="fill:#495059;" d="M198.422,92.248c-4.143,0-7.5-3.357-7.5-7.5V73.331c0-4.143,3.357-7.5,7.5-7.5s7.5,3.357,7.5,7.5
		v11.417C205.922,88.891,202.565,92.248,198.422,92.248z"/>
	<path style="fill:#495059;" d="M265.501,112.757L265.501,112.757c-10.555,0-19.111-8.556-19.111-19.111V79.429
		c0-2.881,2.336-5.217,5.217-5.217h27.788c2.881,0,5.217,2.336,5.217,5.217v14.216C284.611,104.2,276.055,112.757,265.501,112.757z"
		/>
	<path style="fill:#495059;" d="M332.579,92.248c-4.143,0-7.5-3.357-7.5-7.5V73.331c0-4.143,3.357-7.5,7.5-7.5s7.5,3.357,7.5,7.5
		v11.417C340.079,88.891,336.722,92.248,332.579,92.248z"/>
</g>
<path style="opacity:0.1;enable-background:new    ;" d="M253.887,376.083c-1.618-58.303-10.23-121.827-51.022-172.898
	c-35.007-43.828-64.311-126.584,2.454-190.502c-51.913,22.933-88.642,74.529-89.739,134.453
	c-0.524,28.623,6.976,55.454,20.399,78.398c26.622,45.505,41.045,97.109,41.045,149.829v0.719L253.887,376.083L253.887,376.083z"/>
<path style="opacity:0.1;enable-background:new    ;" d="M177.024,376.083v54.828c0,19.763,16.021,35.783,35.784,35.783h75.323
	c-39.002-20.419-34.244-72.765-34.244-90.611H177.024z"/>
<path style="fill:#55A6B5;" d="M413.522,198.843L413.522,198.843c-2.059,4.264-8.132,4.264-10.191,0l0,0
	c-5.297-10.966-14.149-19.817-25.115-25.115l0,0c-4.263-2.059-4.263-8.132,0-10.191l0,0c10.966-5.297,19.818-14.149,25.115-25.115
	l0,0c2.059-4.263,8.132-4.263,10.191,0l0,0c5.297,10.966,14.149,19.818,25.115,25.115l0,0c4.263,2.06,4.263,8.132,0,10.191l0,0
	C427.67,179.026,418.819,187.877,413.522,198.843z"/>
<path style="fill:#5B6EA2;" d="M111.781,184.586L111.781,184.586c-2.226,4.608-8.789,4.608-11.015,0l0,0
	c-5.725-11.852-15.292-21.419-27.144-27.144l0,0c-4.608-2.226-4.608-8.789,0-11.015l0,0c11.852-5.725,21.419-15.292,27.144-27.144
	l0,0c2.226-4.608,8.789-4.608,11.015,0l0,0c5.725,11.852,15.292,21.419,27.144,27.144l0,0c4.608,2.226,4.608,8.789,0,11.015l0,0
	C127.073,163.167,117.507,172.733,111.781,184.586z"/>
<path style="fill:#EC7887;" d="M166.731,343.067L166.731,343.067c-2.421,5.012-9.559,5.012-11.98,0l0,0
	c-6.227-12.891-16.632-23.296-29.523-29.523l0,0c-5.012-2.421-5.012-9.559,0-11.98l0,0c12.891-6.227,23.296-16.632,29.523-29.523
	l0,0c2.421-5.012,9.559-5.012,11.98,0l0,0c6.227,12.891,16.632,23.296,29.523,29.523l0,0c5.012,2.421,5.012,9.559,0,11.98l0,0
	C183.363,319.771,172.958,330.176,166.731,343.067z"/>
<g>
</g>
<g>
</g>
<g>
</g>
<g>
</g>
<g>
</g>
<g>
</g>
<g>
</g>
<g>
</g>
<g>
</g>
<g>
</g>
<g>
</g>
<g>
</g>
<g>
</g>
<g>
</g>
<g>
</g>
</svg>
