<?xml version="1.0" encoding="iso-8859-1"?>
<!-- Generator: Adobe Illustrator 19.0.0, SVG Export Plug-In . SVG Version: 6.00 Build 0)  -->
<svg version="1.1" id="Capa_1" xmlns="http://www.w3.org/2000/svg" xmlns:xlink="http://www.w3.org/1999/xlink" x="0px" y="0px"
	 viewBox="0 0 512 512" style="enable-background:new 0 0 512 512;" xml:space="preserve">
<path style="fill:#EEF0F1;" d="M176.244,252.344c-35.293,0-64.633-48.526-135.168-49.17C18.748,202.97-0.16,220.789,0.001,243.117
	c0.115,15.955,9.654,29.665,23.326,35.85c2.412,1.091,3.667,3.81,2.744,6.291c-1.599,4.303-2.317,9.034-1.925,13.977
	c1.233,15.553,13.652,28.208,29.177,29.754c2.771,0.276,5.475,0.197,8.079-0.191c2.973-0.443,5.754,1.456,6.467,4.375
	c3.478,14.24,16.317,24.81,31.629,24.81c50.101,0,84.789-14.973,84.789-14.973L176.244,252.344z"/>
<path style="opacity:0.1;enable-background:new    ;" d="M61.403,328.798c2.973-0.443,5.754,1.456,6.467,4.376
	c3.479,14.24,16.317,24.809,31.629,24.809c50.101,0,84.789-14.973,84.789-14.973l-0.905-10.195
	C121.257,347.514,53.881,254.009,80.62,209.064c-11.648-3.487-24.679-5.755-39.545-5.891C18.748,202.97-0.16,220.789,0.001,243.117
	c0.115,15.955,9.654,29.665,23.326,35.85c2.412,1.091,3.667,3.81,2.744,6.292c-1.599,4.303-2.317,9.034-1.925,13.977
	c1.233,15.553,13.652,28.208,29.177,29.754C56.094,329.265,58.799,329.186,61.403,328.798z"/>
<path style="fill:#EEF0F1;" d="M335.756,252.344c35.293,0,64.633-48.526,135.168-49.17c22.328-0.204,41.236,17.614,41.075,39.943
	c-0.115,15.955-9.654,29.665-23.326,35.85c-2.412,1.091-3.667,3.81-2.744,6.291c1.599,4.303,2.317,9.034,1.925,13.977
	c-1.233,15.553-13.652,28.208-29.177,29.754c-2.771,0.276-5.475,0.197-8.079-0.191c-2.973-0.443-5.754,1.456-6.467,4.375
	c-3.478,14.24-16.317,24.81-31.629,24.81c-50.101,0-84.789-14.973-84.789-14.973L335.756,252.344z"/>
<path style="opacity:0.1;enable-background:new    ;" d="M428.81,209.86c-42.005,13.448-65.751,42.484-93.054,42.484l-8.044,90.666
	c0,0,34.688,14.973,84.79,14.973c15.312,0,28.15-10.569,31.629-24.809c0.713-2.92,3.495-4.819,6.467-4.376
	c2.604,0.388,5.309,0.467,8.079,0.191c11.742-1.169,21.702-8.695,26.395-19.02C434.408,331.148,400.089,248.878,428.81,209.86z"/>
<circle style="fill:#5B6EA2;" cx="256" cy="306.729" r="127.2"/>
<path style="opacity:0.1;enable-background:new    ;" d="M172.451,306.725c0-4.596-3.726-8.322-8.322-8.322h-35.051
	c-0.178,2.752-0.278,5.525-0.278,8.323c0,2.797,0.1,5.57,0.278,8.322h35.051C168.725,315.047,172.451,311.321,172.451,306.725z
	 M172.137,211.093c-4.174,3.663-8.106,7.595-11.769,11.769l24.785,24.785c1.625,1.625,3.755,2.438,5.885,2.438
	c2.13,0,4.26-0.813,5.885-2.438c3.25-3.25,3.25-8.519,0-11.769L172.137,211.093z M185.153,365.804l-24.785,24.785
	c3.663,4.174,7.595,8.106,11.769,11.769l24.785-24.785c3.25-3.25,3.25-8.519,0-11.769S188.403,362.554,185.153,365.804z
	 M320.963,250.085c2.13,0,4.26-0.813,5.885-2.438l24.785-24.785c-3.663-4.174-7.595-8.106-11.769-11.769l-24.785,24.785
	c-3.25,3.25-3.25,8.52,0,11.769C316.703,249.272,318.833,250.085,320.963,250.085z M315.078,365.804c-3.25,3.25-3.25,8.52,0,11.769
	l24.785,24.785c4.174-3.663,8.106-7.595,11.769-11.769l-24.785-24.785C323.597,362.554,318.328,362.554,315.078,365.804z
	 M256,390.274c-4.596,0-8.322,3.726-8.322,8.322v35.051c2.752,0.178,5.525,0.278,8.322,0.278c2.797,0,5.57-0.1,8.322-0.278v-35.051
	C264.322,394,260.596,390.274,256,390.274z M382.922,298.403h-35.051c-4.596,0-8.322,3.726-8.322,8.322
	c0,4.596,3.726,8.322,8.322,8.322h35.051c0.178-2.752,0.278-5.525,0.278-8.322S383.1,301.155,382.922,298.403z M247.678,179.803
	v35.051c0,4.596,3.726,8.322,8.322,8.322c4.596,0,8.322-3.726,8.322-8.322v-35.051c-2.752-0.178-5.525-0.278-8.322-0.278
	C253.203,179.525,250.43,179.626,247.678,179.803z"/>
<circle style="fill:#B8DBFF;" cx="256" cy="306.729" r="91.87"/>
<g>
	<ellipse style="fill:#FFFFFF;" cx="203.94" cy="276.479" rx="19.21" ry="15.298"/>
	<ellipse style="fill:#FFFFFF;" cx="308.06" cy="276.479" rx="19.21" ry="15.298"/>
</g>
<g>
	<path style="fill:#495059;" d="M215.134,268.719c-4.142,0-7.5-3.357-7.5-7.5v-6.783c0-4.143,3.358-7.5,7.5-7.5s7.5,3.357,7.5,7.5
		v6.783C222.634,265.362,219.276,268.719,215.134,268.719z"/>
	<path style="fill:#495059;" d="M296.866,268.719c-4.143,0-7.5-3.357-7.5-7.5v-6.783c0-4.143,3.357-7.5,7.5-7.5s7.5,3.357,7.5,7.5
		v6.783C304.366,265.362,301.009,268.719,296.866,268.719z"/>
	<path style="fill:#495059;" d="M256,273.928c-6.296,0-12.284-2.727-16.428-7.48c-2.722-3.122-2.397-7.859,0.726-10.581
		c3.123-2.723,7.859-2.399,10.582,0.726c1.294,1.484,3.161,2.336,5.121,2.336c1.96,0,3.826-0.852,5.121-2.336
		c2.722-3.123,7.459-3.449,10.581-0.726c3.123,2.722,3.447,7.459,0.726,10.581C268.284,271.201,262.297,273.928,256,273.928z"/>
</g>
<g>
	<path style="fill:#5B6EA2;" d="M260.854,366.244h-20.379c-4.142,0-7.5-3.357-7.5-7.5s3.358-7.5,7.5-7.5h20.379
		c1.748,0,3.17-1.422,3.17-3.169c0-1.748-1.422-3.17-3.17-3.17h-9.709c-10.019,0-18.17-8.151-18.17-18.17
		c0-10.018,8.151-18.169,18.17-18.169h20.379c4.143,0,7.5,3.357,7.5,7.5s-3.357,7.5-7.5,7.5h-20.379c-1.748,0-3.17,1.422-3.17,3.169
		c0,1.748,1.422,3.17,3.17,3.17h9.709c10.019,0,18.17,8.151,18.17,18.17C279.024,358.094,270.873,366.244,260.854,366.244z"/>
	<path style="fill:#5B6EA2;" d="M256,323.567c-4.142,0-7.5-3.357-7.5-7.5v-13.369c0-4.143,3.358-7.5,7.5-7.5
		c4.143,0,7.5,3.357,7.5,7.5v13.369C263.5,320.209,260.143,323.567,256,323.567z"/>
	<path style="fill:#5B6EA2;" d="M256,379.614c-4.142,0-7.5-3.357-7.5-7.5v-13.369c0-4.143,3.358-7.5,7.5-7.5
		c4.143,0,7.5,3.357,7.5,7.5v13.369C263.5,376.256,260.143,379.614,256,379.614z"/>
</g>
<path style="opacity:0.1;enable-background:new    ;" d="M349.103,393.383c-179.024,11.782-179.554-161.098-105.704-213.237
	C179.064,186.473,128.8,240.727,128.8,306.725c0,70.251,56.949,127.2,127.2,127.2C292.765,433.926,325.88,418.322,349.103,393.383z"
	/>
<path style="fill:#F7B96D;" d="M256,144.441c-45.636,0-94.753-10.384-94.753-33.184S210.364,78.072,256,78.072
	s94.753,10.385,94.753,33.185S301.636,144.441,256,144.441z M256,93.072c-22.609,0-43.768,2.564-59.579,7.218
	c-16.667,4.906-20.174,10.14-20.174,10.967s3.507,6.061,20.174,10.966c15.811,4.654,36.97,7.218,59.579,7.218
	s43.768-2.564,59.579-7.218c16.667-4.905,20.174-10.139,20.174-10.966s-3.507-6.061-20.174-10.967
	C299.768,95.636,278.608,93.072,256,93.072z"/>
<g>
</g>
<g>
</g>
<g>
</g>
<g>
</g>
<g>
</g>
<g>
</g>
<g>
</g>
<g>
</g>
<g>
</g>
<g>
</g>
<g>
</g>
<g>
</g>
<g>
</g>
<g>
</g>
<g>
</g>
</svg>
