<?xml version="1.0" encoding="iso-8859-1"?>
<!-- Generator: Adobe Illustrator 19.0.0, SVG Export Plug-In . SVG Version: 6.00 Build 0)  -->
<svg version="1.1" id="Capa_1" xmlns="http://www.w3.org/2000/svg" xmlns:xlink="http://www.w3.org/1999/xlink" x="0px" y="0px"
	 viewBox="0 0 512.001 512.001" style="enable-background:new 0 0 512.001 512.001;" xml:space="preserve">
<circle style="fill:#495059;" cx="256.001" cy="466.69" r="45.31"/>
<path style="opacity:0.1;enable-background:new    ;" d="M210.733,468.557c0.898,22.404,18.448,41.016,40.761,43.221
	c5.727,0.566,11.249,0.034,16.412-1.369c-10.711-3.039-20.74-10.086-26.051-18.083c-3.284-4.944,0.429-11.562,6.365-11.562h50.849
	c1.447-4.43,2.239-9.156,2.239-14.069c0-12.945-5.438-24.612-14.143-32.868c-21.886,0.296-45.178,0.61-63.218,0.852
	C215.354,443.281,210.202,455.32,210.733,468.557z"/>
<path style="fill:#B8DBFF;" d="M253.775,0.016c-80.485,1.167-146.221,66.64-147.695,147.12
	c-0.524,28.622,6.976,55.454,20.399,78.398c26.622,45.505,41.045,97.109,41.045,149.829v0.719h176.953v-0.711
	c0-52.934,14.818-104.575,41.357-150.374c12.79-22.072,20.112-47.706,20.112-75.052C405.947,66.393,337.608-1.199,253.775,0.016z"/>
<path style="fill:#5B6EA2;" d="M297.827,231.537c-4.918-4.917-12.889-4.915-17.806,0l-24.02,24.02l-24.02-24.02
	c-4.917-4.917-12.889-4.915-17.806,0c-4.917,4.917-4.917,12.889,0,17.806l24.135,24.135c3.289,3.289,5.101,7.663,5.101,12.315v90.29
	c0,6.954,5.637,12.591,12.591,12.591c6.954,0,12.591-5.637,12.591-12.591v-90.29c0-4.652,1.812-9.026,5.101-12.315l24.135-24.135
	C302.744,244.426,302.744,236.454,297.827,231.537z"/>
<path style="fill:#609AD6;" d="M170.248,234.813c15.364,15.364,36.681,16.933,49.822,16.125c7.249-0.446,13.059-6.256,13.505-13.505
	c0.808-13.141-0.761-34.458-16.125-49.822c-17.948-17.947-46.802-19.853-59.834-19.712c-3.893,0.042-7.039,3.187-7.081,7.081
	C150.395,188.011,152.301,216.866,170.248,234.813z"/>
<path style="opacity:0.1;enable-background:new    ;" d="M208.239,233.102c-1.919,0-3.839-0.732-5.303-2.196l-31.955-31.956
	c-2.929-2.93-2.929-7.678,0-10.607c2.929-2.928,7.678-2.928,10.606,0l31.955,31.955c2.929,2.93,2.929,7.678,0,10.607
	C212.078,232.369,210.158,233.102,208.239,233.102z"/>
<path style="fill:#609AD6;" d="M341.754,234.813c-15.364,15.364-36.681,16.933-49.822,16.125
	c-7.249-0.446-13.059-6.256-13.505-13.505c-0.808-13.141,0.761-34.458,16.125-49.822c17.947-17.947,46.802-19.853,59.834-19.712
	c3.894,0.042,7.039,3.187,7.081,7.081C361.607,188.011,359.701,216.866,341.754,234.813z"/>
<path style="opacity:0.1;enable-background:new    ;" d="M303.763,233.102c-1.919,0-3.839-0.732-5.303-2.196
	c-2.929-2.93-2.929-7.678,0-10.607l31.955-31.955c2.929-2.928,7.678-2.928,10.606,0c2.929,2.93,2.929,7.678,0,10.607l-31.955,31.955
	C307.602,232.369,305.683,233.102,303.763,233.102z"/>
<path style="fill:#55A6B5;" d="M308.694,466.694H203.308c-19.763,0-35.784-16.021-35.784-35.784v-54.828h176.953v54.828
	C344.477,450.674,328.457,466.694,308.694,466.694z"/>
<rect x="167.521" y="413.89" style="opacity:0.1;enable-background:new    ;" width="176.95" height="15"/>
<g>
	<ellipse style="fill:#FFFFFF;" cx="184.511" cy="109.76" rx="26.378" ry="21.18"/>
	<ellipse style="fill:#FFFFFF;" cx="327.491" cy="109.76" rx="26.378" ry="21.18"/>
</g>
<g>
	<path style="fill:#495059;" d="M188.922,92.248c-4.142,0-7.5-3.357-7.5-7.5V73.331c0-4.143,3.358-7.5,7.5-7.5s7.5,3.357,7.5,7.5
		v11.417C196.422,88.891,193.064,92.248,188.922,92.248z"/>
	<path style="fill:#495059;" d="M256.001,112.757L256.001,112.757c-10.555,0-19.111-8.556-19.111-19.111V79.429
		c0-2.881,2.336-5.217,5.217-5.217h27.788c2.881,0,5.217,2.336,5.217,5.217v14.216C275.112,104.2,266.556,112.757,256.001,112.757z"
		/>
	<path style="fill:#495059;" d="M323.08,92.248c-4.142,0-7.5-3.357-7.5-7.5V73.331c0-4.143,3.358-7.5,7.5-7.5s7.5,3.357,7.5,7.5
		v11.417C330.58,88.891,327.222,92.248,323.08,92.248z"/>
</g>
<path style="opacity:0.1;enable-background:new    ;" d="M244.387,376.083c-1.619-58.303-10.23-121.827-51.022-172.898
	c-35.007-43.828-64.311-126.584,2.454-190.502c-51.913,22.933-88.642,74.529-89.739,134.453
	c-0.524,28.623,6.976,55.454,20.399,78.398c26.622,45.505,41.045,97.109,41.045,149.829v0.719L244.387,376.083L244.387,376.083z"/>
<path style="opacity:0.1;enable-background:new    ;" d="M167.525,376.083v54.828c0,19.763,16.021,35.783,35.784,35.783h75.323
	c-39.002-20.419-34.244-72.765-34.244-90.611H167.525z"/>
<g>
</g>
<g>
</g>
<g>
</g>
<g>
</g>
<g>
</g>
<g>
</g>
<g>
</g>
<g>
</g>
<g>
</g>
<g>
</g>
<g>
</g>
<g>
</g>
<g>
</g>
<g>
</g>
<g>
</g>
</svg>
