<?xml version="1.0" encoding="iso-8859-1"?>
<!-- Generator: Adobe Illustrator 19.0.0, SVG Export Plug-In . SVG Version: 6.00 Build 0)  -->
<svg version="1.1" id="Capa_1" xmlns="http://www.w3.org/2000/svg" xmlns:xlink="http://www.w3.org/1999/xlink" x="0px" y="0px"
	 viewBox="0 0 512 512" style="enable-background:new 0 0 512 512;" xml:space="preserve">
<circle style="fill:#609AD6;" cx="256" cy="272.56" r="207.22"/>
<circle style="fill:#EEF0F1;" cx="256" cy="272.56" r="169.05"/>
<path style="fill:#5B6EA2;" d="M421.4,188.058c-10.915,0-21.677-5.05-28.577-14.561c-15.366-21.179-35.718-38.752-58.854-50.819
	c-24.208-12.624-50.441-19.025-77.969-19.025s-53.761,6.401-77.969,19.025c-23.136,12.066-43.488,29.639-58.854,50.819
	c-11.438,15.767-33.493,19.276-49.26,7.837s-19.275-33.494-7.836-49.26c21.746-29.975,50.563-54.852,83.332-71.941
	c33.896-17.677,72.136-27.02,110.587-27.02s76.691,9.343,110.587,27.019c32.769,17.09,61.586,41.967,83.332,71.941
	c11.439,15.766,7.931,37.821-7.836,49.26C435.827,185.872,428.58,188.058,421.4,188.058z"/>
<path style="opacity:0.1;enable-background:new    ;" d="M194.343,41.206c-1.949,5.447-3.017,11.313-3.017,17.43
	c0,21.79,13.474,40.422,32.539,48.053c10.478-2.008,21.202-3.035,32.135-3.035c3.986,0,7.94,0.15,11.87,0.418
	c16.065-8.784,26.962-25.836,26.962-45.436c0-8.327-1.978-16.187-5.472-23.156c-11.036-1.553-22.187-2.366-33.36-2.366
	C235.164,33.113,214.397,35.88,194.343,41.206z"/>
<path style="fill:#5B6EA2;" d="M256,512c-38.451,0-76.691-9.343-110.587-27.019c-32.769-17.09-61.586-41.967-83.332-71.941
	c-11.439-15.766-7.931-37.821,7.836-49.26c15.765-11.439,37.821-7.93,49.26,7.836c15.366,21.179,35.718,38.752,58.854,50.819
	c24.208,12.624,50.441,19.025,77.969,19.025s53.761-6.401,77.969-19.025c23.136-12.066,43.488-29.639,58.854-50.819
	c11.438-15.766,33.495-19.276,49.26-7.836c15.767,11.439,19.275,33.494,7.836,49.26c-21.746,29.975-50.563,54.852-83.332,71.941
	C332.691,502.657,294.451,512,256,512z"/>
<path style="fill:#495059;" d="M256,156.758c-4.143,0-7.5-3.357-7.5-7.5v-19.104c0-4.143,3.357-7.5,7.5-7.5s7.5,3.357,7.5,7.5
	v19.104C263.5,153.4,260.143,156.758,256,156.758z"/>
<circle style="fill:#609AD6;" cx="256" cy="51.753" r="51.753"/>
<circle style="fill:#EEF0F1;" cx="256" cy="51.753" r="22.262"/>
<g>
	<path style="fill:#5B6EA2;" d="M256,156.758c-4.143,0-7.5-3.357-7.5-7.5v-19.104c0-4.143,3.357-7.5,7.5-7.5s7.5,3.357,7.5,7.5
		v19.104C263.5,153.4,260.143,156.758,256,156.758z"/>
	<path style="fill:#5B6EA2;" d="M194.357,173.277c-2.592,0-5.112-1.345-6.502-3.751l-9.552-16.544
		c-2.071-3.587-0.842-8.174,2.745-10.245c3.586-2.069,8.173-0.843,10.245,2.745l9.552,16.544c2.071,3.587,0.842,8.174-2.745,10.245
		C196.92,172.953,195.63,173.277,194.357,173.277z"/>
	<path style="fill:#5B6EA2;" d="M149.213,218.408c-1.273,0-2.562-0.324-3.743-1.006l-16.544-9.552
		c-3.587-2.071-4.816-6.658-2.745-10.245c2.07-3.588,6.656-4.816,10.245-2.745l16.544,9.552c3.587,2.071,4.816,6.658,2.745,10.245
		C154.326,217.064,151.805,218.408,149.213,218.408z"/>
	<path style="fill:#5B6EA2;" d="M132.701,280.057h-19.104c-4.143,0-7.5-3.357-7.5-7.5s3.357-7.5,7.5-7.5h19.104
		c4.143,0,7.5,3.357,7.5,7.5C140.201,276.699,136.844,280.057,132.701,280.057z"/>
	<path style="fill:#5B6EA2;" d="M132.683,351.259c-2.592,0-5.112-1.345-6.502-3.751c-2.071-3.587-0.842-8.174,2.745-10.245
		l16.544-9.552c3.586-2.07,8.173-0.843,10.245,2.745c2.071,3.587,0.842,8.174-2.745,10.245l-16.544,9.552
		C135.245,350.935,133.955,351.259,132.683,351.259z"/>
	<path style="fill:#5B6EA2;" d="M184.792,403.382c-1.273,0-2.562-0.324-3.743-1.006c-3.587-2.071-4.816-6.658-2.745-10.245
		l9.552-16.544c2.07-3.588,6.655-4.815,10.245-2.745c3.587,2.071,4.816,6.658,2.745,10.245l-9.552,16.544
		C189.905,402.037,187.384,403.382,184.792,403.382z"/>
	<path style="fill:#5B6EA2;" d="M317.643,173.277c-1.273,0-2.562-0.324-3.743-1.006c-3.587-2.071-4.816-6.658-2.745-10.245
		l9.552-16.544c2.07-3.588,6.656-4.815,10.245-2.745c3.587,2.071,4.816,6.658,2.745,10.245l-9.552,16.544
		C322.756,171.933,320.234,173.277,317.643,173.277z"/>
	<path style="fill:#5B6EA2;" d="M362.787,218.408c-2.592,0-5.112-1.345-6.502-3.751c-2.071-3.587-0.842-8.174,2.745-10.245
		l16.544-9.552c3.586-2.069,8.173-0.843,10.245,2.745c2.071,3.587,0.842,8.174-2.745,10.245l-16.544,9.552
		C365.35,218.084,364.06,218.408,362.787,218.408z"/>
	<path style="fill:#5B6EA2;" d="M398.402,280.057h-19.104c-4.142,0-7.5-3.357-7.5-7.5s3.358-7.5,7.5-7.5h19.104
		c4.143,0,7.5,3.357,7.5,7.5C405.902,276.699,402.545,280.057,398.402,280.057z"/>
	<path style="fill:#5B6EA2;" d="M379.317,351.259c-1.273,0-2.562-0.324-3.743-1.006l-16.544-9.552
		c-3.587-2.071-4.816-6.658-2.745-10.245c2.07-3.588,6.656-4.816,10.245-2.745l16.544,9.552c3.587,2.071,4.816,6.658,2.745,10.245
		C384.431,349.914,381.909,351.259,379.317,351.259z"/>
	<path style="fill:#5B6EA2;" d="M327.208,403.382c-2.592,0-5.112-1.345-6.502-3.751l-9.552-16.544
		c-2.071-3.587-0.842-8.174,2.745-10.245c3.585-2.07,8.173-0.843,10.245,2.745l9.552,16.544c2.071,3.587,0.842,8.174-2.745,10.245
		C329.771,403.058,328.48,403.382,327.208,403.382z"/>
	<path style="fill:#5B6EA2;" d="M256,422.459c-4.143,0-7.5-3.357-7.5-7.5v-19.104c0-4.143,3.357-7.5,7.5-7.5s7.5,3.357,7.5,7.5
		v19.104C263.5,419.102,260.143,422.459,256,422.459z"/>
</g>
<path style="fill:#EC7887;" d="M306.515,289.165h-46.381c-7.854,0-14.222-6.368-14.222-14.222s6.368-14.222,14.222-14.222h46.381
	c7.854,0,14.222,6.368,14.222,14.222C320.737,282.797,314.37,289.165,306.515,289.165z"/>
<path style="fill:#495059;" d="M260.122,289.168c-2.234,0-4.502-0.529-6.617-1.643c-6.95-3.661-9.615-12.262-5.953-19.211
	l36.255-68.811c3.66-6.95,12.262-9.616,19.211-5.953c6.95,3.661,9.615,12.262,5.953,19.211l-36.255,68.811
	C270.17,286.406,265.231,289.168,260.122,289.168z"/>
<path style="opacity:0.1;enable-background:new    ;" d="M256,441.607c44.783,0,85.492-17.421,115.739-45.846
	C148.887,437.176,117.258,183.84,231.05,105.343C149.517,117.405,86.949,187.67,86.949,272.557
	C86.949,365.921,162.636,441.607,256,441.607z"/>
<path style="opacity:0.1;enable-background:new    ;" d="M145.413,60.132c-32.769,17.09-61.586,41.967-83.332,71.941
	c-11.439,15.766-7.931,37.821,7.836,49.26c15.766,11.44,37.822,7.931,49.26-7.837c15.366-21.179,35.718-38.752,58.854-50.819
	c3.977-2.074,8.013-3.962,12.096-5.7c-38.545,1.789-53.681-36.667-41.733-58.343C147.401,59.135,146.399,59.618,145.413,60.132z"/>
<path style="opacity:0.1;enable-background:new    ;" d="M106.54,136.528c-1.869,0-3.74-0.694-5.194-2.091
	c-2.987-2.87-3.083-7.617-0.214-10.604c19.127-19.912,41.532-35.747,66.596-47.063c3.775-1.707,8.217-0.025,9.922,3.75
	c1.704,3.774,0.025,8.217-3.75,9.922c-23.311,10.525-44.154,25.256-61.949,43.782C110.478,135.757,108.51,136.528,106.54,136.528z"
	/>
<path style="opacity:0.1;enable-background:new    ;" d="M405.46,136.528c-1.971,0-3.938-0.771-5.41-2.305
	c-17.795-18.526-38.639-33.257-61.949-43.782c-3.775-1.705-5.454-6.147-3.75-9.922c1.705-3.775,6.145-5.457,9.922-3.75
	c25.063,11.316,47.469,27.151,66.596,47.063c2.869,2.987,2.773,7.734-0.214,10.604C409.2,135.834,407.328,136.528,405.46,136.528z"
	/>
<path style="opacity:0.1;enable-background:new    ;" d="M145.413,484.981c30.697,16.008,64.958,25.154,99.711,26.743
	c-55.904-10.448-52.03-65.249-44.533-79.537c-7.692-2.678-15.221-5.924-22.56-9.752c-23.136-12.066-43.488-29.639-58.854-50.819
	c-11.439-15.766-33.495-19.275-49.26-7.836c-15.767,11.439-19.275,33.494-7.836,49.26
	C83.827,443.014,112.644,467.891,145.413,484.981z"/>
<path style="opacity:0.1;enable-background:new    ;" d="M256,487.272c-32.39,0-63.52-7.033-92.524-20.905
	c-3.737-1.787-5.317-6.265-3.53-10.001c1.786-3.738,6.264-5.32,10.001-3.53c26.969,12.897,55.922,19.437,86.054,19.437
	s59.085-6.539,86.054-19.437c3.734-1.789,8.215-0.207,10.001,3.53c1.787,3.736,0.207,8.214-3.53,10.001
	C319.52,480.239,288.39,487.272,256,487.272z"/>
<g>
</g>
<g>
</g>
<g>
</g>
<g>
</g>
<g>
</g>
<g>
</g>
<g>
</g>
<g>
</g>
<g>
</g>
<g>
</g>
<g>
</g>
<g>
</g>
<g>
</g>
<g>
</g>
<g>
</g>
</svg>
