<?xml version="1.0" encoding="iso-8859-1"?>
<!-- Generator: Adobe Illustrator 19.0.0, SVG Export Plug-In . SVG Version: 6.00 Build 0)  -->
<svg version="1.1" id="Capa_1" xmlns="http://www.w3.org/2000/svg" xmlns:xlink="http://www.w3.org/1999/xlink" x="0px" y="0px"
	 viewBox="0 0 512 512" style="enable-background:new 0 0 512 512;" xml:space="preserve">
<path style="fill:#86DBD5;" d="M482.194,490.875H159.676c-16.462,0-29.806-13.345-29.806-29.806V50.931
	c0-16.462,13.345-29.806,29.806-29.806h322.518C498.655,21.125,512,34.47,512,50.931v410.137
	C512,477.53,498.655,490.875,482.194,490.875z"/>
<path style="fill:#EEF0F1;" d="M448.303,490.875H125.785c-16.462,0-29.806-13.345-29.806-29.806V50.931
	c0-16.462,13.345-29.806,29.806-29.806h322.518c16.462,0,29.806,13.345,29.806,29.806v410.137
	C478.109,477.53,464.765,490.875,448.303,490.875z"/>
<path style="fill:#EC7887;" d="M456.815,183.408l-32.856,7.61V88.253l32.856,7.609c12.467,2.887,21.295,13.993,21.295,26.79v33.964
	C478.109,169.415,469.282,180.52,456.815,183.408z"/>
<path style="fill:#F7B96D;" d="M456.815,286.171l-32.856,7.61V191.017l32.856,7.609c12.467,2.887,21.295,13.993,21.295,26.79v33.964
	C478.109,272.178,469.282,283.284,456.815,286.171z"/>
<path style="opacity:0.1;enable-background:new    ;" d="M415.067,490.875H92.548c-16.461,0-29.806-13.345-29.806-29.806V50.931
	c0-16.462,13.345-29.806,29.806-29.806h322.518c16.461,0,29.806,13.345,29.806,29.806v410.137
	C444.873,477.53,431.528,490.875,415.067,490.875z"/>
<path style="fill:#86DBD5;" d="M394.152,490.875H71.634c-16.461,0-29.806-13.345-29.806-29.806V50.931
	c0-16.462,13.345-29.806,29.806-29.806h322.518c16.462,0,29.806,13.345,29.806,29.806v410.137
	C423.959,477.53,410.614,490.875,394.152,490.875z"/>
<path style="fill:#55A6B5;" d="M286.341,234.002c25.887-11.079,43.807-35.482,43.807-66.977c0-43.504-34.179-78.772-76.341-78.772
	s-76.341,35.267-76.341,78.772c0,31.495,17.92,55.898,43.807,66.977c-16.9,9.786-28.996,26.947-31.853,47.092
	c-0.69,4.866,3.104,9.215,8.019,9.215h112.737c4.915,0,8.709-4.349,8.019-9.215C315.337,260.949,303.241,243.788,286.341,234.002z"
	/>
<g>
	<ellipse style="fill:#FFFFFF;" cx="208.91" cy="174.73" rx="16.568" ry="13.194"/>
	<ellipse style="fill:#FFFFFF;" cx="298.71" cy="174.73" rx="16.568" ry="13.194"/>
</g>
<g>
	<path style="fill:#495059;" d="M218.562,169.067c-4.142,0-7.5-3.357-7.5-7.5v-5.851c0-4.143,3.358-7.5,7.5-7.5s7.5,3.357,7.5,7.5
		v5.851C226.062,165.71,222.704,169.067,218.562,169.067z"/>
	<path style="fill:#495059;" d="M289.053,169.067c-4.142,0-7.5-3.357-7.5-7.5v-5.851c0-4.143,3.358-7.5,7.5-7.5s7.5,3.357,7.5,7.5
		v5.851C296.553,165.71,293.195,169.067,289.053,169.067z"/>
	<path style="fill:#495059;" d="M253.808,173.56c-5.73,0-11.178-2.48-14.947-6.807c-2.721-3.122-2.396-7.86,0.727-10.581
		c3.122-2.721,7.861-2.396,10.581,0.727c0.541,0.62,1.732,1.66,3.638,1.66s3.098-1.041,3.639-1.661
		c2.722-3.123,7.458-3.447,10.582-0.727c3.123,2.722,3.448,7.46,0.726,10.582C264.984,171.079,259.537,173.56,253.808,173.56z"/>
</g>
<g>
	<path style="fill:#55A6B5;" d="M335.001,345.729H172.614c-4.142,0-7.5-3.357-7.5-7.5s3.358-7.5,7.5-7.5h162.387
		c4.142,0,7.5,3.357,7.5,7.5C342.501,342.372,339.143,345.729,335.001,345.729z"/>
	<path style="fill:#55A6B5;" d="M313.976,441.713H193.639c-9.522,0-17.24-7.719-17.24-17.24v-19.658
		c0-9.521,7.719-17.24,17.24-17.24h120.337c9.521,0,17.24,7.719,17.24,17.24v19.658
		C331.216,433.994,323.497,441.713,313.976,441.713z"/>
</g>
<path style="opacity:0.1;enable-background:new    ;" d="M41.828,50.931v410.137c0,16.461,13.345,29.806,29.806,29.806h243.642
	c-120.9-88.731-130.171-370.617-130.816-469.749H71.634C55.173,21.125,41.828,34.47,41.828,50.931z"/>
<g>
	<path style="fill:#5B6EA2;" d="M56.178,79.574h-28.7C12.302,79.574,0,91.876,0,107.052l0,0c0,15.176,12.302,27.478,27.478,27.478
		h28.7c15.176,0,27.478-12.302,27.478-27.478l0,0C83.656,91.876,71.354,79.574,56.178,79.574z"/>
	<path style="fill:#5B6EA2;" d="M56.178,432.426h-28.7C12.302,432.426,0,420.124,0,404.948l0,0
		c0-15.176,12.302-27.478,27.478-27.478h28.7c15.176,0,27.478,12.302,27.478,27.478l0,0
		C83.656,420.124,71.354,432.426,56.178,432.426z"/>
	<path style="fill:#5B6EA2;" d="M56.178,228.522h-28.7C12.302,228.522,0,240.824,0,256l0,0c0,15.176,12.302,27.478,27.478,27.478
		h28.7c15.176,0,27.478-12.302,27.478-27.478l0,0C83.656,240.824,71.354,228.522,56.178,228.522z"/>
</g>
<g>
</g>
<g>
</g>
<g>
</g>
<g>
</g>
<g>
</g>
<g>
</g>
<g>
</g>
<g>
</g>
<g>
</g>
<g>
</g>
<g>
</g>
<g>
</g>
<g>
</g>
<g>
</g>
<g>
</g>
</svg>
