<?xml version="1.0" encoding="iso-8859-1"?>
<!-- Generator: Adobe Illustrator 19.0.0, SVG Export Plug-In . SVG Version: 6.00 Build 0)  -->
<svg version="1.1" id="Capa_1" xmlns="http://www.w3.org/2000/svg" xmlns:xlink="http://www.w3.org/1999/xlink" x="0px" y="0px"
	 viewBox="0 0 512 512" style="enable-background:new 0 0 512 512;" xml:space="preserve">
<path style="fill:#55A6B5;" d="M403.83,76.979c0-9.396-7.617-17.013-17.013-17.013H45.6c-9.396,0-17.013,7.617-17.013,17.013v174.69
	H403.83V76.979z"/>
<path style="fill:#86DBD5;" d="M132.749,84.979l-13.857-29.152c-3.578-7.528-11.17-12.325-19.505-12.325H37.459
	c-8.335,0-15.927,4.797-19.505,12.325L7.811,77.166C2.668,87.985,0,99.814,0,111.793v236.382c0,9.396,7.617,17.013,17.013,17.013
	h369.804c9.396,0,17.013-7.617,17.013-17.013V110.612c0-9.396-7.617-17.013-17.013-17.013H146.389
	C140.56,93.598,135.252,90.244,132.749,84.979z"/>
<path style="opacity:0.1;enable-background:new    ;" d="M86.429,43.502h-48.97c-8.335,0-15.927,4.797-19.505,12.325L7.811,77.166
	C2.668,87.985,0,99.814,0,111.793v236.382c0,9.396,7.617,17.013,17.013,17.013h208.599
	C128.874,304.221,83.396,136.512,86.429,43.502z"/>
<rect y="313.819" style="opacity:0.1;enable-background:new    ;" width="403.83" height="15"/>
<path style="fill:#C58F85;" d="M512,190.499c0-9.396-7.617-17.013-17.013-17.013H153.77c-9.396,0-17.013,7.617-17.013,17.013
	v174.689H512V190.499z"/>
<path style="fill:#EEF0F1;" d="M482.688,207.118H266.135V50.481c0-9.494,7.697-17.191,17.191-17.191h182.171
	c9.494,0,17.191,7.696,17.191,17.191L482.688,207.118L482.688,207.118z"/>
<g>
	<path style="fill:#495059;" d="M436.639,102.071H312.185c-4.142,0-7.5-3.358-7.5-7.5c0-4.143,3.358-7.5,7.5-7.5h124.454
		c4.142,0,7.5,3.357,7.5,7.5S440.781,102.071,436.639,102.071z"/>
	<path style="fill:#495059;" d="M436.639,139.942H312.185c-4.142,0-7.5-3.357-7.5-7.5s3.358-7.5,7.5-7.5h124.454
		c4.142,0,7.5,3.357,7.5,7.5S440.781,139.942,436.639,139.942z"/>
	<path style="fill:#495059;" d="M436.639,177.813H312.185c-4.142,0-7.5-3.357-7.5-7.5s3.358-7.5,7.5-7.5h124.454
		c4.142,0,7.5,3.357,7.5,7.5C444.139,174.455,440.781,177.813,436.639,177.813z"/>
</g>
<path style="opacity:0.1;enable-background:new    ;" d="M338.403,33.29h-55.077c-9.494,0-17.191,7.696-17.191,17.191v156.638
	h125.267C353.223,174.387,339.954,72.875,338.403,33.29z"/>
<path style="fill:#FDE27C;" d="M240.919,198.499l-13.857-29.152c-3.578-7.528-11.17-12.325-19.505-12.325h-61.928
	c-8.335,0-15.926,4.797-19.505,12.325l-10.143,21.339c-5.143,10.819-7.811,22.648-7.811,34.627v236.382
	c0,9.396,7.617,17.013,17.013,17.013h369.804c9.396,0,17.013-7.617,17.013-17.013V224.132c0-9.396-7.617-17.013-17.013-17.013
	H254.559C248.73,207.118,243.422,203.764,240.919,198.499z"/>
<g>
	<ellipse style="fill:#EC7887;" cx="231.59" cy="331.909" rx="28.963" ry="23.06"/>
	<ellipse style="fill:#EC7887;" cx="388.58" cy="331.909" rx="28.963" ry="23.06"/>
</g>
<g>
	<path style="fill:#495059;" d="M262.256,314.309c-4.142,0-7.5-3.358-7.5-7.5c0-3.466-2.82-6.286-6.286-6.286
		c-3.466,0-6.285,2.82-6.285,6.286c0,4.142-3.358,7.5-7.5,7.5s-7.5-3.358-7.5-7.5c0-11.737,9.548-21.286,21.285-21.286
		c11.737,0,21.286,9.549,21.286,21.286C269.756,310.951,266.398,314.309,262.256,314.309z"/>
	<path style="fill:#495059;" d="M385.485,314.309c-4.142,0-7.5-3.358-7.5-7.5c0-3.466-2.82-6.286-6.286-6.286
		s-6.286,2.82-6.286,6.286c0,4.142-3.358,7.5-7.5,7.5s-7.5-3.358-7.5-7.5c0-11.737,9.549-21.286,21.286-21.286
		s21.286,9.549,21.286,21.286C392.985,310.951,389.627,314.309,385.485,314.309z"/>
	<path style="fill:#495059;" d="M310.085,337.083c-7.772,0-15.163-3.366-20.277-9.234c-2.721-3.123-2.396-7.86,0.727-10.582
		c3.122-2.721,7.86-2.396,10.582,0.727c2.265,2.6,5.534,4.09,8.969,4.09s6.704-1.49,8.969-4.09c2.722-3.123,7.46-3.447,10.582-0.727
		c3.123,2.722,3.448,7.459,0.727,10.582C325.248,333.717,317.857,337.083,310.085,337.083z"/>
</g>
<path style="opacity:0.1;enable-background:new    ;" d="M194.6,157.022h-48.97c-8.335,0-15.926,4.797-19.505,12.325l-10.143,21.339
	c-5.143,10.819-7.811,22.648-7.811,34.628v236.382c0,9.396,7.617,17.013,17.013,17.013h208.599
	C237.044,417.74,191.566,250.033,194.6,157.022z"/>
<rect x="108.17" y="427.349" style="opacity:0.1;enable-background:new    ;" width="403.83" height="15"/>
<g>
</g>
<g>
</g>
<g>
</g>
<g>
</g>
<g>
</g>
<g>
</g>
<g>
</g>
<g>
</g>
<g>
</g>
<g>
</g>
<g>
</g>
<g>
</g>
<g>
</g>
<g>
</g>
<g>
</g>
</svg>
