<?xml version="1.0" encoding="iso-8859-1"?>
<!-- Generator: Adobe Illustrator 19.0.0, SVG Export Plug-In . SVG Version: 6.00 Build 0)  -->
<svg version="1.1" id="Capa_1" xmlns="http://www.w3.org/2000/svg" xmlns:xlink="http://www.w3.org/1999/xlink" x="0px" y="0px"
	 viewBox="0 0 512 512" style="enable-background:new 0 0 512 512;" xml:space="preserve">
<path style="fill:#609AD6;" d="M471.699,512H40.303c-18.721,0-33.897-15.176-33.897-33.897V208.721
	c0-11.48,9.307-20.787,20.787-20.787h457.614c11.48,0,20.787,9.307,20.787,20.787v269.381C505.595,496.824,490.419,512,471.699,512z
	"/>
<path style="opacity:0.1;enable-background:new    ;" d="M294.656,348.605c-2.947,2.244-5.775,4.399-8.454,6.439
	c-17.844,13.592-42.564,13.588-60.408-0.004l-8.449-6.435L15.231,500.914C21.431,507.725,30.368,512,40.303,512h431.396
	c9.935,0,18.872-4.275,25.072-11.086L294.656,348.605z"/>
<path style="fill:#5B6EA2;" d="M498.656,193.219L286.208,355.04c-17.844,13.592-42.569,13.592-60.413,0L13.347,193.221
	L223.479,12.083c18.689-16.11,46.355-16.11,65.044,0L498.656,193.219z"/>
<path style="opacity:0.1;enable-background:new    ;" d="M286.208,320.283c-17.844,13.592-42.569,13.592-60.413,0L34.753,174.768
	L13.347,193.22L225.795,355.04c17.844,13.592,42.569,13.592,60.413,0l212.448-161.82l-21.406-18.452L286.208,320.283z"/>
<path style="fill:#EEF0F1;" d="M286.203,355.043c24.919-18.981,62.092-47.295,99.206-75.564V144.786
	c0-13.048-10.577-23.625-23.625-23.625H150.218c-13.048,0-23.625,10.577-23.625,23.625v134.693l99.201,75.56
	C243.639,368.631,268.358,368.635,286.203,355.043z"/>
<path style="opacity:0.1;enable-background:new    ;" d="M225.795,330.319l-99.201-75.56v24.72l99.201,75.56
	c17.844,13.592,42.564,13.595,60.408,0.004c24.919-18.98,62.092-47.294,99.206-75.564v-24.72
	c-37.114,28.27-74.287,56.584-99.206,75.564C268.358,343.915,243.639,343.911,225.795,330.319z"/>
<g>
	<path style="fill:#495059;" d="M333.042,264.247H178.96c-4.143,0-7.5-3.357-7.5-7.5c0-4.143,3.357-7.5,7.5-7.5h154.082
		c4.143,0,7.5,3.357,7.5,7.5C340.542,260.891,337.185,264.247,333.042,264.247z"/>
	<path style="fill:#495059;" d="M311.192,304.523H200.81c-4.143,0-7.5-3.357-7.5-7.5s3.357-7.5,7.5-7.5h110.383
		c4.143,0,7.5,3.357,7.5,7.5S315.335,304.523,311.192,304.523z"/>
</g>
<g>
	<ellipse style="fill:#EC7887;" cx="188.941" cy="204.57" rx="24.744" ry="19.705"/>
	<ellipse style="fill:#EC7887;" cx="323.061" cy="204.57" rx="24.744" ry="19.705"/>
</g>
<g>
	<path style="fill:#495059;" d="M193.076,188.801c-4.143,0-7.5-3.358-7.5-7.5v-10.62c0-4.143,3.357-7.5,7.5-7.5s7.5,3.357,7.5,7.5
		v10.62C200.576,185.443,197.219,188.801,193.076,188.801z"/>
	<path style="fill:#495059;" d="M256.001,207.355L256.001,207.355c-9.901,0-17.927-8.026-17.927-17.927v-13.034
		c0-2.703,2.191-4.894,4.894-4.894h26.067c2.703,0,4.894,2.191,4.894,4.894v13.034C273.928,199.329,265.902,207.355,256.001,207.355
		z"/>
	<path style="fill:#495059;" d="M318.926,188.801c-4.143,0-7.5-3.358-7.5-7.5v-10.62c0-4.143,3.357-7.5,7.5-7.5s7.5,3.357,7.5,7.5
		v10.62C326.426,185.443,323.068,188.801,318.926,188.801z"/>
</g>
<path style="opacity:0.1;enable-background:new    ;" d="M13.931,192.717l0.057-0.049C13.968,192.684,13.95,192.701,13.931,192.717z
	"/>
<path style="opacity:0.1;enable-background:new    ;" d="M88.247,250.271l-74.883-57.038c-4.26,3.807-6.957,9.326-6.957,15.488
	v269.381C6.407,496.824,21.583,512,40.303,512h233.812C164.231,475.309,98.836,329.948,88.247,250.271z"/>
<g>
</g>
<g>
</g>
<g>
</g>
<g>
</g>
<g>
</g>
<g>
</g>
<g>
</g>
<g>
</g>
<g>
</g>
<g>
</g>
<g>
</g>
<g>
</g>
<g>
</g>
<g>
</g>
<g>
</g>
</svg>
