<?xml version="1.0" encoding="iso-8859-1"?>
<!-- Generator: Adobe Illustrator 19.0.0, SVG Export Plug-In . SVG Version: 6.00 Build 0)  -->
<svg version="1.1" id="Capa_1" xmlns="http://www.w3.org/2000/svg" xmlns:xlink="http://www.w3.org/1999/xlink" x="0px" y="0px"
	 viewBox="0 0 512 512" style="enable-background:new 0 0 512 512;" xml:space="preserve">
<path style="fill:#609AD6;" d="M214.869,442.268c7.958,0,14.101-7.041,12.983-14.92c-7.246-51.088-51.159-90.378-104.249-90.378
	S26.6,376.26,19.354,427.348c-1.118,7.879,5.025,14.92,12.983,14.92H214.869z"/>
<polygon style="fill:#B8DBFF;" points="146.114,343.889 101.092,343.889 106.898,442.268 140.308,442.268 "/>
<path style="opacity:0.1;enable-background:new    ;" d="M86.989,385.984c0.935-4.228,5.018-7.019,9.284-6.278
	c8.889,1.545,18.028,2.338,27.329,2.338c25.62,0,50.022-5.989,71.299-17.229c-18.757-17.276-43.788-27.844-71.299-27.844
	c-53.09,0-97.003,39.289-104.249,90.378c-1.118,7.879,5.025,14.92,12.983,14.92h65.123
	C85.315,430.474,82.815,404.857,86.989,385.984z"/>
<path style="fill:#F5D7B7;" d="M247.206,242.66c0-70.438-55.339-127.539-123.603-127.539C55.339,115.121,0,172.222,0,242.66
	s55.339,118.998,123.603,118.998C191.867,361.658,247.206,313.098,247.206,242.66z"/>
<g>
	<ellipse style="fill:#EC7887;" cx="56.17" cy="262.111" rx="24.882" ry="19.815"/>
	<ellipse style="fill:#EC7887;" cx="191.04" cy="262.111" rx="24.882" ry="19.815"/>
</g>
<g>
	<path style="fill:#495059;" d="M70.67,249.847c-4.142,0-7.5-3.357-7.5-7.5v-8.786c0-4.143,3.358-7.5,7.5-7.5s7.5,3.357,7.5,7.5
		v8.786C78.17,246.489,74.812,249.847,70.67,249.847z"/>
	<path style="fill:#495059;" d="M176.536,249.847c-4.142,0-7.5-3.357-7.5-7.5v-8.786c0-4.143,3.358-7.5,7.5-7.5s7.5,3.357,7.5,7.5
		v8.786C184.036,246.489,180.678,249.847,176.536,249.847z"/>
	<path style="fill:#495059;" d="M123.603,256.595c-7.516,0-14.664-3.255-19.61-8.931c-2.721-3.123-2.396-7.86,0.727-10.582
		c3.123-2.722,7.86-2.395,10.582,0.727c2.097,2.406,5.122,3.786,8.301,3.786s6.205-1.38,8.302-3.786
		c2.722-3.122,7.459-3.447,10.581-0.727c3.123,2.722,3.448,7.46,0.726,10.582C138.266,253.34,131.119,256.595,123.603,256.595z"/>
	<path style="fill:#495059;" d="M241.957,205.803c-15.325-52.466-62.511-90.682-118.354-90.682
		c-56.534,0-104.203,39.163-118.916,92.631c13.229,5.476,49.592-11.078,70.506-28.863c1.964-1.67,4.859-1.513,6.699,0.293
		C110.398,207.148,193.004,219.246,241.957,205.803z"/>
</g>
<path style="opacity:0.1;enable-background:new    ;" d="M193.905,187.134c-0.041,0-0.083,0-0.125-0.001
	c-31.076-0.507-67.582-13.769-84.916-30.847c-2.951-2.907-2.986-7.656-0.079-10.607c2.906-2.95,7.655-2.987,10.606-0.079
	c14.651,14.436,47.434,26.09,74.634,26.534c4.142,0.067,7.444,3.479,7.377,7.621C201.334,183.856,197.99,187.134,193.905,187.134z"
	/>
<path style="opacity:0.1;enable-background:new    ;" d="M192.403,342.765C-2.826,343.55,18.813,186.209,98.462,117.764
	C42.254,129.748,0,181.111,0,242.66c0,70.438,55.339,118.998,123.603,118.998C149.07,361.658,172.736,354.897,192.403,342.765z"/>
<path style="fill:#55A6B5;" d="M479.663,442.268c7.958,0,14.101-7.041,12.983-14.92c-7.246-51.088-51.159-90.378-104.249-90.378
	s-97.003,39.289-104.249,90.378c-1.118,7.879,5.025,14.92,12.983,14.92H479.663z"/>
<path style="fill:#86DBD5;" d="M348.152,344.962l37.188,97.306h6.115l37.187-97.306c-12.402-5.135-25.987-7.992-40.245-7.992
	S360.554,339.827,348.152,344.962z"/>
<path style="opacity:0.1;enable-background:new    ;" d="M351.783,385.984c0.935-4.228,5.018-7.019,9.284-6.278
	c8.889,1.545,18.028,2.338,27.329,2.338c25.62,0,50.022-5.989,71.299-17.229c-18.758-17.276-43.788-27.844-71.299-27.844
	c-53.09,0-97.003,39.289-104.249,90.378c-1.118,7.879,5.025,14.92,12.983,14.92h65.123
	C350.109,430.474,347.609,404.857,351.783,385.984z"/>
<circle style="fill:#C58F85;" cx="388.4" cy="115.121" r="45.39"/>
<circle style="opacity:0.1;enable-background:new    ;" cx="388.4" cy="115.121" r="45.39"/>
<path style="fill:#F5D7B7;" d="M512,242.66c0-70.438-55.339-127.539-123.603-127.539S264.794,172.222,264.794,242.66
	s55.339,118.998,123.603,118.998C456.661,361.658,512,313.098,512,242.66z"/>
<path style="fill:#C58F85;" d="M388.397,115.121c-56.5,0-104.144,39.116-118.888,92.534c19.771,32.686,92.535-9.97,115.777-19.663
	c1.992-0.831,4.231-0.831,6.223,0c23.242,9.693,96.006,52.349,115.777,19.663C492.541,154.237,444.897,115.121,388.397,115.121z"/>
<g style="opacity:0.1;">
	<path d="M311.783,188.429c-3.214,0-6.186-2.083-7.172-5.317c-1.206-3.963,1.027-8.152,4.99-9.359
		c12.795-3.896,28.157-11.355,40.09-19.464c3.427-2.327,8.091-1.438,10.419,1.987c2.328,3.426,1.438,8.091-1.987,10.419
		c-13.294,9.034-29.799,17.037-44.152,21.407C313.243,188.323,312.507,188.429,311.783,188.429z"/>
	<path d="M465.011,188.429c-0.724,0-1.459-0.105-2.188-0.327c-8.861-2.698-18.563-6.773-28.056-11.787
		c-3.663-1.934-5.065-6.472-3.13-10.134c1.933-3.662,6.473-5.064,10.134-3.13c8.665,4.575,17.456,8.276,25.421,10.701
		c3.963,1.206,6.196,5.396,4.99,9.359C471.198,186.346,468.225,188.429,465.011,188.429z"/>
</g>
<g>
	<ellipse style="fill:#EC7887;" cx="323.39" cy="261.951" rx="23.984" ry="19.1"/>
	<ellipse style="fill:#EC7887;" cx="453.4" cy="261.951" rx="23.984" ry="19.1"/>
</g>
<g>
	<path style="fill:#495059;" d="M337.373,250.402c-4.142,0-7.5-3.357-7.5-7.5v-8.47c0-4.143,3.358-7.5,7.5-7.5
		c4.143,0,7.5,3.357,7.5,7.5v8.47C344.873,247.045,341.516,250.402,337.373,250.402z"/>
	<path style="fill:#495059;" d="M439.421,250.402c-4.143,0-7.5-3.357-7.5-7.5v-8.47c0-4.143,3.357-7.5,7.5-7.5s7.5,3.357,7.5,7.5
		v8.47C446.921,247.045,443.564,250.402,439.421,250.402z"/>
	<path style="fill:#495059;" d="M388.397,256.906c-7.324,0-14.288-3.171-19.107-8.7c-2.722-3.123-2.395-7.86,0.727-10.582
		c3.122-2.721,7.859-2.396,10.582,0.727c1.969,2.26,4.811,3.556,7.798,3.556c2.986,0,5.828-1.296,7.799-3.557
		c2.72-3.121,7.458-3.447,10.582-0.725c3.122,2.722,3.446,7.459,0.725,10.582C402.684,253.735,395.72,256.906,388.397,256.906z"/>
</g>
<path style="opacity:0.1;enable-background:new    ;" d="M457.198,342.765c-195.229,0.785-173.59-156.556-93.941-225.001
	c-56.208,11.984-98.462,63.347-98.462,124.896c0,70.438,55.339,118.998,123.603,118.998
	C413.864,361.658,437.53,354.897,457.198,342.765z"/>
<g>
</g>
<g>
</g>
<g>
</g>
<g>
</g>
<g>
</g>
<g>
</g>
<g>
</g>
<g>
</g>
<g>
</g>
<g>
</g>
<g>
</g>
<g>
</g>
<g>
</g>
<g>
</g>
<g>
</g>
</svg>
