<?xml version="1.0" encoding="iso-8859-1"?>
<!-- Generator: Adobe Illustrator 19.0.0, SVG Export Plug-In . SVG Version: 6.00 Build 0)  -->
<svg version="1.1" id="Capa_1" xmlns="http://www.w3.org/2000/svg" xmlns:xlink="http://www.w3.org/1999/xlink" x="0px" y="0px"
	 viewBox="0 0 512 512" style="enable-background:new 0 0 512 512;" xml:space="preserve">
<path style="fill:#B8DBFF;" d="M312.775,159.215V49.513H197.968v109.704c0,17.97-9.379,34.581-24.659,44.039
	c-44.652,27.639-74.334,77.158-74.076,133.591c0.396,86.396,71.809,156.512,158.198,155.396
	c85.285-1.102,154.081-70.58,154.081-156.127c0-56.263-29.759-105.575-74.395-133.056
	C321.927,193.709,312.775,177.053,312.775,159.215z"/>
<path style="fill:#609AD6;" d="M326.75,49.513H183.993c-9.723,0-17.605-7.882-17.605-17.605V17.605
	C166.387,7.882,174.269,0,183.993,0h142.758c9.723,0,17.605,7.882,17.605,17.605v14.303
	C344.356,41.631,336.474,49.513,326.75,49.513z"/>
<path style="opacity:0.1;enable-background:new    ;" d="M183.993,0c-9.723,0-17.605,7.882-17.605,17.605v14.303
	c0,9.723,7.882,17.605,17.605,17.605h71.024C239.154,39.73,235.127,13.202,238.784,0H183.993z"/>
<g>
	<path style="fill:#55A6B5;" d="M255.371,252.064c-42.691-10.339-89.014-11.193-126.797-7.051
		c-18.589,25.826-29.499,57.548-29.342,91.834c0.396,86.396,71.809,156.512,158.198,155.396
		c85.285-1.102,154.081-70.58,154.081-156.127c0-30.154-8.556-58.306-23.361-82.176
		C346.754,260.098,298.086,262.409,255.371,252.064z"/>
	<circle style="fill:#55A6B5;" cx="283.101" cy="202.01" r="16.453"/>
	<circle style="fill:#55A6B5;" cx="245.061" cy="117.53" r="24.338"/>
</g>
<g>
	<ellipse style="fill:#FFFFFF;" cx="185.821" cy="322.95" rx="25.662" ry="20.436"/>
	<ellipse style="fill:#FFFFFF;" cx="324.921" cy="322.95" rx="25.662" ry="20.436"/>
</g>
<g>
	<path style="fill:#495059;" d="M200.779,310.065c-4.142,0-7.5-3.357-7.5-7.5v-9.063c0-4.142,3.358-7.5,7.5-7.5s7.5,3.358,7.5,7.5
		v9.063C208.279,306.708,204.921,310.065,200.779,310.065z"/>
	<path style="fill:#495059;" d="M309.964,310.065c-4.142,0-7.5-3.357-7.5-7.5v-9.063c0-4.142,3.358-7.5,7.5-7.5s7.5,3.358,7.5,7.5
		v9.063C317.464,306.708,314.106,310.065,309.964,310.065z"/>
	<path style="fill:#495059;" d="M255.372,317.024c-7.684,0-14.991-3.328-20.047-9.13c-2.721-3.123-2.396-7.86,0.727-10.582
		c3.123-2.721,7.86-2.396,10.582,0.727c2.207,2.533,5.392,3.985,8.739,3.985c3.346,0,6.532-1.453,8.739-3.985
		c2.722-3.123,7.459-3.448,10.582-0.727c3.123,2.722,3.448,7.46,0.726,10.582C270.361,313.696,263.055,317.024,255.372,317.024z"/>
</g>
<path style="opacity:0.1;enable-background:new    ;" d="M367.826,444.423c-209.803,11.701-203.78-150.822-163.364-208.454
	c29.516-42.089,26.117-105.111,24.188-145.408c-0.545-11.386,8.545-20.91,19.944-20.91h64.181V49.513H197.968v109.704
	c0,17.97-9.379,34.581-24.66,44.039c-45.496,28.161-75.45,79.037-74.029,136.797c2.109,85.665,73.821,153.997,159.493,152.166
	C301.588,491.305,340.154,473.148,367.826,444.423z"/>
<g style="opacity:0.1;">
	<circle cx="142.751" cy="290.54" r="7.499"/>
	<circle cx="230.061" cy="391.13" r="7.499"/>
	<circle cx="292.061" cy="372.61" r="7.499"/>
	<circle cx="208.281" cy="453" r="7.499"/>
	<circle cx="355.751" cy="401.27" r="7.499"/>
	<circle cx="373.331" cy="327.75" r="7.499"/>
</g>
<path style="fill:#495059;" d="M48.015,480.093c-2.441,0-4.836-1.19-6.276-3.384c-2.274-3.463-1.31-8.112,2.152-10.386
	l108.302-71.124l169.595,59.548l138.92-67.715c3.721-1.815,8.213-0.268,10.028,3.456s0.268,8.213-3.456,10.028l-144.551,70.459
	L154.224,411.81L52.125,478.86C50.856,479.694,49.427,480.093,48.015,480.093z"/>
<g>
	<circle style="fill:#FDE27C;" cx="153.211" cy="403.5" r="39.41"/>
	<circle style="fill:#FDE27C;" cx="463.991" cy="393.77" r="39.41"/>
</g>
<g>
	<circle style="fill:#F7B96D;" cx="48.011" cy="472.59" r="39.41"/>
	<circle style="fill:#F7B96D;" cx="48.011" cy="472.59" r="39.41"/>
	<circle style="fill:#F7B96D;" cx="322.261" cy="462.86" r="39.41"/>
</g>
<path style="opacity:0.1;enable-background:new    ;" d="M48.008,512c14.142,0,26.538-7.453,33.49-18.642
	c-43.535,11.776-62.569-37.799-42.38-59.156c-17.481,4.033-30.519,19.683-30.519,38.389C8.599,494.356,26.243,512,48.008,512z"/>
<path style="opacity:0.1;enable-background:new    ;" d="M153.209,442.913c14.142,0,26.538-7.453,33.49-18.642
	c-43.535,11.776-62.569-37.799-42.38-59.156c-17.481,4.033-30.519,19.683-30.519,38.389
	C113.8,425.269,131.444,442.913,153.209,442.913z"/>
<path style="opacity:0.1;enable-background:new    ;" d="M322.259,502.27c14.142,0,26.538-7.453,33.49-18.642
	c-43.535,11.776-62.569-37.799-42.38-59.156c-17.481,4.033-30.519,19.683-30.519,38.389
	C282.85,484.626,300.494,502.27,322.259,502.27z"/>
<path style="opacity:0.1;enable-background:new    ;" d="M463.994,433.183c14.142,0,26.538-7.453,33.49-18.642
	c-43.535,11.776-62.569-37.799-42.38-59.156c-17.481,4.033-30.519,19.683-30.519,38.389
	C424.586,415.539,442.23,433.183,463.994,433.183z"/>
<g>
</g>
<g>
</g>
<g>
</g>
<g>
</g>
<g>
</g>
<g>
</g>
<g>
</g>
<g>
</g>
<g>
</g>
<g>
</g>
<g>
</g>
<g>
</g>
<g>
</g>
<g>
</g>
<g>
</g>
</svg>
