<?xml version="1.0" encoding="iso-8859-1"?>
<!-- Generator: Adobe Illustrator 19.0.0, SVG Export Plug-In . SVG Version: 6.00 Build 0)  -->
<svg version="1.1" id="Capa_1" xmlns="http://www.w3.org/2000/svg" xmlns:xlink="http://www.w3.org/1999/xlink" x="0px" y="0px"
	 viewBox="0 0 512.001 512.001" style="enable-background:new 0 0 512.001 512.001;" xml:space="preserve">
<path style="fill:#B8DBFF;" d="M150.392,237.189l51.992-51.992l196.67,196.67c4.085,4.085,4.085,10.708,0,14.794l0,0
	c-24.63,24.629-64.562,24.629-89.191,0L150.392,237.189z"/>
<path style="opacity:0.1;enable-background:new    ;" d="M294.31,277.123l-91.926-91.926l-51.992,51.992l131.25,131.251
	C275.895,336.935,285.787,299.621,294.31,277.123z"/>
<path style="fill:#EC7887;" d="M391.512,507.751c-2.046,5.435-9.626,5.727-12.082,0.464c-13.776-29.525-21.539-69.488-25.751-99.764
	c-6.803-48.903-8.942-103.337-6.189-157.419c1.236-24.289,2.773-47.358,4.26-69.669c3.946-59.226,7.699-115.559,1.259-147.722
	c-1.38-6.895,2.419-13.769,9.009-16.219L406.45,0.901c8.009-2.978,16.795,1.703,18.848,9.997
	c10.664,43.08,6.708,102.458,1.843,175.488c-1.467,22.02-2.984,44.789-4.191,68.489c-2.479,48.694-0.503,99.538,5.566,143.166
	c5.246,37.716,11.944,59.972,16.804,72.228c1.86,4.691-2.445,9.49-7.318,8.18l-25.582-6.876c-3.756-1.01-7.665,0.996-9.036,4.637
	L391.512,507.751z"/>
<path style="opacity:0.1;enable-background:new    ;" d="M445.32,470.269c-2.666-6.723-5.885-16.464-9.115-30.107
	c-64.802-24.645-84.902-222.655-82.445-289.673l0,0c-0.628,10.126-1.315,20.453-2.009,30.875
	c-1.487,22.311-3.024,45.379-4.26,69.669c-2.754,54.082-0.614,108.516,6.189,157.419c4.212,30.276,11.975,70.239,25.751,99.764
	c2.456,5.263,10.036,4.972,12.081-0.464l11.873-31.542c1.37-3.64,5.279-5.646,9.036-4.637l25.582,6.876
	C442.876,479.759,447.181,474.96,445.32,470.269z"/>
<path style="fill:#5B6EA2;" d="M174.974,240.334l39.754-39.754c5.92-5.92,5.92-15.518,0-21.438l-11.394-11.393
	c-3.553-3.553-4.432-8.953-2.263-13.485c12.815-26.781,7.861-59.936-14.893-81.768c-27.354-26.245-71.139-26.132-98.363,0.247
	C59.319,100.355,59.047,145.845,87,173.798l66.537,66.537C159.457,246.254,169.055,246.254,174.974,240.334z M118.164,104.71
	c10.473-10.472,27.452-10.472,37.924,0s10.473,27.452,0,37.924c-10.472,10.472-27.452,10.472-37.924,0
	C107.691,132.162,107.691,115.182,118.164,104.71z"/>
<path style="fill:#B8DBFF;" d="M150.392,301.615l51.992,51.992l196.67-196.67c4.085-4.085,4.085-10.708,0-14.794l0,0
	c-24.63-24.629-64.562-24.629-89.191,0L150.392,301.615z"/>
<g>
	<path style="fill:#5B6EA2;" d="M153.537,298.47L87,365.007c-27.953,27.953-27.681,73.443,0.816,101.055
		c27.225,26.379,71.009,26.493,98.363,0.247c22.754-21.832,27.708-54.987,14.893-81.768c-2.169-4.533-1.29-9.932,2.263-13.485
		l11.394-11.393c5.92-5.92,5.92-15.518,0-21.438l-39.754-39.754C169.055,292.55,159.457,292.55,153.537,298.47z M118.164,396.17
		c10.472-10.473,27.452-10.473,37.924,0c10.473,10.473,10.472,27.452,0,37.924s-27.452,10.473-37.924,0
		C107.691,423.622,107.691,406.643,118.164,396.17z"/>
	<circle style="fill:#5B6EA2;" cx="234.6" cy="269.4" r="15.6"/>
</g>
<g>
</g>
<g>
</g>
<g>
</g>
<g>
</g>
<g>
</g>
<g>
</g>
<g>
</g>
<g>
</g>
<g>
</g>
<g>
</g>
<g>
</g>
<g>
</g>
<g>
</g>
<g>
</g>
<g>
</g>
</svg>
