<?xml version="1.0" encoding="iso-8859-1"?>
<!-- Generator: Adobe Illustrator 19.0.0, SVG Export Plug-In . SVG Version: 6.00 Build 0)  -->
<svg version="1.1" id="Capa_1" xmlns="http://www.w3.org/2000/svg" xmlns:xlink="http://www.w3.org/1999/xlink" x="0px" y="0px"
	 viewBox="0 0 512 512" style="enable-background:new 0 0 512 512;" xml:space="preserve">
<path style="fill:#86DBD5;" d="M460.098,216.192c-16.815,29.124-48.057,40.01-68.027,44.066
	c-11.016,2.238-22.031-4.122-25.601-14.781c-6.473-19.323-12.666-51.822,4.149-80.947c19.643-34.022,62.018-48.43,81.559-53.441
	c5.838-1.497,11.8,1.945,13.423,7.75C471.03,138.268,479.74,182.17,460.098,216.192z"/>
<path style="opacity:0.1;enable-background:new    ;" d="M399.603,225.14c-1.272,0-2.562-0.324-3.743-1.006
	c-3.587-2.071-4.816-6.658-2.745-10.245l34.973-60.574c2.07-3.588,6.656-4.816,10.245-2.745c3.587,2.071,4.816,6.658,2.745,10.245
	l-34.973,60.574C404.716,223.795,402.194,225.14,399.603,225.14z"/>
<path style="fill:#86DBD5;" d="M164.904,127.51c23.78,23.78,56.775,26.209,77.115,24.958c11.22-0.69,20.213-9.683,20.903-20.903
	c1.251-20.34-1.178-53.335-24.958-77.115c-27.779-27.779-72.44-30.729-92.611-30.511c-6.026,0.065-10.895,4.933-10.96,10.96
	C134.176,55.07,137.125,99.731,164.904,127.51z"/>
<path style="opacity:0.1;enable-background:new    ;" d="M223.706,120.752c-1.92,0-3.839-0.732-5.304-2.196l-49.459-49.46
	c-2.929-2.93-2.929-7.678,0-10.607c2.931-2.929,7.679-2.927,10.607,0l49.459,49.46c2.929,2.93,2.929,7.678,0,10.608
	C227.545,120.02,225.625,120.752,223.706,120.752z"/>
<path style="fill:#86DBD5;" d="M57.055,230.072c23.78-23.78,56.775-26.209,77.115-24.958c11.22,0.69,20.213,9.683,20.903,20.903
	c1.251,20.34-1.178,53.335-24.958,77.115c-27.779,27.779-72.44,30.729-92.611,30.511c-6.026-0.065-10.895-4.933-10.96-10.96
	C26.326,302.512,29.276,257.851,57.055,230.072z"/>
<path style="opacity:0.1;enable-background:new    ;" d="M66.397,301.289c-1.92,0-3.839-0.732-5.304-2.196
	c-2.929-2.93-2.929-7.678,0-10.607l49.46-49.459c2.931-2.929,7.679-2.927,10.607,0c2.929,2.93,2.929,7.678,0,10.607L71.7,299.093
	C70.236,300.557,68.316,301.289,66.397,301.289z"/>
<path style="fill:#55A6B5;" d="M401.387,232.18c-45.014,0.215-85.891,18.244-115.943,47.379c-0.816,0.792-2.178,0.227-2.178-0.91
	V128.892c0-13.717-11.226-25.273-24.94-25.012c-13.294,0.253-23.992,11.107-23.992,24.461v92.977c0,1.001-1.198,1.498-1.915,0.799
	c-30.076-29.285-71.06-47.417-116.206-47.632c-13.556-0.065-25.058,10.507-25.276,24.062c-0.22,13.697,10.816,24.868,24.463,24.868
	c65.58,0,118.934,53.354,118.934,118.934v90.153h48.932v-32.458c0-65.58,53.354-118.934,118.934-118.934
	c13.646,0,24.683-11.172,24.463-24.868C426.446,242.688,414.943,232.116,401.387,232.18z"/>
<path style="opacity:0.1;enable-background:new    ;" d="M234.335,432.503h48.932v-32.458c0-9.861,1.214-19.442,3.487-28.609
	c-13.647,1.643-25.875,7.886-35.08,17.15c-1.91,1.922-4.85,2.34-7.263,1.105c-3.184-1.629-6.561-2.926-10.076-3.893L234.335,432.503
	L234.335,432.503z"/>
<path style="opacity:0.1;enable-background:new    ;" d="M402.201,232.178c-14.817,0-29.188,1.938-42.881,5.561
	c-0.174,2.245-0.29,4.506-0.29,6.794c0,14.886,3.751,28.908,10.344,41.187c10.431-3,21.444-4.61,32.827-4.61
	c13.513,0,24.466-10.953,24.466-24.466S415.713,232.178,402.201,232.178z"/>
<path style="opacity:0.1;enable-background:new    ;" d="M90.935,198.95c0,13.513,10.953,24.466,24.466,24.466
	c10.673,0,21.02,1.422,30.868,4.071c4.311-10.332,6.703-21.657,6.703-33.533c0-5.303-0.501-10.489-1.411-15.534
	c-11.651-2.569-23.748-3.936-36.16-3.936C101.888,174.484,90.935,185.437,90.935,198.95z"/>
<path style="opacity:0.1;enable-background:new    ;" d="M283.267,128.341c0-13.513-10.953-24.466-24.466-24.466
	s-24.466,10.953-24.466,24.466v21.118c7.769,2.271,15.973,3.512,24.466,3.512s16.697-1.241,24.466-3.512V128.341z"/>
<circle style="fill:#5B6EA2;" cx="446.39" cy="244.53" r="65.61"/>
<g>
	<path style="fill:#B8DBFF;" d="M451.397,274.048h-21.024c-4.143,0-7.5-3.358-7.5-7.5c0-4.143,3.357-7.5,7.5-7.5h21.024
		c1.935,0,3.508-1.573,3.508-3.507c0-1.935-1.573-3.508-3.508-3.508H441.38c-10.205,0-18.508-8.303-18.508-18.508
		s8.303-18.507,18.508-18.507h21.024c4.143,0,7.5,3.357,7.5,7.5s-3.357,7.5-7.5,7.5H441.38c-1.935,0-3.508,1.573-3.508,3.507
		c0,1.935,1.573,3.508,3.508,3.508h10.017c10.205,0,18.508,8.303,18.508,18.508S461.602,274.048,451.397,274.048z"/>
	<path style="fill:#B8DBFF;" d="M446.389,230.019c-4.143,0-7.5-3.357-7.5-7.5v-13.792c0-4.143,3.357-7.5,7.5-7.5s7.5,3.357,7.5,7.5
		v13.792C453.889,226.661,450.531,230.019,446.389,230.019z"/>
	<path style="fill:#B8DBFF;" d="M446.389,287.84c-4.143,0-7.5-3.357-7.5-7.5v-13.792c0-4.143,3.357-7.5,7.5-7.5s7.5,3.357,7.5,7.5
		v13.792C453.889,284.482,450.531,287.84,446.389,287.84z"/>
</g>
<path style="opacity:0.1;enable-background:new    ;" d="M494.412,289.233c-92.343,6.077-92.617-83.097-54.524-109.991
	c-33.185,3.264-59.112,31.249-59.112,65.292c0,36.236,29.375,65.612,65.612,65.612C465.352,310.145,482.433,302.096,494.412,289.233
	z"/>
<circle style="fill:#5B6EA2;" cx="258.8" cy="65.61" r="65.61"/>
<g>
	<path style="fill:#B8DBFF;" d="M263.809,95.127h-21.023c-4.143,0-7.5-3.357-7.5-7.5s3.357-7.5,7.5-7.5h21.023
		c1.935,0,3.508-1.573,3.508-3.508c0-1.935-1.573-3.508-3.508-3.508h-10.017c-10.205,0-18.507-8.302-18.507-18.507
		s8.302-18.508,18.507-18.508h21.024c4.143,0,7.5,3.357,7.5,7.5s-3.357,7.5-7.5,7.5h-21.024c-1.934,0-3.507,1.573-3.507,3.508
		c0,1.934,1.573,3.507,3.507,3.507h10.017c10.205,0,18.508,8.303,18.508,18.508C282.316,86.824,274.014,95.127,263.809,95.127z"/>
	<path style="fill:#B8DBFF;" d="M258.801,51.097c-4.143,0-7.5-3.357-7.5-7.5V29.805c0-4.143,3.357-7.5,7.5-7.5s7.5,3.357,7.5,7.5
		v13.792C266.301,47.739,262.943,51.097,258.801,51.097z"/>
	<path style="fill:#B8DBFF;" d="M258.801,108.919c-4.143,0-7.5-3.357-7.5-7.5V87.627c0-4.143,3.357-7.5,7.5-7.5s7.5,3.357,7.5,7.5
		v13.792C266.301,105.562,262.943,108.919,258.801,108.919z"/>
</g>
<path style="opacity:0.1;enable-background:new    ;" d="M306.824,110.311C214.481,116.388,214.207,27.214,252.3,0.32
	c-33.185,3.264-59.112,31.249-59.112,65.292c0,36.236,29.375,65.612,65.612,65.612C277.764,131.224,294.846,123.175,306.824,110.311
	z"/>
<circle style="fill:#5B6EA2;" cx="65.61" cy="193.95" r="65.61"/>
<g>
	<path style="fill:#B8DBFF;" d="M70.62,223.468H49.596c-4.143,0-7.5-3.357-7.5-7.5s3.357-7.5,7.5-7.5H70.62
		c1.935,0,3.508-1.573,3.508-3.507c0-1.935-1.573-3.508-3.508-3.508H60.604c-10.205,0-18.508-8.302-18.508-18.507
		s8.303-18.508,18.508-18.508h21.024c4.143,0,7.5,3.357,7.5,7.5s-3.357,7.5-7.5,7.5H60.604c-1.935,0-3.508,1.573-3.508,3.508
		c0,1.934,1.573,3.507,3.508,3.507H70.62c10.205,0,18.508,8.303,18.508,18.508C89.128,215.166,80.825,223.468,70.62,223.468z"/>
	<path style="fill:#B8DBFF;" d="M65.611,179.439c-4.142,0-7.5-3.357-7.5-7.5v-13.792c0-4.143,3.357-7.5,7.5-7.5s7.5,3.357,7.5,7.5
		v13.792C73.111,176.081,69.754,179.439,65.611,179.439z"/>
	<path style="fill:#B8DBFF;" d="M65.611,237.261c-4.142,0-7.5-3.357-7.5-7.5v-13.793c0-4.143,3.357-7.5,7.5-7.5s7.5,3.357,7.5,7.5
		v13.793C73.111,233.903,69.754,237.261,65.611,237.261z"/>
</g>
<path style="opacity:0.1;enable-background:new    ;" d="M113.636,238.653c-92.343,6.077-92.617-83.097-54.524-109.991
	C25.927,131.926,0,159.911,0,193.953c0,36.236,29.375,65.612,65.612,65.612C84.576,259.565,101.657,251.516,113.636,238.653z"/>
<path style="fill:#C58F85;" d="M447.771,481.895L447.771,481.895c-7.94-24.791-30.988-41.612-57.02-41.612h-29.149
	c-5.811,0-11.133-3.336-13.577-8.608c-9.459-20.407-30.114-34.565-54.086-34.565c-16.525,0-31.471,6.733-42.266,17.597
	c-1.91,1.922-4.851,2.34-7.263,1.105c-7.248-3.709-15.456-5.808-24.158-5.808c-18.49,0-34.773,9.442-44.295,23.767
	c-2.739,4.12-7.432,6.512-12.379,6.512h-37.157c-26.031,0-49.08,16.82-57.02,41.612l0,0C64.634,496.782,75.74,512,91.371,512h334.43
	C441.432,512,452.538,496.782,447.771,481.895z"/>
<path style="opacity:0.1;enable-background:new    ;" d="M261.737,512c-17.582-8.665-30.487-24.378-34.682-36.601
	c-1.436-4.185-4.902-7.277-9.146-8.527c-22.694-6.686-25.157-36.752-17.758-52.919c-9.796,4.007-18.136,10.843-23.984,19.506
	c-2.838,4.204-7.487,6.824-12.559,6.824h-37.187c-26.031,0-49.08,16.82-57.02,41.612l0,0C64.634,496.782,75.74,512,91.371,512
	H261.737z"/>
<g style="opacity:0.1;">
	<circle cx="134.38" cy="476.81" r="7.48"/>
	<circle cx="234.34" cy="450.84" r="7.48"/>
	<circle cx="292.21" cy="484.29" r="7.48"/>
	<circle cx="384.01" cy="476.81" r="7.48"/>
</g>
<g>
</g>
<g>
</g>
<g>
</g>
<g>
</g>
<g>
</g>
<g>
</g>
<g>
</g>
<g>
</g>
<g>
</g>
<g>
</g>
<g>
</g>
<g>
</g>
<g>
</g>
<g>
</g>
<g>
</g>
</svg>
