<?xml version="1.0" encoding="iso-8859-1"?>
<!-- Generator: Adobe Illustrator 19.0.0, SVG Export Plug-In . SVG Version: 6.00 Build 0)  -->
<svg version="1.1" id="Capa_1" xmlns="http://www.w3.org/2000/svg" xmlns:xlink="http://www.w3.org/1999/xlink" x="0px" y="0px"
	 viewBox="0 0 512 512" style="enable-background:new 0 0 512 512;" xml:space="preserve">
<rect x="91.35" y="376.82" style="fill:#5B6EA2;" width="329.3" height="40.78"/>
<path style="fill:#FDE27C;" d="M492.227,293.672H19.773C8.853,293.672,0,284.82,0,273.9v-70.562c0-10.92,8.853-19.773,19.773-19.773
	h472.454c10.92,0,19.773,8.853,19.773,19.773V273.9C512,284.82,503.147,293.672,492.227,293.672z"/>
<g>
	<polygon style="fill:#495059;" points="20.627,293.672 104.706,293.672 214.814,183.565 130.734,183.565 	"/>
	<polygon style="fill:#495059;" points="297.157,293.672 381.237,293.672 491.344,183.565 407.265,183.565 	"/>
</g>
<g>
	<ellipse style="fill:#EC7887;" cx="201.48" cy="246.68" rx="20.12" ry="16.02"/>
	<ellipse style="fill:#EC7887;" cx="310.52" cy="246.68" rx="20.12" ry="16.02"/>
</g>
<g>
	<path style="fill:#495059;" d="M213.202,238.198c-4.143,0-7.5-3.357-7.5-7.5v-7.104c0-4.143,3.357-7.5,7.5-7.5s7.5,3.357,7.5,7.5
		v7.104C220.702,234.841,217.345,238.198,213.202,238.198z"/>
	<path style="fill:#495059;" d="M298.798,238.198c-4.143,0-7.5-3.357-7.5-7.5v-7.104c0-4.143,3.357-7.5,7.5-7.5
		c4.142,0,7.5,3.357,7.5,7.5v7.104C306.298,234.841,302.94,238.198,298.798,238.198z"/>
	<path style="fill:#495059;" d="M256,243.654c-6.493,0-12.667-2.812-16.938-7.714c-2.722-3.123-2.395-7.86,0.727-10.581
		c3.122-2.722,7.86-2.396,10.581,0.728c1.422,1.632,3.474,2.567,5.629,2.567s4.207-0.936,5.629-2.567
		c2.721-3.124,7.458-3.449,10.581-0.728c3.123,2.721,3.449,7.458,0.728,10.581C268.667,240.843,262.493,243.654,256,243.654z"/>
</g>
<path style="fill:#5B6EA2;" d="M156.69,148.113H65.093c-7.229,0-13.089,5.86-13.089,13.089v22.362h119.174V162.6
	C171.178,154.6,164.692,148.113,156.69,148.113z"/>
<path style="fill:#F7B96D;" d="M151.244,148.113H71.938v-49.41c0-11.791,9.559-21.35,21.35-21.35h36.606
	c11.791,0,21.35,9.559,21.35,21.35V148.113z"/>
<circle style="fill:#FFFFFF;" cx="122.23" cy="112.73" r="16.503"/>
<path style="fill:#5B6EA2;" d="M355.31,148.113h91.597c7.229,0,13.089,5.86,13.089,13.089v22.362H340.822V162.6
	C340.822,154.6,347.308,148.113,355.31,148.113z"/>
<path style="fill:#F7B96D;" d="M360.756,148.113h79.307v-49.41c0-11.791-9.559-21.35-21.35-21.35h-36.606
	c-11.791,0-21.35,9.559-21.35,21.35v49.41H360.756z"/>
<circle style="fill:#FFFFFF;" cx="400.41" cy="112.73" r="16.503"/>
<g>
	<path style="fill:#609AD6;" d="M145.79,293.672H91.393L44.632,476.528c-1.362,5.327,2.662,10.509,8.16,10.509h33.381
		c5.983,0,11.205-4.055,12.687-9.851L145.79,293.672z"/>
	<path style="fill:#609AD6;" d="M366.211,293.672h54.397l46.761,182.855c1.362,5.327-2.662,10.509-8.16,10.509h-33.381
		c-5.983,0-11.205-4.055-12.687-9.851L366.211,293.672z"/>
</g>
<g>
	<path style="fill:#F7B96D;" d="M111.591,57.664c-4.143,0-7.5-3.358-7.5-7.5V32.463c0-4.143,3.357-7.5,7.5-7.5s7.5,3.357,7.5,7.5
		v17.701C119.091,54.306,115.733,57.664,111.591,57.664z"/>
	<path style="fill:#F7B96D;" d="M67.349,75.99c-1.919,0-3.839-0.732-5.303-2.196L49.528,61.277c-2.93-2.929-2.93-7.678-0.001-10.606
		c2.93-2.93,7.679-2.929,10.606-0.001l12.518,12.517c2.93,2.929,2.93,7.678,0.001,10.606C71.188,75.258,69.268,75.99,67.349,75.99z"
		/>
	<path style="fill:#F7B96D;" d="M155.834,75.99c-1.919,0-3.839-0.732-5.304-2.196c-2.929-2.93-2.929-7.678,0-10.607l12.517-12.517
		c2.93-2.928,7.678-2.928,10.607,0c2.929,2.93,2.929,7.678,0,10.607l-12.517,12.517C159.673,75.258,157.753,75.99,155.834,75.99z"/>
	<path style="fill:#F7B96D;" d="M400.409,57.664c-4.143,0-7.5-3.358-7.5-7.5V32.463c0-4.143,3.357-7.5,7.5-7.5s7.5,3.357,7.5,7.5
		v17.701C407.909,54.306,404.552,57.664,400.409,57.664z"/>
	<path style="fill:#F7B96D;" d="M356.166,75.99c-1.919,0-3.839-0.732-5.304-2.196l-12.517-12.517c-2.929-2.93-2.929-7.678,0-10.607
		c2.93-2.928,7.678-2.928,10.607,0l12.517,12.517c2.929,2.93,2.929,7.678,0,10.607C360.005,75.258,358.085,75.99,356.166,75.99z"/>
	<path style="fill:#F7B96D;" d="M444.651,75.99c-1.92,0-3.839-0.732-5.304-2.197c-2.929-2.929-2.929-7.678,0.001-10.606
		l12.518-12.517c2.929-2.929,7.678-2.928,10.606,0.001c2.929,2.929,2.929,7.678-0.001,10.606l-12.518,12.517
		C448.49,75.258,446.57,75.99,444.651,75.99z"/>
</g>
<polygon style="opacity:0.1;enable-background:new    ;" points="420.607,293.672 366.211,293.672 375.547,330.183 429.944,330.183 
	"/>
<polygon style="opacity:0.1;enable-background:new    ;" points="82.056,330.183 136.453,330.183 145.789,293.672 91.393,293.672 
	"/>
<path style="opacity:0.1;enable-background:new    ;" d="M19.773,183.565C8.853,183.565,0,192.417,0,203.338V273.9
	c0,10.92,8.852,19.773,19.773,19.773h243.118c-64.709-24.121-90.575-77.126-80.241-110.107H19.773V183.565z"/>
<path style="opacity:0.05;enable-background:new    ;" d="M100.063,77.352h-6.775c-11.792,0-21.35,9.559-21.35,21.35v49.411h42.676
	C98.262,129.317,99.191,95.114,100.063,77.352z"/>
<path style="opacity:0.1;enable-background:new    ;" d="M98.091,148.113H65.093c-7.229,0-13.089,5.86-13.089,13.089v22.362h61.564
	C100.497,174.8,97.389,156.357,98.091,148.113z"/>
<path style="opacity:0.05;enable-background:new    ;" d="M388.881,77.352h-6.775c-11.792,0-21.35,9.559-21.35,21.35v49.411h42.676
	C387.08,129.317,388.009,95.114,388.881,77.352z"/>
<path style="opacity:0.1;enable-background:new    ;" d="M386.909,148.113h-32.998c-7.229,0-13.089,5.86-13.089,13.089v22.362
	h61.564C389.315,174.8,386.207,156.357,386.909,148.113z"/>
<g>
</g>
<g>
</g>
<g>
</g>
<g>
</g>
<g>
</g>
<g>
</g>
<g>
</g>
<g>
</g>
<g>
</g>
<g>
</g>
<g>
</g>
<g>
</g>
<g>
</g>
<g>
</g>
<g>
</g>
</svg>
