<?xml version="1.0" encoding="iso-8859-1"?>
<!-- Generator: Adobe Illustrator 19.0.0, SVG Export Plug-In . SVG Version: 6.00 Build 0)  -->
<svg version="1.1" id="Capa_1" xmlns="http://www.w3.org/2000/svg" xmlns:xlink="http://www.w3.org/1999/xlink" x="0px" y="0px"
	 viewBox="0 0 512 512" style="enable-background:new 0 0 512 512;" xml:space="preserve">
<path style="fill:#EEF0F1;" d="M315.811,512H27.051c-14.505,0-26.264-11.759-26.264-26.264V26.264C0.787,11.759,12.546,0,27.051,0
	h349.807c14.505,0,26.264,11.759,26.264,26.264V424.69L315.811,512z"/>
<path style="fill:#609AD6;" d="M341.728,424.343h20.497c15.251,0,29.909-5.909,40.896-16.486l0,0v16.832
	c0,48.22-39.09,87.31-87.31,87.31h-16.832l0,0c10.577-10.987,16.486-25.645,16.486-40.896v-20.497
	C315.465,436.102,327.223,424.343,341.728,424.343z"/>
<g>
	<path style="fill:#495059;" d="M210.597,96.28H62.888c-4.142,0-7.5-3.357-7.5-7.5s3.358-7.5,7.5-7.5h147.709
		c4.142,0,7.5,3.357,7.5,7.5S214.739,96.28,210.597,96.28z"/>
	<path style="fill:#495059;" d="M341.021,155.401H62.888c-4.142,0-7.5-3.357-7.5-7.5s3.358-7.5,7.5-7.5h278.134
		c4.143,0,7.5,3.357,7.5,7.5C348.521,152.044,345.164,155.401,341.021,155.401z"/>
	<path style="fill:#495059;" d="M341.021,214.523H62.888c-4.142,0-7.5-3.358-7.5-7.5c0-4.143,3.358-7.5,7.5-7.5h278.134
		c4.143,0,7.5,3.357,7.5,7.5C348.521,211.165,345.164,214.523,341.021,214.523z"/>
	<path style="fill:#495059;" d="M341.021,273.643H62.888c-4.142,0-7.5-3.357-7.5-7.5s3.358-7.5,7.5-7.5h278.134
		c4.143,0,7.5,3.357,7.5,7.5C348.521,270.285,345.164,273.643,341.021,273.643z"/>
</g>
<path style="fill:#B8DBFF;" d="M509.021,179.384l-32.437-32.437c-2.922-2.922-7.659-2.922-10.581,0l-17.326,17.326l43.018,43.018
	l17.326-17.326C511.943,187.044,511.943,182.306,509.021,179.384z"/>
<rect x="444.441" y="174.483" transform="matrix(-0.7071 -0.7071 0.7071 -0.7071 682.5787 644.9332)" style="opacity:0.1;enable-background:new    ;" width="60.836" height="13.233"/>
<path style="fill:#5B6EA2;" d="M254.923,343.885l57.161,57.161c3.137,3.137,8.223,3.137,11.36,0l175.323-175.323
	c3.137-3.137,3.137-8.223,0-11.359l-57.161-57.161c-3.137-3.137-8.223-3.137-11.36,0L254.923,332.526
	C251.786,335.662,251.786,340.748,254.923,343.885z"/>
<path style="fill:#495059;" d="M224.218,439.251c-1.919,0-3.839-0.732-5.303-2.196c-2.929-2.93-2.929-7.678,0-10.607l18.827-18.827
	c2.929-2.928,7.678-2.928,10.606,0c2.929,2.93,2.929,7.678,0,10.607l-18.827,18.827
	C228.057,438.519,226.137,439.251,224.218,439.251z"/>
<path style="fill:#B8DBFF;" d="M259.02,347.983c-18.265,18.265-40.509,56.227-23.885,72.851s54.585-5.62,72.851-23.885
	L259.02,347.983z"/>
<path style="opacity:0.1;enable-background:new    ;" d="M259.02,347.983c-18.265,18.265-40.508,56.227-23.885,72.851
	c4.22,4.22,9.816,5.931,16.114,5.843c-9.127-17.467-1.076-37.546,6.855-48.808c2.256-3.204,6.832-3.636,9.603-0.865l29.422,29.421
	c4.056-3.133,7.743-6.362,10.857-9.476L259.02,347.983z"/>
<path style="fill:#F7B96D;" d="M324.434,271.709l19.171,19.171c2.401,2.401,6.294,2.401,8.695,0l77.457-77.457l-27.866-27.866
	l-77.457,77.457C322.033,265.415,322.033,269.308,324.434,271.709z"/>
<path style="opacity:0.1;enable-background:new    ;" d="M343.769,243.679l-88.846,88.846c-3.137,3.137-3.137,8.223,0,11.36
	l57.161,57.161c3.137,3.137,8.223,3.137,11.359,0l30.031-30.031C322.292,354.238,328.276,282.499,343.769,243.679z"/>
<rect x="387.698" y="212.316" transform="matrix(-0.7071 -0.7071 0.7071 -0.7071 589.1161 683.6526)" style="fill:#B8DBFF;" width="96.899" height="15"/>
<path style="fill:#495059;" d="M167.959,450.679H84.47c-4.142,0-7.5-3.357-7.5-7.5s3.358-7.5,7.5-7.5h83.49
	c4.142,0,7.5,3.357,7.5,7.5C175.459,447.321,172.102,450.679,167.959,450.679z"/>
<path style="fill:#5B6EA2;" d="M131.312,411.962c-2.683,0-5.073-0.653-7.22-2.06c-4.737-3.104-6.519-8.771-5.293-16.844
	c0.222-1.464,0.059-2.123,0.004-2.289c-1.063-0.816-6.532-1.469-16.54,1.744c-8.603,2.762-17.822,7.546-22.421,11.634
	c-3.097,2.751-7.837,2.474-10.588-0.623c-2.752-3.096-2.473-7.836,0.622-10.588c10.983-9.762,41.337-23.355,55.993-15.398
	c6.14,3.333,8.968,9.811,7.759,17.772c-0.076,0.501-0.128,0.938-0.161,1.316c6.664-1.866,21.878-11.432,32.361-18.023
	c3.153-1.982,6.387-4.016,9.671-6.049c3.522-2.18,8.145-1.092,10.325,2.429c2.18,3.522,1.093,8.145-2.429,10.325
	c-3.254,2.015-6.46,4.029-9.584,5.994C154.368,403.528,140.952,411.962,131.312,411.962z"/>
<path style="opacity:0.1;enable-background:new    ;" d="M27.051,512h260.36C86.815,470.467,107.113,123.802,108.218,0H27.051
	C12.546,0,0.787,11.759,0.787,26.264v459.473C0.787,500.241,12.546,512,27.051,512z"/>
<g>
</g>
<g>
</g>
<g>
</g>
<g>
</g>
<g>
</g>
<g>
</g>
<g>
</g>
<g>
</g>
<g>
</g>
<g>
</g>
<g>
</g>
<g>
</g>
<g>
</g>
<g>
</g>
<g>
</g>
</svg>
