<?xml version="1.0" encoding="iso-8859-1"?>
<!-- Generator: Adobe Illustrator 19.0.0, SVG Export Plug-In . SVG Version: 6.00 Build 0)  -->
<svg version="1.1" id="Capa_1" xmlns="http://www.w3.org/2000/svg" xmlns:xlink="http://www.w3.org/1999/xlink" x="0px" y="0px"
	 viewBox="0 0 512 512" style="enable-background:new 0 0 512 512;" xml:space="preserve">
<path style="fill:#5B6EA2;" d="M360.181,185.509l-28.094-86.467c-2.327-7.161-10.018-11.08-17.179-8.753l-39.035,12.683
	c-3.625,1.178-7.612,0.363-10.456-2.173c-6.335-5.648-13.237-10.671-20.609-14.98c-3.288-1.921-5.29-5.461-5.29-9.269V35.515
	c0-7.529-6.104-13.633-13.633-13.633h-90.917c-7.529,0-13.633,6.104-13.633,13.633v41.057c0,3.807-2.001,7.345-5.288,9.267
	c-7.363,4.306-14.256,9.325-20.584,14.967c-2.845,2.537-6.832,3.352-10.458,2.174l-39.06-12.691
	c-7.161-2.327-14.852,1.592-17.178,8.753L0.671,185.508c-2.327,7.161,1.592,14.852,8.753,17.178l39.025,12.68
	c3.626,1.178,6.377,4.182,7.183,7.908c1.821,8.416,4.469,16.522,7.859,24.23c1.536,3.492,1.081,7.538-1.161,10.624l-24.11,33.185
	c-4.426,6.091-3.075,14.617,3.016,19.042l73.554,53.441c6.091,4.426,14.617,3.075,19.043-3.016l24.094-33.163
	c2.242-3.085,5.947-4.769,9.742-4.388c4.202,0.422,8.463,0.642,12.776,0.642c4.302,0,8.552-0.22,12.743-0.64
	c3.794-0.38,7.499,1.303,9.74,4.388l24.092,33.16c4.426,6.091,12.951,7.442,19.043,3.016l73.554-53.441
	c6.091-4.426,7.441-12.951,3.016-19.042l-24.088-33.154c-2.243-3.087-2.697-7.134-1.16-10.626
	c3.398-7.721,6.052-15.841,7.875-24.272c0.806-3.727,3.557-6.73,7.184-7.908l38.984-12.667
	C358.589,200.36,362.508,192.669,360.181,185.509z M180.445,245.862c-27.462,0-49.724-22.262-49.724-49.724
	s22.262-49.724,49.724-49.724s49.724,22.262,49.724,49.724S207.906,245.862,180.445,245.862z"/>
<path style="fill:#86DBD5;" d="M180.445,258.114c-34.173,0-61.976-27.802-61.976-61.976s27.802-61.976,61.976-61.976
	s61.976,27.802,61.976,61.976S214.618,258.114,180.445,258.114z M180.445,158.667c-20.662,0-37.472,16.81-37.472,37.472
	s16.809,37.472,37.472,37.472s37.472-16.809,37.472-37.472S201.107,158.667,180.445,158.667z"/>
<path style="opacity:0.1;enable-background:new    ;" d="M167.669,323.23c4.202,0.422,8.463,0.642,12.776,0.642
	c4.302,0,8.552-0.22,12.743-0.639c3.794-0.38,7.499,1.303,9.74,4.388l24.092,33.16c4.426,6.091,12.951,7.442,19.043,3.016
	l37.006-26.886c-60.724-24.612-95.947-63.288-115.714-105.664c-14.225-5.321-24.381-19.049-24.381-35.108
	c0-7.853,2.433-15.146,6.577-21.174c-11.981-63.212-0.673-124.751,3.365-153.083h-17.948c-7.529,0-13.633,6.104-13.633,13.633
	v41.057c0,3.807-2.001,7.345-5.288,9.268c-7.363,4.306-14.256,9.325-20.583,14.967c-2.845,2.537-6.832,3.352-10.458,2.174
	L45.945,90.289c-7.161-2.327-14.852,1.592-17.178,8.753L0.671,185.508c-2.327,7.161,1.592,14.852,8.753,17.178l39.025,12.68
	c3.626,1.178,6.377,4.182,7.183,7.908c1.821,8.416,4.469,16.522,7.859,24.23c1.536,3.492,1.081,7.538-1.161,10.624l-24.11,33.185
	c-4.426,6.091-3.075,14.617,3.016,19.042l73.554,53.441c6.091,4.426,14.617,3.075,19.043-3.016l24.094-33.163
	C160.169,324.533,163.874,322.849,167.669,323.23z"/>
<path style="fill:#F7B96D;" d="M502.259,137.468l-34.618-34.618c-12.988-12.988-34.045-12.988-47.033,0L288.15,235.307
	c-3.822,3.822-5.573,9.248-4.706,14.583l1.377,8.474c1.065,6.552-1.086,13.216-5.779,17.909l-12.826,12.826l49.793,49.793
	l12.826-12.826c4.694-4.694,11.358-6.844,17.909-5.779l8.474,1.377c5.335,0.867,10.761-0.884,14.583-4.706L502.259,184.5
	C515.247,171.512,515.247,150.455,502.259,137.468z"/>
<path style="fill:#FDE27C;" d="M333.829,271.279L333.829,271.279c-6.088-6.088-6.088-15.96,0-22.048l98.698-98.698
	c6.088-6.088,15.96-6.088,22.048,0l0,0c6.088,6.088,6.088,15.96,0,22.048l-98.698,98.698
	C349.789,277.367,339.918,277.367,333.829,271.279z"/>
<path style="opacity:0.1;enable-background:new    ;" d="M328.835,326.066c4.21-4.21,10.006-6.366,15.884-5.998
	c-29.536-23.686-33.647-92.083,1.421-142.751l-57.99,57.99c-3.822,3.822-5.573,9.248-4.706,14.583l1.377,8.474
	c1.065,6.552-1.086,13.216-5.779,17.909l-12.826,12.826l49.793,49.793L328.835,326.066z"/>
<path style="fill:#495059;" d="M201,426.156l73.169-73.169l-22.048-22.048l-73.169,73.169c-2.253,2.253-4.955,4.007-7.931,5.147
	l-34.032,13.043c-5.168,1.981-9.199,6.141-11.016,11.369l-10.489,30.178c-1.121,3.225-0.3,6.808,2.115,9.222l14.442,14.442
	c2.415,2.414,5.997,3.236,9.222,2.115l30.178-10.489c5.228-1.817,9.388-5.848,11.369-11.016l13.043-34.032
	C196.993,431.111,198.747,428.409,201,426.156z"/>
<rect x="240.279" y="338.954" transform="matrix(0.7071 0.7071 -0.7071 0.7071 321.8921 -78.6369)" style="opacity:0.1;enable-background:new    ;" width="31.18" height="20.572"/>
<path style="fill:#FDE27C;" d="M295.042,373.861l-63.795-63.795c-4.931-4.931-4.931-12.925,0-17.856l10.111-10.111
	c4.931-4.931,12.925-4.931,17.856,0l63.795,63.795c4.931,4.931,4.931,12.925,0,17.856l-10.111,10.111
	C307.968,378.792,299.973,378.792,295.042,373.861z"/>
<path style="opacity:0.1;enable-background:new    ;" d="M259.215,282.099c-4.931-4.931-12.925-4.931-17.856,0l-10.111,10.111
	c-4.931,4.931-4.931,12.925,0,17.856l50.256,50.256c-19.081-28.617-14.221-54.119-8.379-64.314L259.215,282.099z"/>
<g>
</g>
<g>
</g>
<g>
</g>
<g>
</g>
<g>
</g>
<g>
</g>
<g>
</g>
<g>
</g>
<g>
</g>
<g>
</g>
<g>
</g>
<g>
</g>
<g>
</g>
<g>
</g>
<g>
</g>
</svg>
