<?xml version="1.0" encoding="iso-8859-1"?>
<!-- Generator: Adobe Illustrator 19.0.0, SVG Export Plug-In . SVG Version: 6.00 Build 0)  -->
<svg version="1.1" id="Capa_1" xmlns="http://www.w3.org/2000/svg" xmlns:xlink="http://www.w3.org/1999/xlink" x="0px" y="0px"
	 viewBox="0 0 512 512" style="enable-background:new 0 0 512 512;" xml:space="preserve">
<rect id="SVGCleanerId_0" x="78.57" y="56.43" style="fill:#B8DBFF;" width="354.87" height="455.57"/>
<g>
	<rect id="SVGCleanerId_0_1_" x="78.57" y="56.43" style="fill:#B8DBFF;" width="354.87" height="455.57"/>
</g>
<path style="fill:#FFFFFF;" d="M291.614,252.317h95.795v-56.303c0-26.453-21.444-47.897-47.897-47.897l0,0
	c-26.453,0-47.897,21.444-47.897,47.897L291.614,252.317L291.614,252.317z"/>
<path style="opacity:0.1;enable-background:new    ;" d="M347.011,252.316V148.705c-2.444-0.384-4.948-0.589-7.5-0.589l0,0
	c-2.552,0-5.056,0.204-7.5,0.589v103.611l0,0L347.011,252.316L347.011,252.316z"/>
<path style="fill:#EC7887;" d="M291.614,252.317h95.795v18.186c0,4.91-3.98,8.891-8.891,8.891h-78.013
	c-4.91,0-8.891-3.98-8.891-8.891V252.317z"/>
<path style="fill:#FFFFFF;" d="M220.386,252.317h-95.795v-56.303c0-26.453,21.444-47.897,47.897-47.897l0,0
	c26.453,0,47.897,21.444,47.897,47.897L220.386,252.317L220.386,252.317z"/>
<path style="opacity:0.1;enable-background:new    ;" d="M179.989,252.316V148.705c-2.444-0.385-4.948-0.589-7.5-0.589l0,0
	c-2.552,0-5.056,0.204-7.5,0.589v103.611l0,0L179.989,252.316L179.989,252.316z"/>
<path style="fill:#EC7887;" d="M220.386,252.317h-95.795v18.186c0,4.91,3.981,8.891,8.891,8.891h78.013
	c4.91,0,8.891-3.98,8.891-8.891L220.386,252.317L220.386,252.317z"/>
<path style="opacity:0.1;enable-background:new    ;" d="M433.433,117V56.426H78.567V512H246.8
	c-91.694-61.577-98.293-297.977-98.761-377.771C147.983,124.726,155.67,117,165.173,117H433.433z"/>
<path style="fill:#609AD6;" d="M480.038,49.842H31.962l4.505,17.353c4.733,18.231,21.189,30.96,40.024,30.96h359.017
	c18.836,0,35.291-12.729,40.024-30.96L480.038,49.842z"/>
<path style="opacity:0.1;enable-background:new    ;" d="M36.467,67.196c4.733,18.231,21.189,30.96,40.024,30.96h136.391
	c-16.277-9.612-24.317-32.563-27.335-48.313H31.962L36.467,67.196z"/>
<path style="fill:#5B6EA2;" d="M493.359,49.842H18.641c-8.336,0-15.094-6.758-15.094-15.094V15.094C3.547,6.758,10.305,0,18.641,0
	h474.718c8.336,0,15.094,6.758,15.094,15.094v19.655C508.453,43.085,501.695,49.842,493.359,49.842z"/>
<path style="opacity:0.1;enable-background:new    ;" d="M203.863,0H18.641C10.305,0,3.547,6.758,3.547,15.094v19.655
	c0,8.336,6.758,15.094,15.094,15.094h200.392C208.745,38.097,203.599,14.267,203.863,0z"/>
<path style="fill:#609AD6;" d="M256,320.504L256,320.504c-30.917,0-55.979,25.063-55.979,55.979v72.908H311.98v-72.908
	C311.979,345.567,286.917,320.504,256,320.504z"/>
<path style="opacity:0.1;enable-background:new    ;" d="M263.5,449.392V321.019c-2.455-0.329-4.955-0.515-7.5-0.515l0,0
	c-2.545,0-5.045,0.186-7.5,0.515v128.372l0,0L263.5,449.392L263.5,449.392z"/>
<path style="fill:#5B6EA2;" d="M337.99,480.696H174.01v-20.005c0-6.24,5.059-11.299,11.299-11.299H326.69
	c6.24,0,11.299,5.059,11.299,11.299L337.99,480.696L337.99,480.696z"/>
<path style="fill:#609AD6;" d="M357.054,512H154.946v-20.005c0-6.24,5.059-11.299,11.299-11.299h179.509
	c6.24,0,11.299,5.059,11.299,11.299L357.054,512L357.054,512z"/>
<circle style="fill:#86DBD5;" cx="64.05" cy="460.5" r="42.45"/>
<path style="fill:#55A6B5;" d="M101.37,470.066H26.724c-6.5,0-11.769,5.269-11.769,11.769v19.963
	c0,5.634,4.567,10.202,10.202,10.202h77.779c5.634,0,10.202-4.568,10.202-10.202v-19.963
	C113.139,475.335,107.87,470.066,101.37,470.066z"/>
<circle style="fill:#86DBD5;" cx="447.95" cy="460.5" r="42.45"/>
<path style="fill:#55A6B5;" d="M410.63,470.066h74.646c6.5,0,11.769,5.269,11.769,11.769v19.963c0,5.634-4.568,10.202-10.202,10.202
	h-77.779c-5.634,0-10.202-4.568-10.202-10.202v-19.963C398.861,475.335,404.13,470.066,410.63,470.066z"/>
<path style="opacity:0.1;enable-background:new    ;" d="M390.52,361.033h-21.413c-4.142,0-7.5-3.357-7.5-7.5s3.358-7.5,7.5-7.5
	h21.413c4.142,0,7.5,3.357,7.5,7.5S394.662,361.033,390.52,361.033z"/>
<path style="opacity:0.1;enable-background:new    ;" d="M374.408,441.054h-21.413c-4.142,0-7.5-3.357-7.5-7.5s3.358-7.5,7.5-7.5
	h21.413c4.142,0,7.5,3.357,7.5,7.5C381.908,437.696,378.55,441.054,374.408,441.054z"/>
<path style="opacity:0.1;enable-background:new    ;" d="M154.946,420.083h-21.413c-4.142,0-7.5-3.357-7.5-7.5s3.358-7.5,7.5-7.5
	h21.413c4.142,0,7.5,3.357,7.5,7.5S159.088,420.083,154.946,420.083z"/>
<path style="opacity:0.1;enable-background:new    ;" d="M146.004,351.969h-21.413c-4.142,0-7.5-3.358-7.5-7.5
	c0-4.143,3.358-7.5,7.5-7.5h21.413c4.142,0,7.5,3.357,7.5,7.5C153.504,348.611,150.146,351.969,146.004,351.969z"/>
<path style="opacity:0.1;enable-background:new    ;" d="M135.298,138.636h-21.413c-4.142,0-7.5-3.357-7.5-7.5
	c0-4.142,3.358-7.5,7.5-7.5h21.413c4.142,0,7.5,3.358,7.5,7.5S139.44,138.636,135.298,138.636z"/>
<path style="opacity:0.1;enable-background:new    ;" d="M277.413,176.642H256c-4.142,0-7.5-3.357-7.5-7.5s3.358-7.5,7.5-7.5h21.413
	c4.142,0,7.5,3.357,7.5,7.5C284.913,173.284,281.555,176.642,277.413,176.642z"/>
<path style="opacity:0.1;enable-background:new    ;" d="M411.932,144.026H390.52c-4.142,0-7.5-3.357-7.5-7.5s3.358-7.5,7.5-7.5
	h21.413c4.142,0,7.5,3.357,7.5,7.5C419.432,140.669,416.074,144.026,411.932,144.026z"/>
<g>
</g>
<g>
</g>
<g>
</g>
<g>
</g>
<g>
</g>
<g>
</g>
<g>
</g>
<g>
</g>
<g>
</g>
<g>
</g>
<g>
</g>
<g>
</g>
<g>
</g>
<g>
</g>
<g>
</g>
</svg>
