<?xml version="1.0" encoding="iso-8859-1"?>
<!-- Generator: Adobe Illustrator 19.0.0, SVG Export Plug-In . SVG Version: 6.00 Build 0)  -->
<svg version="1.1" id="Capa_1" xmlns="http://www.w3.org/2000/svg" xmlns:xlink="http://www.w3.org/1999/xlink" x="0px" y="0px"
	 viewBox="0 0 512 512" style="enable-background:new 0 0 512 512;" xml:space="preserve">
<path style="fill:#B8DBFF;" d="M344.003,257.791h-33.979c-4.79,0-8.674-3.883-8.674-8.674v-87.38c0-4.79,3.883-8.674,8.674-8.674
	h33.979c4.79,0,8.674,3.884,8.674,8.674v87.38C352.677,253.908,348.793,257.791,344.003,257.791z"/>
<path style="opacity:0.1;enable-background:new    ;" d="M310.023,257.791h33.979c4.79,0,8.674-3.883,8.674-8.674v-34.678
	c-22.128-9.832-39.501-21.809-51.327-34.486v69.164C301.349,253.908,305.233,257.791,310.023,257.791z"/>
<path style="fill:#EC7887;" d="M423.664,257.791h-33.979c-4.79,0-8.674-3.883-8.674-8.674V67.974c0-4.79,3.883-8.674,8.674-8.674
	h33.979c4.791,0,8.674,3.883,8.674,8.674v181.143C432.338,253.908,428.455,257.791,423.664,257.791z"/>
<path style="opacity:0.1;enable-background:new    ;" d="M389.685,257.791h33.979c4.79,0,8.674-3.883,8.674-8.674V236.02
	c-18.606-2.48-35.776-6.265-51.327-11.046v24.143C381.011,253.908,384.894,257.791,389.685,257.791z"/>
<path style="fill:#609AD6;" d="M503.326,257.791h-33.979c-4.79,0-8.674-3.883-8.674-8.674v-131.96c0-4.791,3.883-8.674,8.674-8.674
	h33.979c4.79,0,8.674,3.883,8.674,8.674v131.96C512,253.908,508.117,257.791,503.326,257.791z"/>
<path style="opacity:0.1;enable-background:new    ;" d="M469.347,257.791h33.979c4.79,0,8.674-3.883,8.674-8.674v-10.78
	c-17.94,1.2-35.08,1.257-51.327,0.345v10.435C460.673,253.908,464.556,257.791,469.347,257.791z"/>
<path style="fill:#5B6EA2;" d="M193.083,136.138c76.942,6.026,137.097,71.807,134.091,150.965
	c-2.869,75.535-64.416,137.082-139.951,139.951c-79.159,3.006-144.939-57.149-150.965-134.091
	c-0.486-6.201,4.332-11.538,10.553-11.538H170.8c5.935,0,10.745-4.811,10.745-10.746V146.691
	C181.545,140.471,186.882,135.652,193.083,136.138z"/>
<path style="opacity:0.1;enable-background:new    ;" d="M120.324,281.425H46.811c-6.22,0-11.038,5.337-10.553,11.538
	c6.026,76.942,71.807,137.098,150.965,134.091c32.58-1.237,62.551-13.398,86.34-32.882
	C192.161,404.899,126.291,324.49,120.324,281.425z"/>
<path style="fill:#609AD6;" d="M145.273,111.144v123.264c0,5.935-4.811,10.745-10.746,10.745H11.264
	c-6.584,0-11.768-5.636-11.225-12.197C5.902,162.197,62.316,105.783,133.075,99.92C139.637,99.375,145.273,104.56,145.273,111.144z"
	/>
<path style="opacity:0.1;enable-background:new    ;" d="M84.634,112.601C37.925,134.004,4.48,179.361,0.039,232.955
	c-0.544,6.561,4.641,12.198,11.225,12.198h90.853C68.513,222.47,70.557,142.918,84.634,112.601z"/>
<path style="fill:#B8DBFF;" d="M150.323,417.88c-2.623,0-5.169-1.378-6.545-3.827c-2.029-3.611-0.747-8.183,2.863-10.212
	L300.29,317.49l169.247,43.063c4.014,1.021,6.44,5.103,5.419,9.118c-1.021,4.014-5.101,6.439-9.118,5.419l-163.431-41.583
	l-148.417,83.41C152.829,417.569,151.567,417.88,150.323,417.88z"/>
<g>
	<circle style="fill:#F7B96D;" cx="150.32" cy="410.381" r="42.32"/>
	<circle style="fill:#F7B96D;" cx="301.35" cy="325.501" r="42.32"/>
</g>
<circle style="fill:#EC7887;" cx="467.69" cy="367.821" r="42.32"/>
<path style="opacity:0.1;enable-background:new    ;" d="M150.317,452.701c15.562,0,29.154-8.405,36.506-20.917
	c-46.018,7.534-60.255-35.973-53.53-60.154c-14.895,6.553-25.299,21.432-25.299,38.748
	C107.994,433.753,126.942,452.701,150.317,452.701z"/>
<path style="opacity:0.1;enable-background:new    ;" d="M301.349,367.821c15.562,0,29.154-8.405,36.506-20.917
	c-46.017,7.534-60.255-35.973-53.53-60.154c-14.895,6.553-25.299,21.432-25.299,38.748
	C259.027,348.872,277.975,367.821,301.349,367.821z"/>
<path style="opacity:0.1;enable-background:new    ;" d="M467.688,410.143c15.562,0,29.154-8.405,36.506-20.917
	c-46.017,7.534-60.255-35.973-53.53-60.154c-14.895,6.553-25.299,21.432-25.299,38.748
	C425.365,391.195,444.314,410.143,467.688,410.143z"/>
<g>
</g>
<g>
</g>
<g>
</g>
<g>
</g>
<g>
</g>
<g>
</g>
<g>
</g>
<g>
</g>
<g>
</g>
<g>
</g>
<g>
</g>
<g>
</g>
<g>
</g>
<g>
</g>
<g>
</g>
</svg>
