<?xml version="1.0" encoding="iso-8859-1"?>
<!-- Generator: Adobe Illustrator 19.0.0, SVG Export Plug-In . SVG Version: 6.00 Build 0)  -->
<svg version="1.1" id="Capa_1" xmlns="http://www.w3.org/2000/svg" xmlns:xlink="http://www.w3.org/1999/xlink" x="0px" y="0px"
	 viewBox="0 0 512 512" style="enable-background:new 0 0 512 512;" xml:space="preserve">
<path style="fill:#609AD6;" d="M227.466,388.084c-4.398,0-8.728-2.064-11.459-5.93c-10.695-15.14-38.804-26.129-68.564-37.762
	C91.618,322.568,22.14,295.408,22.14,219.845c0-37.48,30.492-67.971,67.972-67.971c37.479,0,67.971,30.492,67.971,67.971
	c0,18.139-7.058,35.196-19.875,48.03c-5.468,5.477-14.34,5.482-19.818,0.014c-5.476-5.469-5.482-14.342-0.014-19.818
	c7.532-7.542,11.68-17.566,11.68-28.226c0-22.026-17.919-39.945-39.945-39.945s-39.946,17.92-39.946,39.945
	c0,25.129,10.229,44.62,32.192,61.341c20.712,15.768,48.456,26.615,75.289,37.103c33.789,13.209,65.704,25.685,81.252,47.696
	c4.465,6.321,2.96,15.065-3.361,19.53C233.083,387.25,230.26,388.084,227.466,388.084z"/>
<path style="opacity:0.1;enable-background:new    ;" d="M158.083,219.845c0,17.831-6.834,34.608-19.241,47.364
	c-1.315-5.813-2.129-11.752-2.407-17.749l-3.832-82.613C148.122,179.315,158.083,198.434,158.083,219.845z"/>
<path style="opacity:0.1;enable-background:new    ;" d="M174.116,324.8c27.383,11.065,51.795,22.798,64.784,41.185
	c4.465,6.321,2.96,15.065-3.361,19.53c-2.458,1.735-5.279,2.569-8.073,2.569c-4.397,0-8.729-2.065-11.459-5.93
	c-4.572-6.473-12.334-12.185-22.04-17.515C191.668,349.674,184.74,335.715,174.116,324.8z"/>
<path style="fill:#609AD6;" d="M284.534,388.084c4.398,0,8.727-2.064,11.459-5.93c10.695-15.14,38.804-26.129,68.564-37.762
	c55.826-21.824,125.303-48.984,125.303-124.547c0-37.48-30.492-67.971-67.972-67.971c-37.479,0-67.971,30.492-67.971,67.971
	c0,18.139,7.058,35.196,19.875,48.03c5.468,5.477,14.34,5.482,19.818,0.014c5.476-5.469,5.482-14.342,0.014-19.818
	c-7.532-7.542-11.68-17.566-11.68-28.226c0-22.026,17.919-39.945,39.945-39.945s39.946,17.92,39.946,39.945
	c0,25.129-10.229,44.62-32.192,61.341c-20.712,15.768-48.457,26.615-75.289,37.103c-33.789,13.209-65.704,25.685-81.252,47.696
	c-4.465,6.321-2.96,15.065,3.361,19.53C278.917,387.25,281.74,388.084,284.534,388.084z"/>
<path style="opacity:0.1;enable-background:new    ;" d="M353.917,219.845c0,17.831,6.834,34.608,19.241,47.364
	c1.315-5.813,2.129-11.752,2.407-17.749l3.832-82.613C363.878,179.315,353.917,198.434,353.917,219.845z"/>
<path style="opacity:0.1;enable-background:new    ;" d="M337.884,324.8c-27.383,11.065-51.795,22.798-64.784,41.185
	c-4.465,6.321-2.96,15.065,3.361,19.53c2.458,1.735,5.279,2.569,8.073,2.569c4.397,0,8.729-2.065,11.459-5.93
	c4.572-6.473,12.334-12.185,22.04-17.515C320.332,349.674,327.259,335.715,337.884,324.8z"/>
<circle style="fill:#B8DBFF;" cx="256" cy="23.531" r="23.531"/>
<path style="fill:#5B6EA2;" d="M357.064,111.79C343.298,69.105,303.265,38.215,256,38.215s-87.298,30.889-101.064,73.575
	C154.936,111.79,357.064,111.79,357.064,111.79z"/>
<path style="opacity:0.1;enable-background:new    ;" d="M246.551,38.642c-43.09,3.802-78.777,33.34-91.615,73.148h142.276
	C245.719,101.844,238.116,59.306,246.551,38.642z"/>
<path style="fill:#609AD6;" d="M370.743,131.429H141.257c-10.846,0-19.639-8.793-19.639-19.639l0,0
	c0-10.846,8.793-19.639,19.639-19.639h229.486c10.846,0,19.639,8.793,19.639,19.639l0,0
	C390.382,122.637,381.589,131.429,370.743,131.429z"/>
<path style="fill:#B8DBFF;" d="M366.025,131.429h-220.05l5.444,117.336c1.093,23.555,11.597,45.685,29.155,61.425l0,0
	c18.614,16.686,29.25,40.504,29.25,65.502v57.752h92.353v-57.752c0-24.998,10.636-48.816,29.25-65.502l0,0
	c17.558-15.74,28.062-37.87,29.155-61.425L366.025,131.429z"/>
<path style="fill:#609AD6;" d="M352.626,472.722H159.374l3.63-10.74c5.765-17.057,21.765-28.538,39.769-28.538h106.453
	c18.005,0,34.004,11.481,39.769,28.538L352.626,472.722z"/>
<g>
	<path style="fill:#5B6EA2;" d="M370.235,512h-228.47c-8.054,0-14.584-6.529-14.584-14.584v-10.11
		c0-8.054,6.529-14.584,14.584-14.584h228.469c8.054,0,14.584,6.529,14.584,14.584v10.11C384.819,505.471,378.289,512,370.235,512z"
		/>
	<path style="fill:#5B6EA2;" d="M302.571,235.509h-93.142c-6.82,0-12.349,5.529-12.349,12.349v17.572
		c0,6.82,5.529,12.349,12.349,12.349h93.142c6.82,0,12.349-5.529,12.349-12.349v-17.572
		C314.92,241.038,309.391,235.509,302.571,235.509z"/>
	<path style="fill:#5B6EA2;" d="M289.372,206.771h-66.744c-4.143,0-7.5-3.358-7.5-7.5s3.357-7.5,7.5-7.5h66.744
		c4.142,0,7.5,3.358,7.5,7.5S293.515,206.771,289.372,206.771z"/>
</g>
<path style="opacity:0.1;enable-background:new    ;" d="M151.419,248.765c1.093,23.555,11.597,45.685,29.155,61.425l0,0
	c18.614,16.686,29.249,40.504,29.249,65.502v57.752h37.394c-0.092-46.605-1.721-90.316-14.749-120.31
	c-14.881-34.259-25.976-105.422-28.163-147.582c-0.386-7.443,5.564-13.679,13.017-13.679h147.754l0.949-20.444h-220.05
	L151.419,248.765z"/>
<path style="opacity:0.1;enable-background:new    ;" d="M141.257,92.151c-10.846,0-19.639,8.793-19.639,19.639l0,0
	c0,10.846,8.793,19.639,19.639,19.639h98.521c-10.801-9.327-7.825-31.176-2.261-39.278H141.257z"/>
<g>
</g>
<g>
</g>
<g>
</g>
<g>
</g>
<g>
</g>
<g>
</g>
<g>
</g>
<g>
</g>
<g>
</g>
<g>
</g>
<g>
</g>
<g>
</g>
<g>
</g>
<g>
</g>
<g>
</g>
</svg>
