<?xml version="1.0" encoding="iso-8859-1"?>
<!-- Generator: Adobe Illustrator 19.0.0, SVG Export Plug-In . SVG Version: 6.00 Build 0)  -->
<svg version="1.1" id="Capa_1" xmlns="http://www.w3.org/2000/svg" xmlns:xlink="http://www.w3.org/1999/xlink" x="0px" y="0px"
	 viewBox="0 0 512 512" style="enable-background:new 0 0 512 512;" xml:space="preserve">
<path style="fill:#55A6B5;" d="M347.607,454.577h-182.97c-8.446,0-15.293-6.847-15.293-15.293s6.846-15.293,15.293-15.293h182.97
	c8.446,0,15.293,6.847,15.293,15.293S356.053,454.577,347.607,454.577z"/>
<path style="fill:#86DBD5;" d="M145.667,512c-2.007,0-4.046-0.331-6.048-1.03c-9.569-3.339-14.619-13.804-11.279-23.374
	l46.576-133.453c3.339-9.569,13.803-14.621,23.373-11.279c9.569,3.339,14.619,13.804,11.279,23.374l-46.576,133.453
	C160.352,507.259,153.253,512,145.667,512z"/>
<path style="opacity:0.1;enable-background:new    ;" d="M198.288,342.865c-9.571-3.342-20.034,1.71-23.374,11.279L155.94,408.51
	h38.874l14.753-42.272C212.908,356.669,207.857,346.204,198.288,342.865z"/>
<path style="fill:#86DBD5;" d="M366.335,512c-7.588,0-14.685-4.741-17.326-12.309l-46.575-133.453
	c-3.339-9.569,1.71-20.034,11.28-23.374s20.032,1.71,23.373,11.28l46.575,133.453c3.339,9.569-1.71,20.034-11.28,23.373
	C370.379,511.668,368.34,512,366.335,512z"/>
<path style="opacity:0.1;enable-background:new    ;" d="M337.085,354.144c-3.34-9.57-13.803-14.619-23.373-11.28
	c-9.57,3.339-14.619,13.804-11.28,23.374l14.753,42.272h38.873L337.085,354.144z"/>
<rect x="108.26" y="45.975" style="fill:#B8DBFF;" width="295.48" height="291.23"/>
<path style="fill:#FFFFFF;" d="M318.447,297.427H159.702c-7.752,0-14.035-6.284-14.035-14.035V45.975h220.668V249.54
	L318.447,297.427z"/>
<g>
	<path style="fill:#5B6EA2;" d="M410.501,0H101.499c-8.447,0-15.294,6.847-15.294,15.294v15.388c0,8.447,6.847,15.294,15.294,15.294
		H410.5c8.447,0,15.294-6.847,15.294-15.294V15.294C425.794,6.847,418.947,0,410.501,0z"/>
	<path style="fill:#5B6EA2;" d="M410.501,337.203H101.499c-8.447,0-15.294,6.847-15.294,15.294v15.388
		c0,8.446,6.847,15.294,15.294,15.294H410.5c8.447,0,15.294-6.847,15.294-15.294v-15.388
		C425.794,344.051,418.947,337.203,410.501,337.203z"/>
	<path style="fill:#5B6EA2;" d="M332.293,249.35h11.612c8.365,0,16.404-3.241,22.43-9.042l0,0v9.232
		c0,26.447-21.44,47.887-47.887,47.887h-9.232l0,0c5.801-6.026,9.042-14.065,9.042-22.43v-11.612
		C318.257,255.634,324.541,249.35,332.293,249.35z"/>
</g>
<path style="fill:#EC7887;" d="M299.285,136.303c-2.396-30.596-28.554-54.517-60.031-53.321
	c-30.036,1.141-54.511,25.615-55.652,55.652c-1.195,31.477,22.725,57.635,53.321,60.031c2.466,0.193,4.588-1.723,4.588-4.196
	v-49.304c0-2.36,1.913-4.273,4.273-4.273h49.304C297.563,140.891,299.479,138.769,299.285,136.303z"/>
<path style="fill:#F7B96D;" d="M323.777,169.867h-49.016c-2.36,0-4.273,1.913-4.273,4.273v49.016c0,2.618,2.241,4.68,4.85,4.464
	c28.137-2.332,50.57-24.765,52.902-52.902C328.457,172.109,326.395,169.867,323.777,169.867z"/>
<path style="opacity:0.1;enable-background:new    ;" d="M108.262,337.203h128.812c-62.656-56.42-74.798-179.054-76.342-251.023
	c-0.207-9.66,7.564-17.597,17.226-17.597H403.74V45.975H108.262V337.203z"/>
<path style="opacity:0.1;enable-background:new    ;" d="M210.254,0H101.499c-8.447,0-15.294,6.847-15.294,15.294v15.388
	c0,8.447,6.847,15.294,15.294,15.294h116.172C208.81,34.071,205.301,13.462,210.254,0z"/>
<path style="opacity:0.1;enable-background:new    ;" d="M210.254,337.203H101.499c-8.447,0-15.294,6.847-15.294,15.294v15.388
	c0,8.446,6.847,15.294,15.294,15.294h116.172C208.81,371.274,205.301,350.666,210.254,337.203z"/>
<g>
</g>
<g>
</g>
<g>
</g>
<g>
</g>
<g>
</g>
<g>
</g>
<g>
</g>
<g>
</g>
<g>
</g>
<g>
</g>
<g>
</g>
<g>
</g>
<g>
</g>
<g>
</g>
<g>
</g>
</svg>
