<?xml version="1.0" encoding="iso-8859-1"?>
<!-- Generator: Adobe Illustrator 19.0.0, SVG Export Plug-In . SVG Version: 6.00 Build 0)  -->
<svg version="1.1" id="Capa_1" xmlns="http://www.w3.org/2000/svg" xmlns:xlink="http://www.w3.org/1999/xlink" x="0px" y="0px"
	 viewBox="0 0 512 512" style="enable-background:new 0 0 512 512;" xml:space="preserve">
<circle style="fill:#495059;" cx="256" cy="471.97" r="40.03"/>
<path style="opacity:0.1;enable-background:new    ;" d="M216.005,473.617c0.793,19.794,16.299,36.238,36.012,38.186
	c5.06,0.5,9.939,0.03,14.5-1.209c-9.463-2.685-18.324-8.911-23.017-15.977c-2.902-4.368,0.379-10.215,5.623-10.215h44.925
	c1.278-3.914,1.978-8.089,1.978-12.43c0-11.437-4.804-21.745-12.495-29.039c-19.336,0.262-39.915,0.539-55.853,0.753
	C220.088,451.286,215.537,461.923,216.005,473.617z"/>
<path style="fill:#FDE27C;" d="M254.034,59.659c-71.109,1.031-129.188,58.877-130.489,129.982
	c-0.463,25.288,6.163,48.994,18.023,69.266c23.52,40.204,36.263,85.796,36.263,132.375v0.635H334.17v-0.628
	c0-46.767,13.092-92.392,36.539-132.857c11.3-19.501,17.769-42.148,17.769-66.309C388.478,118.302,328.1,58.584,254.034,59.659z"/>
<path style="fill:#FFFFFF;" d="M286.528,399.417c-4.142,0-7.5-3.358-7.5-7.5v-24.011c0-31.675,7.122-63.57,20.595-92.237
	l0.002-0.005l-15.867,8.788c-6.022,3.335-13.606,1.93-18.035-3.342l-6.746-8.033c-1.014-1.208-2.301-1.388-2.978-1.388
	s-1.964,0.18-2.978,1.388l-6.745,8.032c-4.428,5.272-12.011,6.677-18.035,3.342l-15.867-8.788l0.002,0.005
	c13.473,28.667,20.595,60.562,20.595,92.236v24.011c0,4.142-3.358,7.5-7.5,7.5s-7.5-3.358-7.5-7.5v-24.011
	c0-29.484-6.629-59.172-19.17-85.857l-0.803-1.709c-2.705-5.755-1.453-12.283,3.191-16.628c4.645-4.346,11.242-5.163,16.806-2.081
	l17.099,9.471l6.44-7.669c3.598-4.284,8.871-6.742,14.465-6.742c5.595,0,10.867,2.457,14.465,6.742l6.44,7.669l17.099-9.471
	c5.563-3.083,12.16-2.266,16.806,2.081c4.644,4.346,5.896,10.873,3.191,16.629l-0.802,1.708
	c-12.542,26.685-19.171,56.374-19.171,85.857v24.011C294.028,396.059,290.67,399.417,286.528,399.417z"/>
<path style="fill:#55A6B5;" d="M302.555,471.972h-93.109c-17.46,0-31.615-14.155-31.615-31.615v-48.441H334.17v48.441
	C334.169,457.818,320.015,471.972,302.555,471.972z"/>
<rect x="177.83" y="424.44" style="opacity:0.1;enable-background:new    ;" width="156.34" height="15"/>
<g>
	<ellipse style="fill:#EC7887;" cx="192.84" cy="201.69" rx="23.305" ry="18.715"/>
	<ellipse style="fill:#EC7887;" cx="319.16" cy="201.69" rx="23.305" ry="18.715"/>
</g>
<g>
	<path style="fill:#495059;" d="M196.735,187.096c-4.142,0-7.5-3.358-7.5-7.5v-10.088c0-4.142,3.358-7.5,7.5-7.5s7.5,3.358,7.5,7.5
		v10.088C204.235,183.738,200.877,187.096,196.735,187.096z"/>
	<path style="fill:#495059;" d="M256,204.341L256,204.341c-9.325,0-16.885-7.559-16.885-16.884v-12.56
		c0-2.546,2.064-4.609,4.609-4.609h24.551c2.546,0,4.609,2.064,4.609,4.609v12.56C272.885,196.781,265.325,204.341,256,204.341z"/>
	<path style="fill:#495059;" d="M315.265,187.096c-4.142,0-7.5-3.358-7.5-7.5v-10.088c0-4.142,3.358-7.5,7.5-7.5s7.5,3.358,7.5,7.5
		v10.088C322.765,183.738,319.407,187.096,315.265,187.096z"/>
</g>
<g>
	<path style="fill:#F7B96D;" d="M256,34.825c-4.142,0-7.5-3.358-7.5-7.5V7.5c0-4.142,3.358-7.5,7.5-7.5s7.5,3.358,7.5,7.5v19.825
		C263.5,31.467,260.142,34.825,256,34.825z"/>
	<path style="fill:#F7B96D;" d="M139.47,83.093c-1.919,0-3.839-0.732-5.303-2.197l-14.018-14.018c-2.929-2.929-2.929-7.678,0-10.606
		c2.929-2.929,7.678-2.929,10.606,0l14.018,14.018c2.929,2.929,2.929,7.678,0,10.606C143.309,82.36,141.39,83.093,139.47,83.093z"/>
	<path style="fill:#F7B96D;" d="M91.202,199.623H71.377c-4.142,0-7.5-3.358-7.5-7.5s3.358-7.5,7.5-7.5h19.825
		c4.142,0,7.5,3.358,7.5,7.5C98.702,196.265,95.344,199.623,91.202,199.623z"/>
	<path style="fill:#F7B96D;" d="M125.452,330.17c-1.919,0-3.839-0.732-5.303-2.197c-2.929-2.929-2.929-7.678,0-10.606l14.018-14.018
		c2.929-2.929,7.678-2.929,10.606,0c2.929,2.929,2.929,7.678,0,10.607l-14.018,14.018
		C129.291,329.438,127.372,330.17,125.452,330.17z"/>
	<path style="fill:#F7B96D;" d="M372.53,83.093c-1.919,0-3.839-0.732-5.303-2.197c-2.929-2.929-2.929-7.678,0-10.606l14.018-14.018
		c2.929-2.929,7.678-2.929,10.607,0s2.929,7.678,0,10.606l-14.018,14.018C376.369,82.36,374.449,83.093,372.53,83.093z"/>
	<path style="fill:#F7B96D;" d="M440.623,199.623h-19.825c-4.142,0-7.5-3.358-7.5-7.5s3.358-7.5,7.5-7.5h19.825
		c4.142,0,7.5,3.358,7.5,7.5S444.765,199.623,440.623,199.623z"/>
	<path style="fill:#F7B96D;" d="M386.548,330.17c-1.92,0-3.839-0.732-5.303-2.197l-14.018-14.018c-2.929-2.929-2.929-7.678,0-10.607
		s7.678-2.929,10.606,0l14.018,14.018c2.929,2.929,2.929,7.678,0,10.606C390.387,329.438,388.467,330.17,386.548,330.17z"/>
</g>
<path style="opacity:0.1;enable-background:new    ;" d="M245.739,391.916c-1.43-51.511-9.038-107.635-45.078-152.756
	c-30.929-38.722-56.82-111.838,2.169-168.31c-45.865,20.262-78.316,65.847-79.285,118.79c-0.463,25.288,6.163,48.994,18.023,69.266
	c23.52,40.204,36.263,85.796,36.263,132.375v0.635H245.739z"/>
<path style="opacity:0.1;enable-background:new    ;" d="M177.83,391.916v48.441c0,17.46,14.155,31.615,31.615,31.615h66.548
	c-34.459-18.04-30.255-64.288-30.255-80.056H177.83z"/>
<g>
</g>
<g>
</g>
<g>
</g>
<g>
</g>
<g>
</g>
<g>
</g>
<g>
</g>
<g>
</g>
<g>
</g>
<g>
</g>
<g>
</g>
<g>
</g>
<g>
</g>
<g>
</g>
<g>
</g>
</svg>
