<?xml version="1.0" encoding="iso-8859-1"?>
<!-- Generator: Adobe Illustrator 19.0.0, SVG Export Plug-In . SVG Version: 6.00 Build 0)  -->
<svg version="1.1" id="Capa_1" xmlns="http://www.w3.org/2000/svg" xmlns:xlink="http://www.w3.org/1999/xlink" x="0px" y="0px"
	 viewBox="0 0 512 512" style="enable-background:new 0 0 512 512;" xml:space="preserve">
<path style="fill:#B8DBFF;" d="M44.309,467.951V32.348C44.309,8.021,64.03,0,88.358,0h335.284c24.328,0,44.049,19.722,44.049,44.049
	v423.902c0,24.328-19.722,44.049-44.049,44.049H88.358C64.03,512,44.309,492.279,44.309,467.951z"/>
<g>
	<path style="fill:#609AD6;" d="M147.221,343.146h-41.716c-12.138,0-21.978-9.84-21.978-21.979v-41.716
		c0-12.138,9.84-21.978,21.978-21.978h41.716c12.138,0,21.978,9.84,21.978,21.978v41.716
		C169.199,333.305,159.359,343.146,147.221,343.146z"/>
	<path style="fill:#609AD6;" d="M276.858,343.146h-41.716c-12.138,0-21.978-9.84-21.978-21.979v-41.716
		c0-12.138,9.84-21.978,21.978-21.978h41.716c12.138,0,21.979,9.84,21.979,21.978v41.716
		C298.836,333.305,288.996,343.146,276.858,343.146z"/>
</g>
<path style="fill:#5B6EA2;" d="M406.495,472.783h-41.716c-12.138,0-21.978-9.84-21.978-21.978V279.451
	c0-12.138,9.84-21.978,21.978-21.978h41.716c12.138,0,21.978,9.84,21.978,21.978v171.353
	C428.473,462.943,418.633,472.783,406.495,472.783z"/>
<g>
	<path style="fill:#609AD6;" d="M147.221,472.783h-41.716c-12.138,0-21.978-9.84-21.978-21.978v-41.716
		c0-12.138,9.84-21.978,21.978-21.978h41.716c12.138,0,21.978,9.84,21.978,21.978v41.716
		C169.199,462.943,159.359,472.783,147.221,472.783z"/>
	<path style="fill:#609AD6;" d="M276.858,472.783h-41.716c-12.138,0-21.978-9.84-21.978-21.978v-41.716
		c0-12.138,9.84-21.978,21.978-21.978h41.716c12.138,0,21.979,9.84,21.979,21.978v41.716
		C298.836,462.943,288.996,472.783,276.858,472.783z"/>
</g>
<path style="fill:#5B6EA2;" d="M44.309,32.348v185.908h423.382V44.049C467.691,19.722,447.97,0,423.642,0H88.358
	C64.03,0,44.309,8.021,44.309,32.348z"/>
<path style="fill:#86DBD5;" d="M83.526,167.45v-62.07c0-10.033,8.133-18.166,18.166-18.166h308.616
	c10.033,0,18.166,8.133,18.166,18.166v62.07c0,10.033-8.133,18.166-18.166,18.166H101.692
	C91.659,185.616,83.526,177.483,83.526,167.45z"/>
<g>
	<path style="fill:#495059;" d="M385.637,161.938c-4.143,0-7.5-3.358-7.5-7.5v-36.046c0-4.142,3.357-7.5,7.5-7.5s7.5,3.358,7.5,7.5
		v36.046C393.137,158.58,389.779,161.938,385.637,161.938z"/>
	<path style="fill:#495059;" d="M288.841,161.938c-4.143,0-7.5-3.358-7.5-7.5v-28.546h-9.574c-4.143,0-7.5-3.358-7.5-7.5
		s3.357-7.5,7.5-7.5h17.074c4.143,0,7.5,3.358,7.5,7.5v36.046C296.341,158.58,292.983,161.938,288.841,161.938z"/>
	<path style="fill:#495059;" d="M346.22,161.938h-17.887c-6.916,0-12.543-5.627-12.543-12.543v-25.96
		c0-6.916,5.627-12.543,12.543-12.543h17.887c6.916,0,12.542,5.627,12.542,12.543v25.96
		C358.762,156.311,353.136,161.938,346.22,161.938z M330.79,146.938h12.972v-21.046H330.79V146.938z M346.22,125.892h0.01H346.22z"
		/>
</g>
<g>
	<path style="fill:#EEF0F1;" d="M402.146,358.865h-33.017c-4.143,0-7.5-3.358-7.5-7.5s3.357-7.5,7.5-7.5h33.017
		c4.143,0,7.5,3.358,7.5,7.5S406.288,358.865,402.146,358.865z"/>
	<path style="fill:#EEF0F1;" d="M402.146,386.391h-33.017c-4.143,0-7.5-3.358-7.5-7.5s3.357-7.5,7.5-7.5h33.017
		c4.143,0,7.5,3.358,7.5,7.5S406.288,386.391,402.146,386.391z"/>
	<path style="fill:#EEF0F1;" d="M142.871,307.809h-33.017c-4.143,0-7.5-3.358-7.5-7.5s3.357-7.5,7.5-7.5h33.017
		c4.143,0,7.5,3.358,7.5,7.5S147.014,307.809,142.871,307.809z"/>
	<path style="fill:#EEF0F1;" d="M126.363,324.317c-4.143,0-7.5-3.358-7.5-7.5V283.8c0-4.142,3.357-7.5,7.5-7.5
		c4.143,0,7.5,3.358,7.5,7.5v33.017C133.863,320.96,130.506,324.317,126.363,324.317z"/>
	<path style="fill:#EEF0F1;" d="M138.036,449.12c-1.919,0-3.839-0.732-5.304-2.197l-23.347-23.347
		c-2.929-2.929-2.929-7.678,0-10.607c2.93-2.929,7.678-2.929,10.607,0l23.347,23.347c2.929,2.929,2.929,7.678,0,10.607
		C141.875,448.387,139.955,449.12,138.036,449.12z"/>
	<path style="fill:#EEF0F1;" d="M114.69,449.12c-1.919,0-3.839-0.732-5.304-2.197c-2.929-2.929-2.929-7.678,0-10.607l23.347-23.347
		c2.93-2.929,7.678-2.929,10.607,0s2.929,7.678,0,10.607l-23.347,23.347C118.528,448.387,116.608,449.12,114.69,449.12z"/>
	<path style="fill:#EEF0F1;" d="M238.824,454.622c-1.919,0-3.839-0.733-5.304-2.197c-2.929-2.929-2.929-7.678,0-10.607
		l34.352-34.351c2.93-2.929,7.678-2.929,10.607,0s2.929,7.678,0,10.606l-34.352,34.352
		C242.663,453.89,240.743,454.622,238.824,454.622z"/>
	<circle style="fill:#EEF0F1;" cx="238.82" cy="412.77" r="7.547"/>
	<circle style="fill:#EEF0F1;" cx="273.18" cy="447.12" r="7.547"/>
	<path style="fill:#EEF0F1;" d="M272.509,307.809h-33.018c-4.143,0-7.5-3.358-7.5-7.5s3.357-7.5,7.5-7.5h33.018
		c4.143,0,7.5,3.358,7.5,7.5S276.651,307.809,272.509,307.809z"/>
</g>
<path style="opacity:0.15;enable-background:new    ;" d="M172.805,0H88.358C64.031,0,44.309,8.021,44.309,32.348V467.95
	c0,24.328,19.722,44.049,44.049,44.049h281.816C124.345,455.419,149.334,76.906,172.805,0z"/>
<g>
	<ellipse style="fill:#EC7887;" cx="188.02" cy="59.51" rx="25.08" ry="19.975"/>
	<ellipse style="fill:#EC7887;" cx="323.98" cy="59.51" rx="25.08" ry="19.975"/>
</g>
<g>
	<path style="fill:#FFFFFF;" d="M202.639,47.08c-4.143,0-7.5-3.358-7.5-7.5v-8.857c0-4.142,3.357-7.5,7.5-7.5s7.5,3.358,7.5,7.5
		v8.857C210.139,43.722,206.781,47.08,202.639,47.08z"/>
	<path style="fill:#FFFFFF;" d="M309.361,47.08c-4.143,0-7.5-3.358-7.5-7.5v-8.857c0-4.142,3.357-7.5,7.5-7.5s7.5,3.358,7.5,7.5
		v8.857C316.861,43.722,313.504,47.08,309.361,47.08z"/>
	<path style="fill:#FFFFFF;" d="M256,53.882c-7.56,0-14.748-3.273-19.723-8.981c-2.722-3.123-2.395-7.86,0.727-10.582
		c3.122-2.721,7.859-2.397,10.582,0.726c2.125,2.439,5.191,3.837,8.414,3.837s6.289-1.398,8.414-3.837
		c2.722-3.122,7.457-3.448,10.582-0.726c3.122,2.722,3.448,7.459,0.727,10.582C270.748,50.608,263.56,53.882,256,53.882z"/>
</g>
<g>
</g>
<g>
</g>
<g>
</g>
<g>
</g>
<g>
</g>
<g>
</g>
<g>
</g>
<g>
</g>
<g>
</g>
<g>
</g>
<g>
</g>
<g>
</g>
<g>
</g>
<g>
</g>
<g>
</g>
</svg>
