<?xml version="1.0" encoding="iso-8859-1"?>
<!-- Generator: Adobe Illustrator 19.0.0, SVG Export Plug-In . SVG Version: 6.00 Build 0)  -->
<svg version="1.1" id="Capa_1" xmlns="http://www.w3.org/2000/svg" xmlns:xlink="http://www.w3.org/1999/xlink" x="0px" y="0px"
	 viewBox="0 0 512.001 512.001" style="enable-background:new 0 0 512.001 512.001;" xml:space="preserve">
<path style="fill:#C58F85;" d="M339.503,512H172.498c-15.287,0-28.145-11.461-29.896-26.647l-41.379-358.882h309.554
	l-41.379,358.882C367.647,500.539,354.789,512,339.503,512z"/>
<path style="fill:#EEF0F1;" d="M405.75,51.886h-299.5l8.143-34.738C116.748,7.102,125.708,0,136.025,0h239.95
	c10.317,0,19.277,7.102,21.632,17.147L405.75,51.886z"/>
<path style="opacity:0.1;enable-background:new    ;" d="M227.798,0h-91.773c-10.317,0-19.277,7.102-21.632,17.147l-8.143,34.738
	h158.797C234.761,39.573,222.986,18.849,227.798,0z"/>
<path style="fill:#EEF0F1;" d="M427.412,51.886H84.588c-17.578,0-31.828,14.25-31.828,31.828v20.743
	c0,12.158,9.856,22.014,22.014,22.014h362.452c12.158,0,22.014-9.856,22.014-22.014V83.713
	C459.24,66.135,444.99,51.886,427.412,51.886z"/>
<path style="opacity:0.05;enable-background:new    ;" d="M238.172,51.886H84.588c-17.578,0-31.828,14.25-31.828,31.828v20.743
	c0,12.158,9.856,22.014,22.014,22.014h201.393C235.139,115.317,224.736,72.454,238.172,51.886z"/>
<path style="opacity:0.1;enable-background:new    ;" d="M139.807,461.106l2.796,24.247c1.75,15.186,14.608,26.647,29.895,26.647
	h167.004c15.287,0,28.145-11.461,29.896-26.647l2.796-24.247H139.807z"/>
<path style="opacity:0.1;enable-background:new    ;" d="M202.286,461.106h-15.004c0,0.144-0.005,0.286,0.003,0.432L190.194,512
	h15.004c0-0.144,0.005-0.286-0.003-0.432L202.286,461.106z M248.5,512h15v-50.894h-15V512z M309.714,461.106l-2.909,50.463
	c-0.008,0.145-0.003,0.288-0.003,0.432h15.003l2.909-50.462c0.008-0.145,0.003-0.288,0.003-0.432L309.714,461.106L309.714,461.106z"
	/>
<g>
	<ellipse style="fill:#FFFFFF;" cx="175.09" cy="218.29" rx="29.855" ry="23.775"/>
	<ellipse style="fill:#FFFFFF;" cx="336.91" cy="218.29" rx="29.855" ry="23.775"/>
</g>
<g>
	<path style="fill:#495059;" d="M206.697,199.921c-4.142,0-7.5-3.358-7.5-7.5c0-3.7-3.01-6.711-6.711-6.711
		c-3.7,0-6.711,3.01-6.711,6.711c0,4.142-3.358,7.5-7.5,7.5s-7.5-3.358-7.5-7.5c0-11.971,9.739-21.711,21.711-21.711
		c11.971,0,21.711,9.739,21.711,21.711C214.197,196.563,210.839,199.921,206.697,199.921z"/>
	<path style="fill:#495059;" d="M333.724,199.921c-4.143,0-7.5-3.358-7.5-7.5c0-3.7-3.01-6.711-6.71-6.711s-6.711,3.01-6.711,6.711
		c0,4.142-3.357,7.5-7.5,7.5s-7.5-3.358-7.5-7.5c0-11.971,9.739-21.711,21.711-21.711c11.971,0,21.71,9.739,21.71,21.711
		C341.224,196.563,337.866,199.921,333.724,199.921z"/>
	<path style="fill:#495059;" d="M256,223.398c-7.945,0-15.5-3.441-20.728-9.44c-2.721-3.122-2.396-7.86,0.727-10.581
		c3.122-2.721,7.86-2.396,10.582,0.727c2.378,2.729,5.811,4.295,9.419,4.295c3.607,0,7.041-1.566,9.421-4.295
		c2.721-3.123,7.458-3.448,10.582-0.725c3.122,2.722,3.446,7.459,0.725,10.582C271.499,219.957,263.943,223.398,256,223.398z"/>
</g>
<path style="opacity:0.1;enable-background:new    ;" d="M142.602,485.353C144.353,500.539,157.211,512,172.498,512h114.618
	c-104.703-42.861-108.269-201.564-122.654-323.083c-1.889-15.958,10.53-30,26.599-30h215.975l3.741-32.446H101.223L142.602,485.353z
	"/>
<path style="fill:#5B6EA2;" d="M401.481,393.15l12.693-110.083c0.88-7.632-5.087-14.326-12.769-14.326H110.596
	c-7.682,0-13.649,6.694-12.769,14.326L110.52,393.15c0.748,6.486,6.24,11.382,12.769,11.382h265.424
	C395.241,404.532,400.733,399.637,401.481,393.15z"/>
<ellipse style="fill:#C58F85;" cx="256" cy="336.64" rx="33.01" ry="42.667"/>
<path style="opacity:0.1;enable-background:new    ;" d="M256,293.97c-3.154,0-6.201,0.584-9.09,1.651
	c-3.531,20.539,0.871,38.53,4.497,53.328c2.977,12.15,5.548,22.644,2.58,30.115c-0.02,0.049-0.032,0.099-0.05,0.148
	c0.683,0.055,1.37,0.091,2.064,0.091c5.052,0,9.837-1.472,14.118-4.094c0.868-9.359-1.582-19.379-4.143-29.831
	c-3.661-14.944-7.78-31.766-3.617-50.611C260.3,294.249,258.176,293.97,256,293.97z"/>
<g>
</g>
<g>
</g>
<g>
</g>
<g>
</g>
<g>
</g>
<g>
</g>
<g>
</g>
<g>
</g>
<g>
</g>
<g>
</g>
<g>
</g>
<g>
</g>
<g>
</g>
<g>
</g>
<g>
</g>
</svg>
