<?xml version="1.0" encoding="iso-8859-1"?>
<!-- Generator: Adobe Illustrator 19.0.0, SVG Export Plug-In . SVG Version: 6.00 Build 0)  -->
<svg version="1.1" id="Capa_1" xmlns="http://www.w3.org/2000/svg" xmlns:xlink="http://www.w3.org/1999/xlink" x="0px" y="0px"
	 viewBox="0 0 512 512" style="enable-background:new 0 0 512 512;" xml:space="preserve">
<rect x="76.16" style="fill:#609AD6;" width="359.67" height="82.48"/>
<path style="fill:#5B6EA2;" d="M85.51,0L85.51,0H73.754c-19.358,0-35.103,15.594-35.29,34.951l-0.54,55.951
	c-0.152,15.751,6.038,30.9,17.175,42.038l199.785,199.785L256,217.199L91.294,52.492C77.31,38.509,74.906,16.693,85.51,0z"/>
<path style="fill:#EEF0F1;" d="M255.471,272.042L52.797,69.369c-7.272-7.272-12.248-16.567-14.41-26.531l-0.315,32.604
	c1.304,1.566,2.67,3.085,4.118,4.533l207.39,207.39c1.464,1.464,3.384,2.197,5.303,2.197c0.139,0,0.278-0.012,0.417-0.02
	L255.471,272.042z"/>
<path style="fill:#5B6EA2;" d="M426.49,0L426.49,0h11.756c19.358,0,35.103,15.594,35.29,34.951l0.54,55.951
	c0.152,15.751-6.038,30.9-17.175,42.038L257.116,332.725L256,217.199L420.706,52.492C434.69,38.509,437.094,16.693,426.49,0z"/>
<path style="fill:#EEF0F1;" d="M473.927,75.443l-0.315-32.604c-2.162,9.964-7.138,19.259-14.41,26.531L256.53,272.042l0.169,17.5
	c0.139,0.008,0.278,0.02,0.417,0.02c1.919,0,3.839-0.732,5.303-2.197l207.39-207.39C471.257,78.528,472.623,77.009,473.927,75.443z"
	/>
<path style="opacity:0.1;enable-background:new    ;" d="M299.546,173.653L256,217.199l1.116,115.526l120.08-120.08
	C355.056,194.086,328.6,180.513,299.546,173.653z"/>
<path style="opacity:0.1;enable-background:new    ;" d="M212.454,173.653c-29.054,6.86-55.51,20.434-77.649,38.993l120.08,120.08
	L256,217.199L212.454,173.653z"/>
<circle style="fill:#F7B96D;" cx="256" cy="357.38" r="154.62"/>
<circle style="fill:#FDE27C;" cx="256" cy="357.38" r="116.38"/>
<g>
	<ellipse style="fill:#EC7887;" cx="186.9" cy="349.73" rx="25.495" ry="20.303"/>
	<ellipse style="fill:#EC7887;" cx="325.1" cy="349.73" rx="25.495" ry="20.303"/>
</g>
<g>
	<path style="fill:#495059;" d="M201.762,336.98c-4.142,0-7.5-3.358-7.5-7.5v-9.003c0-4.142,3.358-7.5,7.5-7.5s7.5,3.358,7.5,7.5
		v9.003C209.262,333.623,205.904,336.98,201.762,336.98z"/>
	<path style="fill:#495059;" d="M310.238,336.98c-4.142,0-7.5-3.358-7.5-7.5v-9.003c0-4.142,3.358-7.5,7.5-7.5s7.5,3.358,7.5,7.5
		v9.003C317.738,333.623,314.38,336.98,310.238,336.98z"/>
	<path style="fill:#495059;" d="M256,343.894c-7.648,0-14.921-3.313-19.954-9.087c-2.721-3.123-2.396-7.86,0.727-10.582
		c3.123-2.721,7.86-2.396,10.582,0.727c2.183,2.505,5.334,3.942,8.645,3.942c3.311,0,6.462-1.436,8.645-3.942
		c2.721-3.124,7.458-3.45,10.582-0.727c3.122,2.721,3.448,7.458,0.727,10.582C270.921,340.582,263.648,343.894,256,343.894z"/>
</g>
<g style="opacity:0.1;">
	<path d="M284.215,398.878h-61.1c-4.142,0-7.5-3.358-7.5-7.5s3.358-7.5,7.5-7.5h61.1c4.142,0,7.5,3.358,7.5,7.5
		S288.357,398.878,284.215,398.878z"/>
	<path d="M269.497,428.486h-31.664c-4.142,0-7.5-3.358-7.5-7.5s3.358-7.5,7.5-7.5h31.664c4.142,0,7.5,3.358,7.5,7.5
		S273.639,428.486,269.497,428.486z"/>
</g>
<path style="opacity:0.1;enable-background:new    ;" d="M377.69,452.778C182.334,487.42,123.003,312.513,238.886,203.703
	c-77.34,8.518-137.508,74.065-137.508,153.675C101.378,442.773,170.605,512,256,512C305.397,512,349.383,488.836,377.69,452.778z"/>
<g>
	<path style="fill:#FDE27C;" d="M410.302,308.46L410.302,308.46c-2.421,5.012-9.559,5.012-11.98,0l0,0
		c-6.227-12.891-16.632-23.296-29.523-29.523l0,0c-5.012-2.421-5.012-9.559,0-11.98l0,0c12.891-6.227,23.296-16.632,29.523-29.523
		l0,0c2.421-5.012,9.559-5.012,11.98,0l0,0c6.227,12.891,16.632,23.296,29.523,29.523l0,0c5.012,2.421,5.012,9.559,0,11.98l0,0
		C426.934,285.164,416.529,295.569,410.302,308.46z"/>
	<path style="fill:#FDE27C;" d="M98.961,326.386L98.961,326.386c-1.961,4.06-7.743,4.06-9.705,0l0,0
		c-5.044-10.442-13.473-18.871-23.915-23.915l0,0c-4.06-1.961-4.06-7.743,0-9.704l0,0c10.442-5.044,18.871-13.473,23.915-23.915l0,0
		c1.961-4.06,7.743-4.06,9.705,0l0,0c5.044,10.442,13.473,18.871,23.915,23.915l0,0c4.06,1.961,4.06,7.743,0,9.704l0,0
		C112.434,307.516,104.005,315.944,98.961,326.386z"/>
</g>
<path style="fill:#FFFFFF;" d="M198.772,475.14L198.772,475.14c-1.941,4.017-7.662,4.017-9.603,0l0,0
	c-4.991-10.333-13.332-18.674-23.665-23.665l0,0c-4.017-1.941-4.017-7.663,0-9.603l0,0c10.333-4.991,18.674-13.332,23.665-23.665
	l0,0c1.941-4.017,7.663-4.017,9.603,0l0,0c4.992,10.333,13.332,18.674,23.665,23.665l0,0c4.017,1.941,4.017,7.663,0,9.603l0,0
	C212.104,456.466,203.763,464.806,198.772,475.14z"/>
<g>
</g>
<g>
</g>
<g>
</g>
<g>
</g>
<g>
</g>
<g>
</g>
<g>
</g>
<g>
</g>
<g>
</g>
<g>
</g>
<g>
</g>
<g>
</g>
<g>
</g>
<g>
</g>
<g>
</g>
</svg>
