<?xml version="1.0" encoding="iso-8859-1"?>
<!-- Generator: Adobe Illustrator 19.0.0, SVG Export Plug-In . SVG Version: 6.00 Build 0)  -->
<svg version="1.1" id="Capa_1" xmlns="http://www.w3.org/2000/svg" xmlns:xlink="http://www.w3.org/1999/xlink" x="0px" y="0px"
	 viewBox="0 0 512 512" style="enable-background:new 0 0 512 512;" xml:space="preserve">
<path style="fill:#EC7887;" d="M146.894,366.459h31.885c5.364,0,9.713-4.348,9.713-9.713v-39.382h-41.598L146.894,366.459
	L146.894,366.459z"/>
<path style="opacity:0.1;enable-background:new    ;" d="M146.894,366.459h25.882c-3.989-7.576-4.879-20.118-5.057-28.423
	c-0.089-4.113,3.211-7.495,7.325-7.495h13.448v-13.177h-41.598L146.894,366.459L146.894,366.459z"/>
<path style="fill:#609AD6;" d="M156.963,434.301H126.04c-8.639,0-16.287-5.585-18.917-13.814l-9.768-30.559
	c-2.986-9.341-4.506-19.088-4.506-28.895v-43.67h63.529v43.67c0,9.807,1.52,19.554,4.506,28.895l8.671,27.128
	C172.281,425.586,165.917,434.301,156.963,434.301z"/>
<rect x="92.85" y="317.36" style="opacity:0.1;enable-background:new    ;" width="63.53" height="26.354"/>
<path style="fill:#495059;" d="M14.732,280.606h32.987V175.373H14.732C6.596,175.373,0,181.969,0,190.105v75.769
	C0,274.01,6.596,280.606,14.732,280.606z"/>
<path style="opacity:0.1;enable-background:new    ;" d="M0,261.647v4.227c0,8.136,6.596,14.732,14.732,14.732h32.987V175.373
	H29.795C32.469,203.527,37.008,247.718,0,261.647z"/>
<g style="opacity:0.25;">
	<path d="M47.719,235.489H26.617c-4.142,0-7.5-3.358-7.5-7.5s3.358-7.5,7.5-7.5h21.102c4.142,0,7.5,3.358,7.5,7.5
		S51.861,235.489,47.719,235.489z"/>
	<path d="M47.719,208.309H26.617c-4.142,0-7.5-3.358-7.5-7.5s3.358-7.5,7.5-7.5h21.102c4.142,0,7.5,3.358,7.5,7.5
		S51.861,208.309,47.719,208.309z"/>
	<path d="M47.719,262.669H26.617c-4.142,0-7.5-3.358-7.5-7.5s3.358-7.5,7.5-7.5h21.102c4.142,0,7.5,3.358,7.5,7.5
		S51.861,262.669,47.719,262.669z"/>
</g>
<path style="fill:#EEF0F1;" d="M260.64,121.613l69.29-39.32c23.249-13.193,52.087,3.6,52.087,30.332v230.729
	c0,26.731-28.838,43.524-52.087,30.332l-69.29-39.319c-19.637-11.143-41.83-17.001-64.408-17.001H74.315
	c-14.688,0-26.595-11.907-26.595-26.595v-125.56c0-14.688,11.907-26.595,26.595-26.595h121.916
	C218.81,138.614,241.002,132.756,260.64,121.613z"/>
<path style="fill:#609AD6;" d="M329.93,82.293l-14.648,8.312v274.767l14.648,8.312c23.249,13.193,52.087-3.6,52.087-30.332V112.625
	C382.017,85.894,353.179,69.1,329.93,82.293z"/>
<g>
	<path style="fill:#495059;" d="M119.754,280.367h-19.276c-4.142,0-7.5-3.358-7.5-7.5s3.358-7.5,7.5-7.5h19.276
		c4.142,0,7.5,3.358,7.5,7.5S123.896,280.367,119.754,280.367z"/>
	<path style="fill:#495059;" d="M119.754,256.917h-19.276c-4.142,0-7.5-3.358-7.5-7.5s3.358-7.5,7.5-7.5h19.276
		c4.142,0,7.5,3.358,7.5,7.5S123.896,256.917,119.754,256.917z"/>
</g>
<g>
	<ellipse style="fill:#EC7887;" cx="107.82" cy="208.58" rx="25.23" ry="20.1"/>
	<ellipse style="fill:#EC7887;" cx="244.6" cy="208.58" rx="25.23" ry="20.1"/>
</g>
<g>
	<path style="fill:#495059;" d="M112.039,192.356c-4.142,0-7.5-3.358-7.5-7.5v-10.832c0-4.142,3.358-7.5,7.5-7.5s7.5,3.358,7.5,7.5
		v10.832C119.539,188.998,116.181,192.356,112.039,192.356z"/>
	<path style="fill:#495059;" d="M176.211,211.427L176.211,211.427c-10.097,0-18.283-8.186-18.283-18.283v-13.292
		c0-2.756,2.234-4.991,4.991-4.991h26.584c2.756,0,4.991,2.235,4.991,4.991v13.292C194.493,203.241,186.308,211.427,176.211,211.427
		z"/>
	<path style="fill:#495059;" d="M240.383,192.356c-4.142,0-7.5-3.358-7.5-7.5v-10.832c0-4.142,3.358-7.5,7.5-7.5s7.5,3.358,7.5,7.5
		v10.832C247.883,188.998,244.525,192.356,240.383,192.356z"/>
</g>
<path style="opacity:0.1;enable-background:new    ;" d="M170.192,280.606c-75.641-5.992-72.116-81.978-70.202-141.992H74.315
	c-14.688,0-26.595,11.907-26.595,26.595v125.56c0,14.688,11.907,26.595,26.595,26.595h121.916c22.579,0,44.771,5.858,64.408,17.001
	l69.29,39.319c23.249,13.193,52.087-3.6,52.087-30.332v-1.813C338.131,352.191,286.438,289.814,170.192,280.606z"/>
<path style="fill:#5B6EA2;" d="M107.123,420.488c2.63,8.229,10.278,13.814,18.917,13.814h30.923c8.954,0,15.318-8.715,12.592-17.244
	l-5.479-17.141h-63.529L107.123,420.488z"/>
<g>
	<path style="fill:#B8DBFF;" d="M437.474,322.49c-1.919,0-3.839-0.732-5.303-2.197c-2.929-2.929-2.929-7.678,0-10.607
		c40.796-40.796,40.796-107.176,0-147.972c-2.929-2.929-2.929-7.678,0-10.606c2.929-2.929,7.678-2.929,10.606,0
		c46.645,46.644,46.645,122.54,0,169.185C441.313,321.758,439.393,322.49,437.474,322.49z"/>
	<path style="fill:#B8DBFF;" d="M461.645,346.662c-1.919,0-3.839-0.732-5.303-2.197c-2.929-2.929-2.929-7.678,0-10.606
		C482.56,307.64,497,272.78,497,235.701s-14.44-71.939-40.658-98.158c-2.929-2.929-2.929-7.678,0-10.607
		c2.929-2.929,7.678-2.929,10.606,0C496,155.989,512,194.615,512,235.701c0,41.085-16,79.712-45.052,108.764
		C465.484,345.929,463.564,346.662,461.645,346.662z"/>
	<path style="fill:#B8DBFF;" d="M413.302,298.319c-1.919,0-3.839-0.732-5.303-2.197c-2.929-2.929-2.929-7.678,0-10.607
		c27.468-27.468,27.468-72.162,0-99.629c-2.929-2.929-2.929-7.678,0-10.606c2.929-2.929,7.678-2.929,10.607,0
		c33.316,33.316,33.316,87.526,0,120.842C417.141,297.586,415.222,298.319,413.302,298.319z"/>
</g>
<g>
</g>
<g>
</g>
<g>
</g>
<g>
</g>
<g>
</g>
<g>
</g>
<g>
</g>
<g>
</g>
<g>
</g>
<g>
</g>
<g>
</g>
<g>
</g>
<g>
</g>
<g>
</g>
<g>
</g>
</svg>
