<?xml version="1.0" encoding="iso-8859-1"?>
<!-- Generator: Adobe Illustrator 19.0.0, SVG Export Plug-In . SVG Version: 6.00 Build 0)  -->
<svg version="1.1" id="Capa_1" xmlns="http://www.w3.org/2000/svg" xmlns:xlink="http://www.w3.org/1999/xlink" x="0px" y="0px"
	 viewBox="0 0 512 512" style="enable-background:new 0 0 512 512;" xml:space="preserve">
<path style="fill:#EC7887;" d="M295.614,104.711h-79.229l-53.13,296.845c-2.49,13.91,1.867,28.169,11.706,38.312l62.26,64.185
	c10.278,10.596,27.281,10.596,37.559,0l62.26-64.185c9.839-10.143,14.196-24.402,11.706-38.312L295.614,104.711z"/>
<path style="fill:#FDE27C;" d="M310.538,188.095L177.681,320.953l-14.427,80.603c-2.49,13.91,1.867,28.169,11.706,38.312
	l12.478,12.864l144.587-144.587L310.538,188.095z"/>
<g style="opacity:0.1;">
	<path d="M234.298,177.08c-0.335,0-0.672-0.022-1.013-0.068c-4.104-0.554-6.983-4.33-6.43-8.435l7.309-54.161
		c0.554-4.106,4.333-6.983,8.436-6.43c4.105,0.554,6.983,4.33,6.43,8.436l-7.309,54.161
		C241.213,174.346,237.994,177.08,234.298,177.08z"/>
	<path d="M277.7,177.08c-3.696,0-6.915-2.733-7.423-6.498l-7.309-54.161c-0.554-4.105,2.325-7.882,6.43-8.436
		c4.104-0.553,7.883,2.325,8.436,6.43l7.309,54.161c0.554,4.105-2.325,7.882-6.43,8.435
		C278.373,177.057,278.034,177.08,277.7,177.08z"/>
</g>
<path style="fill:#C58F85;" d="M338.195,267.932H275.46c-4.876,0-8.829-3.953-8.829-8.829v-14.661c0-4.876,3.953-8.829,8.829-8.829
	h62.735c4.876,0,8.829,3.953,8.829,8.829v14.661C347.024,263.979,343.071,267.932,338.195,267.932z"/>
<path style="opacity:0.1;enable-background:new    ;" d="M274.779,504.053l30.336-31.274
	c-120.085-51.484-73.696-308.292-62.681-368.068h-26.049l-53.131,296.845c-2.49,13.91,1.867,28.169,11.706,38.312l62.26,64.185
	C247.497,514.649,264.501,514.649,274.779,504.053z"/>
<path style="fill:#EC7887;" d="M289.905,0h-67.812c-3.48,0-6.803,1.449-9.172,3.999l-35.189,37.879
	c-5.891,6.341-6.942,15.789-2.59,23.27l32.046,55.08c2.242,3.853,6.363,6.224,10.821,6.224h75.981c4.458,0,8.579-2.37,10.821-6.224
	l32.046-55.08c4.353-7.481,3.301-16.929-2.59-23.27l-35.19-37.879C296.709,1.449,293.385,0,289.905,0z"/>
<path style="fill:#FDE27C;" d="M207.187,120.228c2.242,3.853,6.363,6.223,10.821,6.223h75.981c4.149,0,7.986-2.071,10.308-5.462
	L200.585,17.277l-22.854,24.601c-5.891,6.341-6.942,15.789-2.59,23.27L207.187,120.228z"/>
<path style="opacity:0.1;enable-background:new    ;" d="M207.187,120.228c2.242,3.853,6.363,6.223,10.821,6.223h61.623
	C228.111,109.025,225.822,34.306,233.672,0h-11.579c-3.48,0-6.804,1.449-9.172,3.999l-35.189,37.879
	c-5.891,6.341-6.942,15.789-2.59,23.27L207.187,120.228z"/>
<g>
</g>
<g>
</g>
<g>
</g>
<g>
</g>
<g>
</g>
<g>
</g>
<g>
</g>
<g>
</g>
<g>
</g>
<g>
</g>
<g>
</g>
<g>
</g>
<g>
</g>
<g>
</g>
<g>
</g>
</svg>
