<?xml version="1.0" encoding="iso-8859-1"?>
<!-- Generator: Adobe Illustrator 19.0.0, SVG Export Plug-In . SVG Version: 6.00 Build 0)  -->
<svg version="1.1" id="Capa_1" xmlns="http://www.w3.org/2000/svg" xmlns:xlink="http://www.w3.org/1999/xlink" x="0px" y="0px"
	 viewBox="0 0 512 512" style="enable-background:new 0 0 512 512;" xml:space="preserve">
<path style="fill:#C58F85;" d="M181.777,481.384c-3.236-3.236-6.287-6.706-9.132-10.4c-37.999-49.342-82.287-93.63-131.629-131.629
	C14.946,319.278,0,288.9,0,256c0-32.899,14.95-63.281,41.016-83.354c49.343-38.001,93.629-82.287,131.63-131.63
	C192.719,14.95,223.1,0,256,0s63.28,14.941,83.355,41.016c37.999,49.342,82.287,93.63,131.629,131.629
	C497.056,192.721,512,223.101,512,256s-14.95,63.28-41.016,83.354c-49.343,38-93.629,82.287-131.63,131.63
	C319.281,497.05,288.9,512,256,512C227.763,512,201.379,500.987,181.777,481.384z M192.218,455.912
	c15.361,19.94,38.607,31.384,63.782,31.384s48.422-11.44,63.783-31.385c39.298-51.03,85.099-96.831,136.129-136.129
	c19.945-15.361,31.384-38.608,31.385-63.783c-0.001-25.175-11.443-48.426-31.384-63.782c-51.03-39.298-96.831-85.1-136.13-136.129
	C304.422,36.149,281.175,24.704,256,24.704s-48.422,11.44-63.783,31.385c-39.298,51.03-85.099,96.831-136.129,136.129
	C36.144,207.578,24.704,230.825,24.704,256c0,25.174,11.439,48.422,31.384,63.782C107.118,359.08,152.92,404.882,192.218,455.912
	L192.218,455.912z"/>
<g>
	<path style="fill:#5B6EA2;" d="M429.895,110.856l-28.75-28.75c-3.441-3.441-9.019-3.441-12.46,0l-33.072,33.072l41.21,41.21
		l33.072-33.072C433.336,119.875,433.336,114.296,429.895,110.856z"/>
	<path style="fill:#5B6EA2;" d="M110.855,82.105l-28.75,28.75c-3.441,3.441-3.441,9.019,0,12.46l33.072,33.072l41.21-41.21
		l-33.072-33.072C119.875,78.664,114.296,78.664,110.855,82.105z"/>
	<path style="fill:#5B6EA2;" d="M82.105,401.145l28.75,28.75c3.441,3.441,9.019,3.441,12.46,0l33.072-33.072l-41.21-41.21
		l-33.072,33.072C78.664,392.125,78.664,397.704,82.105,401.145z"/>
	<path style="fill:#5B6EA2;" d="M401.145,429.895l28.75-28.75c3.441-3.441,3.441-9.019,0-12.46l-33.072-33.072l-41.21,41.21
		l33.072,33.072C392.125,433.336,397.704,433.336,401.145,429.895z"/>
</g>
<path id="SVGCleanerId_0" style="fill:#EEF0F1;" d="M383.448,128.553c-70.387-70.387-184.508-70.387-254.895,0
	s-70.387,184.508,0,254.895s184.508,70.387,254.895,0C453.835,313.06,453.835,198.94,383.448,128.553z M198.891,313.109
	c-31.54-31.54-31.54-82.677,0-114.217s82.677-31.54,114.217,0s31.54,82.677,0,114.217S230.432,344.649,198.891,313.109z"/>
<g>
	<path id="SVGCleanerId_0_1_" style="fill:#EEF0F1;" d="M383.448,128.553c-70.387-70.387-184.508-70.387-254.895,0
		s-70.387,184.508,0,254.895s184.508,70.387,254.895,0C453.835,313.06,453.835,198.94,383.448,128.553z M198.891,313.109
		c-31.54-31.54-31.54-82.677,0-114.217s82.677-31.54,114.217,0s31.54,82.677,0,114.217S230.432,344.649,198.891,313.109z"/>
</g>
<path style="fill:#EC7887;" d="M420.905,328.841l-85.376-58.864c-2.762,15.796-10.221,30.932-22.421,43.132
	c-12.2,12.2-27.336,19.659-43.132,22.421l58.864,85.375c19.812-8.745,38.374-21.225,54.606-37.458
	C399.68,367.215,412.16,348.653,420.905,328.841z M183.159,91.095c-19.812,8.745-38.374,21.225-54.606,37.458
	c-16.233,16.233-28.712,34.794-37.458,54.606l85.375,58.864c2.762-15.796,10.221-30.931,22.421-43.132
	c12.2-12.2,27.336-19.659,43.132-22.421L183.159,91.095z M198.891,313.109c-12.2-12.2-19.66-27.336-22.421-43.132l-85.375,58.864
	c8.745,19.812,21.225,38.374,37.458,54.606s34.794,28.712,54.606,37.458l58.864-85.375
	C226.227,332.768,211.092,325.309,198.891,313.109z M328.841,91.095l-58.864,85.375c15.796,2.762,30.932,10.221,43.132,22.421
	c12.2,12.2,19.659,27.336,22.421,43.132l85.375-58.864c-8.745-19.812-21.225-38.374-37.458-54.606S348.653,99.84,328.841,91.095z"/>
<g style="opacity:0.1;">
	<path d="M179.85,440.324c-0.201,0.163-0.396,0.338-0.584,0.525l-17.006,17.007c3.149,3.899,6.268,7.824,9.336,11.789
		c0.24-0.188,0.475-0.386,0.696-0.607l16.939-16.94C186.143,448.141,183.017,444.216,179.85,440.324z"/>
	<path d="M24.704,256c0-2.516,0.12-5.011,0.345-7.482c-0.115-0.005-0.228-0.017-0.345-0.017H0.271C0.098,250.984,0,253.483,0,256
		s0.098,5.017,0.271,7.501h24.433c0.117,0,0.23-0.012,0.345-0.017C24.823,261.012,24.704,258.516,24.704,256z"/>
	<path d="M332.733,440.849c-0.187-0.187-0.383-0.362-0.584-0.525c-3.166,3.892-6.293,7.818-9.381,11.774l16.94,16.94
		c0.221,0.221,0.455,0.419,0.695,0.607c3.069-3.965,6.187-7.891,9.336-11.789L332.733,440.849z"/>
	<path d="M511.729,248.5h-24.433c-0.116,0-0.23,0.012-0.345,0.017c0.226,2.472,0.345,4.967,0.345,7.483
		c0,2.516-0.12,5.011-0.345,7.482c0.115,0.005,0.228,0.017,0.345,0.017h24.433c0.173-2.483,0.271-4.983,0.271-7.499
		C512,253.483,511.902,250.984,511.729,248.5z"/>
	<path d="M469.038,339.709l-16.94-16.94c-3.957,3.088-7.882,6.215-11.775,9.381c0.163,0.201,0.337,0.396,0.524,0.582l17.008,17.008
		c3.899-3.15,7.824-6.268,11.79-9.336C469.457,340.164,469.259,339.93,469.038,339.709z"/>
	<path d="M59.902,322.769l-16.94,16.94c-0.221,0.221-0.419,0.455-0.607,0.695c3.965,3.069,7.89,6.187,11.79,9.336l17.007-17.008
		c0.187-0.187,0.361-0.382,0.525-0.583C67.784,328.984,63.859,325.857,59.902,322.769z"/>
	<path d="M248.5,0.271v24.433c0,0.117,0.012,0.23,0.017,0.345c2.471-0.226,4.967-0.345,7.483-0.345c2.516,0,5.011,0.12,7.483,0.345
		c0.005-0.115,0.017-0.229,0.017-0.345V0.271C261.016,0.098,258.516,0,256,0C253.483,0,250.984,0.098,248.5,0.271z"/>
	<path d="M42.962,172.291l16.94,16.94c3.957-3.088,7.882-6.215,11.775-9.381c-0.163-0.201-0.337-0.396-0.525-0.583L54.145,162.26
		c-3.899,3.15-7.824,6.268-11.79,9.336C42.543,171.836,42.741,172.07,42.962,172.291z"/>
	<path d="M452.098,189.231l16.94-16.94c0.221-0.221,0.419-0.455,0.607-0.695c-3.965-3.069-7.89-6.187-11.79-9.336l-17.008,17.008
		c-0.187,0.187-0.361,0.382-0.524,0.583C444.216,183.017,448.141,186.143,452.098,189.231z"/>
	<path d="M263.5,511.729v-24.433c0-0.117-0.012-0.23-0.017-0.345c-2.471,0.226-4.967,0.345-7.483,0.345
		c-2.516,0-5.011-0.12-7.483-0.345c-0.005,0.115-0.017,0.228-0.017,0.345v24.439c2.483,0.173,4.984,0.265,7.5,0.265
		C258.517,512,261.016,511.902,263.5,511.729z"/>
	<path d="M179.267,71.151c0.187,0.187,0.383,0.362,0.584,0.525c3.166-3.892,6.293-7.818,9.381-11.774l-16.94-16.94
		c-0.221-0.221-0.455-0.419-0.695-0.607c-3.069,3.965-6.187,7.891-9.336,11.79L179.267,71.151z"/>
	<path d="M332.15,71.677c0.201-0.163,0.396-0.338,0.584-0.525l17.006-17.007c-3.149-3.899-6.267-7.824-9.336-11.789
		c-0.24,0.188-0.474,0.386-0.696,0.607l-16.939,16.94C325.857,63.859,328.983,67.784,332.15,71.677z"/>
</g>
<path style="opacity:0.1;enable-background:new    ;" d="M402.425,349.152c-66.157,66.157-173.419,66.157-239.576,0
	s-66.157-173.419,0-239.576c7.62-7.621,15.792-14.352,24.378-20.217c-21.339,8.796-41.335,21.855-58.674,39.194
	c-70.387,70.387-70.387,184.508,0,254.895s184.508,70.387,254.895,0c17.339-17.339,30.397-37.335,39.194-58.674
	C416.776,333.36,410.045,341.531,402.425,349.152z"/>
<g>
</g>
<g>
</g>
<g>
</g>
<g>
</g>
<g>
</g>
<g>
</g>
<g>
</g>
<g>
</g>
<g>
</g>
<g>
</g>
<g>
</g>
<g>
</g>
<g>
</g>
<g>
</g>
<g>
</g>
</svg>
