<?xml version="1.0" encoding="iso-8859-1"?>
<!-- Generator: Adobe Illustrator 19.0.0, SVG Export Plug-In . SVG Version: 6.00 Build 0)  -->
<svg version="1.1" id="Capa_1" xmlns="http://www.w3.org/2000/svg" xmlns:xlink="http://www.w3.org/1999/xlink" x="0px" y="0px"
	 viewBox="0 0 512 512" style="enable-background:new 0 0 512 512;" xml:space="preserve">
<path style="fill:#609AD6;" d="M406.08,211.848c-23.712-23.712-29.7-34.841-24.559-44.553c13.867-26.193,42.047-36.724,68.158-38.03
	c22.053-1.103,40.087,16.931,38.984,38.984c-1.306,26.111-11.837,54.291-38.03,68.158
	C440.922,241.548,429.792,235.56,406.08,211.848z"/>
<path style="opacity:0.1;enable-background:new    ;" d="M381.179,180.502c15.048-14.52,36.113-20.867,55.986-21.861
	c22.052-1.103,40.087,16.931,38.984,38.984c-0.302,6.03-1.103,12.17-2.468,18.219c-5.739,8.271-13.309,15.407-23.047,20.563
	c-9.711,5.141-20.841-0.847-44.553-24.559C391.951,197.719,384.117,188.058,381.179,180.502z"/>
<circle style="fill:#5B6EA2;" cx="260.929" cy="79.3" r="79.3"/>
<g>
	<path style="fill:#B8DBFF;" d="M266.985,113.403h-25.41c-4.142,0-7.5-3.358-7.5-7.5s3.358-7.5,7.5-7.5h25.41
		c3.199,0,5.803-2.604,5.803-5.803s-2.604-5.803-5.803-5.803h-12.106c-11.471,0-20.803-9.332-20.803-20.803
		s9.333-20.803,20.803-20.803h25.409c4.142,0,7.5,3.358,7.5,7.5s-3.358,7.5-7.5,7.5h-25.409c-3.2,0-5.803,2.604-5.803,5.803
		c0,3.199,2.604,5.803,5.803,5.803h12.106c11.471,0,20.803,9.332,20.803,20.803C287.788,104.07,278.456,113.403,266.985,113.403z"/>
	<path style="fill:#B8DBFF;" d="M260.932,60.19c-4.142,0-7.5-3.358-7.5-7.5V36.021c0-4.142,3.358-7.5,7.5-7.5s7.501,3.358,7.501,7.5
		V52.69C268.433,56.832,265.074,60.19,260.932,60.19z"/>
	<path style="fill:#B8DBFF;" d="M260.932,130.071c-4.142,0-7.5-3.358-7.5-7.5v-16.668c0-4.142,3.358-7.5,7.5-7.5
		s7.501,3.358,7.501,7.5v16.668C268.433,126.713,265.074,130.071,260.932,130.071z"/>
</g>
<path style="opacity:0.1;enable-background:new    ;" d="M318.972,133.319C207.369,140.664,207.039,32.891,253.077,0.387
	c-40.106,3.944-71.441,37.766-71.441,78.909c0,43.794,35.502,79.296,79.296,79.296C283.851,158.593,304.495,148.865,318.972,133.319
	z"/>
<path style="fill:#609AD6;" d="M75.04,296.25c-28.537,0-51.752-23.216-51.752-51.752c0-13.824,5.383-26.82,15.158-36.595
	c5.077-5.077,13.308-5.077,18.385,0s5.077,13.308,0,18.385c-4.864,4.864-7.543,11.331-7.543,18.21
	c0,14.2,11.552,25.752,25.752,25.752c7.18,0,13,5.82,13,13S82.219,296.25,75.04,296.25z"/>
<path style="fill:#B8DBFF;" d="M380.3,512h-26.587c-18.181,0-32.919-14.738-32.919-32.919v-80.12h92.425v80.12
	C413.219,497.262,398.481,512,380.3,512z"/>
<path style="opacity:0.1;enable-background:new    ;" d="M380.3,512h-26.587c-18.181,0-32.919-14.738-32.919-32.919v-80.12h92.425
	v80.12C413.219,497.262,398.481,512,380.3,512z"/>
<g>
	<path style="fill:#B8DBFF;" d="M159.304,512h-26.587c-18.181,0-32.919-14.738-32.919-32.919v-80.12h92.425v80.12
		C192.223,497.262,177.485,512,159.304,512z"/>
	<path style="fill:#B8DBFF;" d="M287.875,512h-26.587c-18.181,0-32.919-14.738-32.919-32.919v-80.12h92.425v80.12
		C320.794,497.262,306.056,512,287.875,512z"/>
	<path style="fill:#B8DBFF;" d="M484.045,296.919c0,92.619-62.22,167.702-209.464,167.702c-177.16,0-209.464-75.083-209.464-167.702
		s93.78-167.702,209.464-167.702S484.045,204.3,484.045,296.919z"/>
</g>
<path style="opacity:0.05;enable-background:new    ;" d="M222.325,134.479c-90.398,18.586-157.207,84.266-157.207,162.44
	c0,92.619,32.304,167.702,209.464,167.702c44.33,0,80.941-6.814,110.48-18.854C159.285,494,149.719,204.521,222.325,134.479z"/>
<g style="opacity:0.05;">
	<circle cx="121.549" cy="323.92" r="25.751"/>
	<circle cx="172.059" cy="394.56" r="16.17"/>
</g>
<g>
	<ellipse style="fill:#FFFFFF;" cx="299.149" cy="246.32" rx="24.927" ry="19.851"/>
	<ellipse style="fill:#FFFFFF;" cx="434.259" cy="246.32" rx="24.927" ry="19.851"/>
</g>
<g>
	<path style="fill:#495059;" d="M313.677,234.016c-4.142,0-7.5-3.358-7.5-7.5v-8.802c0-4.142,3.358-7.5,7.5-7.5
		c4.143,0,7.5,3.358,7.5,7.5v8.802C321.177,230.658,317.819,234.016,313.677,234.016z"/>
	<path style="fill:#495059;" d="M419.734,234.016c-4.143,0-7.5-3.358-7.5-7.5v-8.802c0-4.142,3.357-7.5,7.5-7.5
		c4.142,0,7.5,3.358,7.5,7.5v8.802C427.234,230.658,423.877,234.016,419.734,234.016z"/>
</g>
<g>
	<path style="fill:#609AD6;" d="M377.686,261.792c24.306,0,58.451,26.994,62.463,67.215c3.316,33.244-27.966,36.848-62.463,36.848
		s-65.78-3.603-62.463-36.848C319.235,288.786,353.38,261.792,377.686,261.792z"/>
	<path style="fill:#609AD6;" d="M260.619,211.848c23.712-23.712,29.7-34.841,24.559-44.553
		c-13.867-26.193-42.047-36.724-68.158-38.03c-22.053-1.103-40.087,16.931-38.984,38.984c1.306,26.111,11.837,54.291,38.03,68.158
		C225.778,241.548,236.907,235.56,260.619,211.848z"/>
</g>
<path style="opacity:0.1;enable-background:new    ;" d="M285.52,180.502c-15.048-14.52-36.113-20.867-55.986-21.861
	c-22.052-1.103-40.087,16.931-38.984,38.984c0.302,6.03,1.103,12.17,2.468,18.219c5.739,8.271,13.309,15.407,23.047,20.563
	c9.711,5.141,20.841-0.847,44.553-24.559C274.748,197.719,282.582,188.058,285.52,180.502z"/>
<g>
	<path style="fill:#5B6EA2;" d="M357.695,334.164c-4.143,0-7.5-3.358-7.5-7.5v-14.066c0-4.142,3.357-7.5,7.5-7.5s7.5,3.358,7.5,7.5
		v14.066C365.195,330.806,361.838,334.164,357.695,334.164z"/>
	<path style="fill:#5B6EA2;" d="M397.677,334.164c-4.142,0-7.5-3.358-7.5-7.5v-14.066c0-4.142,3.358-7.5,7.5-7.5
		c4.143,0,7.5,3.358,7.5,7.5v14.066C405.177,330.806,401.819,334.164,397.677,334.164z"/>
</g>
<g>
</g>
<g>
</g>
<g>
</g>
<g>
</g>
<g>
</g>
<g>
</g>
<g>
</g>
<g>
</g>
<g>
</g>
<g>
</g>
<g>
</g>
<g>
</g>
<g>
</g>
<g>
</g>
<g>
</g>
</svg>
