<?xml version="1.0" encoding="iso-8859-1"?>
<!-- Generator: Adobe Illustrator 19.0.0, SVG Export Plug-In . SVG Version: 6.00 Build 0)  -->
<svg version="1.1" id="Capa_1" xmlns="http://www.w3.org/2000/svg" xmlns:xlink="http://www.w3.org/1999/xlink" x="0px" y="0px"
	 viewBox="0 0 512 512" style="enable-background:new 0 0 512 512;" xml:space="preserve">
<path style="fill:#495059;" d="M346.468,168.98c-9.147,0-17.315-6.458-19.142-15.772l-11.314-57.65
	c-1.869-9.525-10.27-16.437-19.976-16.437h-80.071c-9.706,0-18.107,6.913-19.976,16.437l-11.314,57.65
	c-2.077,10.584-12.338,17.48-22.924,15.402c-10.583-2.077-17.479-12.34-15.402-22.924l11.314-57.65
	c5.455-27.797,29.975-47.973,58.303-47.973h80.071c28.328,0,52.848,20.176,58.303,47.973l11.314,57.65
	c2.077,10.584-4.819,20.847-15.402,22.924C348.98,168.859,347.714,168.98,346.468,168.98z"/>
<path style="fill:#C58F85;" d="M462.677,471.937H49.323c-16.149,0-29.24-13.091-29.24-29.24V192.611h471.834v250.086
	C491.917,458.846,478.826,471.937,462.677,471.937z"/>
<path style="opacity:0.1;enable-background:new    ;" d="M462.677,471.937H49.323c-16.149,0-29.24-13.091-29.24-29.24V192.611
	h471.834v250.086C491.917,458.846,478.826,471.937,462.677,471.937z"/>
<path style="opacity:0.1;enable-background:new    ;" d="M223.364,192.611H20.083v250.086c0,16.149,13.091,29.24,29.24,29.24
	h265.316c-66.637-38.603-92.156-153.333-91.275-196.949L223.364,192.611L223.364,192.611z"/>
<path style="fill:#C58F85;" d="M488.042,278.407l-200.96,56.757c-20.324,5.74-41.841,5.74-62.165,0l-200.96-56.757
	C9.786,274.405,0,261.472,0,246.746v-67.324c0-15.117,12.254-27.371,27.371-27.371h457.258c15.117,0,27.371,12.254,27.371,27.371
	v67.324C512,261.472,502.214,274.405,488.042,278.407z"/>
<g>
	<ellipse style="fill:#FFFFFF;" cx="178.24" cy="244.81" rx="28.694" ry="22.85"/>
	<ellipse style="fill:#FFFFFF;" cx="333.76" cy="244.81" rx="28.694" ry="22.85"/>
</g>
<g>
	<path style="fill:#495059;" d="M208.615,227.441c-4.142,0-7.5-3.358-7.5-7.5c0-3.396-2.762-6.158-6.157-6.158
		c-3.396,0-6.158,2.762-6.158,6.158c0,4.142-3.358,7.5-7.5,7.5s-7.5-3.358-7.5-7.5c0-11.667,9.491-21.158,21.158-21.158
		c11.666,0,21.157,9.491,21.157,21.158C216.115,224.083,212.757,227.441,208.615,227.441z"/>
	<path style="fill:#495059;" d="M330.7,227.441c-4.142,0-7.5-3.358-7.5-7.5c0-3.396-2.762-6.158-6.158-6.158
		c-3.395,0-6.157,2.762-6.157,6.158c0,4.142-3.358,7.5-7.5,7.5s-7.5-3.358-7.5-7.5c0-11.667,9.491-21.158,21.157-21.158
		c11.667,0,21.158,9.491,21.158,21.158C338.2,224.083,334.842,227.441,330.7,227.441z"/>
	<path style="fill:#495059;" d="M256,250.004c-7.72,0-15.062-3.343-20.142-9.173c-2.721-3.123-2.396-7.86,0.727-10.582
		c3.123-2.721,7.86-2.397,10.582,0.727c2.23,2.56,5.45,4.027,8.833,4.027s6.602-1.468,8.833-4.027
		c2.721-3.124,7.459-3.448,10.582-0.727c3.123,2.722,3.448,7.459,0.727,10.582C271.061,246.661,263.72,250.004,256,250.004z"/>
</g>
<path style="opacity:0.1;enable-background:new    ;" d="M160.858,152.051H27.371C12.254,152.051,0,164.306,0,179.422v67.324
	c0,14.726,9.786,27.659,23.958,31.661l185.346,52.347C157.695,285.889,152.901,209.114,160.858,152.051z"/>
<g style="opacity:0.1;">
	<path d="M40.685,262.241c-0.675,0-1.361-0.092-2.042-0.284l-9.297-2.626c-3.986-1.126-6.305-5.27-5.179-9.256
		c1.127-3.986,5.273-6.304,9.256-5.179l9.297,2.626c3.986,1.126,6.305,5.27,5.179,9.256
		C46.966,260.083,43.958,262.241,40.685,262.241z"/>
	<path d="M96.68,278.056c-0.675,0-1.361-0.092-2.043-0.284l-18.295-5.167c-3.986-1.126-6.305-5.27-5.179-9.256
		c1.126-3.986,5.271-6.305,9.256-5.179l18.296,5.167c3.986,1.126,6.305,5.27,5.179,9.256
		C102.96,275.897,99.952,278.056,96.68,278.056z"/>
	<path d="M151.935,293.661c-0.675,0-1.361-0.092-2.042-0.284l-18.665-5.271c-3.986-1.126-6.305-5.27-5.179-9.256
		c1.126-3.986,5.27-6.305,9.256-5.179l18.665,5.271c3.986,1.126,6.305,5.27,5.179,9.256
		C158.215,291.502,155.207,293.661,151.935,293.661z"/>
	<path d="M208.619,309.67c-0.675,0-1.361-0.092-2.042-0.284l-17.337-4.896c-3.986-1.126-6.305-5.27-5.179-9.256
		c1.126-3.986,5.27-6.303,9.256-5.179l17.337,4.897c3.986,1.126,6.305,5.27,5.179,9.256
		C214.899,307.512,211.892,309.67,208.619,309.67z"/>
	<path d="M471.314,262.241c-3.272,0-6.28-2.159-7.214-5.463c-1.125-3.986,1.193-8.13,5.179-9.256l9.297-2.626
		c3.988-1.124,8.131,1.193,9.256,5.179c1.126,3.986-1.193,8.13-5.179,9.256l-9.297,2.626
		C472.675,262.149,471.989,262.241,471.314,262.241z"/>
	<path d="M415.32,278.056c-3.273,0-6.28-2.159-7.214-5.463c-1.125-3.986,1.193-8.13,5.179-9.256l18.296-5.167
		c3.987-1.124,8.131,1.193,9.256,5.179c1.126,3.986-1.193,8.13-5.179,9.256l-18.295,5.167
		C416.682,277.964,415.995,278.056,415.32,278.056z"/>
	<path d="M360.065,293.661c-3.273,0-6.28-2.159-7.214-5.463c-1.126-3.986,1.193-8.13,5.179-9.256l18.664-5.271
		c3.984-1.126,8.131,1.193,9.256,5.179s-1.193,8.13-5.179,9.256l-18.665,5.271C361.427,293.569,360.74,293.661,360.065,293.661z"/>
	<path d="M303.381,309.67c-3.273,0-6.28-2.159-7.214-5.463c-1.126-3.986,1.193-8.13,5.179-9.256l17.337-4.897
		c3.986-1.124,8.13,1.193,9.256,5.179c1.125,3.986-1.193,8.13-5.179,9.256l-17.337,4.896
		C304.742,309.579,304.056,309.67,303.381,309.67z"/>
	<path d="M256,319.647c-3.91,0-7.86-0.246-11.74-0.732c-4.11-0.515-7.025-4.263-6.51-8.373c0.514-4.109,4.256-7.023,8.374-6.51
		c6.528,0.817,13.226,0.817,19.754,0c4.114-0.511,7.859,2.4,8.373,6.51c0.515,4.11-2.4,7.859-6.51,8.373
		C263.86,319.401,259.91,319.647,256,319.647z"/>
</g>
<g>
	<path style="fill:#495059;" d="M126.426,350.38H92.657v-90.508c0-5.531,4.483-10.014,10.014-10.014h13.741
		c5.531,0,10.014,4.483,10.014,10.014C126.426,259.872,126.426,350.38,126.426,350.38z"/>
	<path style="fill:#495059;" d="M120.665,418.173H98.417c-3.182,0-5.761-2.579-5.761-5.761v-23.277h33.769v23.277
		C126.426,415.593,123.847,418.173,120.665,418.173z"/>
</g>
<path style="fill:#FDE27C;" d="M132.267,389.135H86.816c-5.686,0-10.295-4.609-10.295-10.294v-18.166
	c0-5.685,4.609-10.294,10.295-10.294h45.451c5.685,0,10.294,4.609,10.294,10.294v18.166
	C142.561,384.526,137.952,389.135,132.267,389.135z"/>
<g>
	<path style="fill:#495059;" d="M385.574,350.38h33.769v-90.508c0-5.531-4.484-10.014-10.014-10.014h-13.741
		c-5.531,0-10.014,4.483-10.014,10.014V350.38z"/>
	<path style="fill:#495059;" d="M391.335,418.173h22.248c3.182,0,5.761-2.579,5.761-5.761v-23.277h-33.769v23.277
		C385.574,415.593,388.153,418.173,391.335,418.173z"/>
</g>
<g>
	<path style="fill:#FDE27C;" d="M379.733,389.135h45.451c5.685,0,10.294-4.609,10.294-10.294v-18.166
		c0-5.685-4.609-10.294-10.294-10.294h-45.451c-5.685,0-10.294,4.609-10.294,10.294v18.166
		C369.439,384.526,374.048,389.135,379.733,389.135z"/>
	<path style="fill:#FDE27C;" d="M187.811,125.584h-37.049c-6.428,0-12.19,3.966-14.486,9.97l-6.307,16.497h78.634l-6.307-16.497
		C200.001,129.55,194.239,125.584,187.811,125.584z"/>
	<path style="fill:#FDE27C;" d="M324.189,125.584h37.049c6.428,0,12.19,3.966,14.486,9.97l6.307,16.497h-78.634l6.307-16.497
		C311.999,129.55,317.761,125.584,324.189,125.584z"/>
</g>
<g>
</g>
<g>
</g>
<g>
</g>
<g>
</g>
<g>
</g>
<g>
</g>
<g>
</g>
<g>
</g>
<g>
</g>
<g>
</g>
<g>
</g>
<g>
</g>
<g>
</g>
<g>
</g>
<g>
</g>
</svg>
