<?xml version="1.0" encoding="iso-8859-1"?>
<!-- Generator: Adobe Illustrator 19.0.0, SVG Export Plug-In . SVG Version: 6.00 Build 0)  -->
<svg version="1.1" id="Capa_1" xmlns="http://www.w3.org/2000/svg" xmlns:xlink="http://www.w3.org/1999/xlink" x="0px" y="0px"
	 viewBox="0 0 512 512" style="enable-background:new 0 0 512 512;" xml:space="preserve">
<g>
	<path style="fill:#B8DBFF;" d="M189.759,225.109H96.562c-12.233,0-22.512,8.368-25.426,19.692
		c-0.982,3.817-4.306,6.561-8.248,6.561H34.315c-14.235,0-26.359,11.069-26.865,25.295c-0.531,14.935,11.419,27.21,26.235,27.21
		h93.197c12.491,0,22.944-8.723,25.6-20.41c0.778-3.421,3.826-5.843,7.334-5.843h29.943c14.499,0,26.253-11.754,26.253-26.252l0,0
		C216.012,236.863,204.258,225.109,189.759,225.109z"/>
	<path style="fill:#B8DBFF;" d="M485.747,198.366H392.55c-12.234,0-22.513,8.368-25.426,19.692
		c-0.982,3.817-4.306,6.561-8.248,6.561h-28.574c-14.235,0-26.359,11.069-26.865,25.295c-0.531,14.935,11.419,27.21,26.236,27.21
		h93.197c12.491,0,22.944-8.723,25.6-20.41c0.778-3.421,3.826-5.843,7.334-5.843h29.943c14.499,0,26.253-11.754,26.253-26.253l0,0
		C512,210.12,500.246,198.366,485.747,198.366z"/>
</g>
<path style="fill:#C58F85;" d="M4.947,424.191l100.946-139.465c17.507-24.187,52.41-27.185,73.785-6.338l36.144,35.251
	c7.492,7.307,19.884,5.473,24.939-3.69l58.307-105.698c18.584-33.689,66.99-33.729,85.631-0.071l123.302,222.64
	c9.526,17.2-2.914,38.31-22.576,38.31H25.853C4.788,465.129-7.404,441.255,4.947,424.191z"/>
<g>
	<path style="fill:#EEF0F1;" d="M355.766,263.169c20.968,3.663,41.684,3.122,60.964-1.153l-32.031-57.837
		c-18.64-33.658-67.046-33.617-85.631,0.071l-33.57,60.855C293.966,269.877,310.279,255.223,355.766,263.169z"/>
	<path style="fill:#EEF0F1;" d="M138.102,317.448c26.145,4.568,51.856,1.78,74.193-7.249l-32.616-31.81
		c-21.376-20.848-56.278-17.85-73.785,6.338l-24.834,34.31C95.814,316.961,111.207,312.749,138.102,317.448z"/>
</g>
<path style="opacity:0.1;enable-background:new    ;" d="M195.667,465.129c-113.186-18.34-71.469-154.657-48.251-200.59
	c-15.673-0.591-31.467,6.295-41.522,20.187L4.947,424.191c-12.351,17.064-0.159,40.938,20.905,40.938H195.667z"/>
<path style="opacity:0.1;enable-background:new    ;" d="M343.094,178.998c-17.161-0.408-34.505,7.996-44.025,25.253
	l-58.307,105.698c-11.596,19.414-16.683,122.423,40.636,155.179H390.24C315.297,421.151,325.747,235.893,343.094,178.998z"/>
<path style="fill:#F7B96D;" d="M279.357,146.192h-67.056c-6.65,0-10.328-7.71-6.144-12.879l10.325-12.754
	c2.348-2.9,2.348-7.047,0-9.948l-10.325-12.754c-4.184-5.168-0.505-12.879,6.144-12.879h67.056c4.366,0,7.905,3.539,7.905,7.905
	v45.404C287.262,142.653,283.723,146.192,279.357,146.192z"/>
<path style="opacity:0.05;enable-background:new    ;" d="M279.357,84.978h-38.25c-0.316,17.361-2.307,48.344-13.543,61.214h51.793
	c4.366,0,7.905-3.539,7.905-7.905V92.883C287.262,88.517,283.723,84.978,279.357,84.978z"/>
<path style="fill:#FDE27C;" d="M341.115,115.585h-86.971c-4.366,0-7.905-3.539-7.905-7.905V62.276c0-4.366,3.539-7.905,7.905-7.905
	h86.971V115.585z"/>
<path style="fill:#495059;" d="M341.115,201.695c-4.142,0-7.5-3.358-7.5-7.5V54.371c0-4.142,3.358-7.5,7.5-7.5s7.5,3.358,7.5,7.5
	v139.824C348.615,198.337,345.257,201.695,341.115,201.695z"/>
<g style="opacity:0.1;">
	<path d="M81.053,401.821c-1.516,0-3.046-0.458-4.371-1.411c-3.363-2.418-4.129-7.105-1.712-10.468l16.774-23.333
		c2.418-3.364,7.104-4.13,10.468-1.712c3.363,2.418,4.129,7.104,1.712,10.468L87.15,398.698
		C85.684,400.736,83.385,401.821,81.053,401.821z"/>
	<path d="M184.34,377.821c-2.459,0-4.868-1.208-6.304-3.427l-7.333-11.333c-2.25-3.478-1.255-8.121,2.223-10.371
		c3.476-2.248,8.122-1.256,10.371,2.223l7.333,11.333c2.25,3.478,1.255,8.121-2.223,10.371
		C187.149,377.432,185.736,377.821,184.34,377.821z"/>
	<path d="M433.007,401.154c-2.424,0-4.802-1.173-6.247-3.341l-19.333-29c-2.298-3.446-1.367-8.103,2.08-10.4
		c3.446-2.297,8.103-1.367,10.4,2.08l19.334,29c2.298,3.446,1.367,8.103-2.08,10.4C435.882,400.746,434.437,401.154,433.007,401.154
		z"/>
	<path d="M311.808,329.546c-0.762,0-1.538-0.117-2.303-0.364c-3.942-1.271-6.108-5.497-4.837-9.439l5.86-18.178
		c1.272-3.942,5.495-6.109,9.44-4.837c3.942,1.271,6.108,5.497,4.837,9.439l-5.86,18.178
		C317.92,327.523,314.976,329.546,311.808,329.546z"/>
</g>
<path style="opacity:0.05;enable-background:new    ;" d="M296.178,115.585h44.937V54.371h-33.983
	C307.022,69.4,305.817,100.063,296.178,115.585z"/>
<g>
</g>
<g>
</g>
<g>
</g>
<g>
</g>
<g>
</g>
<g>
</g>
<g>
</g>
<g>
</g>
<g>
</g>
<g>
</g>
<g>
</g>
<g>
</g>
<g>
</g>
<g>
</g>
<g>
</g>
</svg>
