<?xml version="1.0" encoding="iso-8859-1"?>
<!-- Generator: Adobe Illustrator 19.0.0, SVG Export Plug-In . SVG Version: 6.00 Build 0)  -->
<svg version="1.1" id="Capa_1" xmlns="http://www.w3.org/2000/svg" xmlns:xlink="http://www.w3.org/1999/xlink" x="0px" y="0px"
	 viewBox="0 0 512 512" style="enable-background:new 0 0 512 512;" xml:space="preserve">
<path style="fill:#5B6EA2;" d="M469.59,512H42.41c-23.356,0-42.29-18.934-42.29-42.291V81.642c0-23.357,18.934-42.291,42.291-42.291
	H469.59c23.357,0,42.291,18.934,42.291,42.291v388.067C511.88,493.066,492.946,512,469.59,512z"/>
<path style="fill:#EEF0F1;" d="M378.308,481.254H57.682c-14.811,0-26.817-12.006-26.817-26.817V96.913
	c0-14.811,12.006-26.817,26.817-26.817h396.636c14.811,0,26.817,12.007,26.817,26.817v281.513L378.308,481.254z"/>
<path style="fill:#EC7887;" d="M511.88,179.478H0.12V81.642c0-23.357,18.934-42.291,42.291-42.291H469.59
	c23.357,0,42.291,18.934,42.291,42.291L511.88,179.478L511.88,179.478z"/>
<g>
	<ellipse style="fill:#FFFFFF;" cx="153.55" cy="130.04" rx="37.759" ry="30.07"/>
	<ellipse style="fill:#FFFFFF;" cx="358.21" cy="130.04" rx="37.759" ry="30.07"/>
</g>
<g>
	<path style="fill:#495059;" d="M175.554,107.54c-4.143,0-7.5-3.358-7.5-7.5V86.706c0-4.142,3.357-7.5,7.5-7.5s7.5,3.358,7.5,7.5
		v13.334C183.054,104.182,179.696,107.54,175.554,107.54z"/>
	<path style="fill:#495059;" d="M336.207,107.54c-4.142,0-7.5-3.358-7.5-7.5V86.706c0-4.142,3.358-7.5,7.5-7.5
		c4.143,0,7.5,3.358,7.5,7.5v13.334C343.707,104.182,340.35,107.54,336.207,107.54z"/>
	<path style="fill:#495059;" d="M255.881,117.779c-10.284,0-20.064-4.454-26.832-12.22c-2.722-3.123-2.395-7.86,0.727-10.582
		c3.122-2.721,7.859-2.396,10.582,0.727c3.919,4.497,9.577,7.076,15.523,7.076s11.605-2.579,15.523-7.076
		c2.722-3.123,7.457-3.448,10.582-0.727c3.122,2.722,3.448,7.459,0.727,10.582C275.944,113.325,266.165,117.779,255.881,117.779z"/>
</g>
<path style="fill:#609AD6;" d="M417,386.197h9.864c20.356,0,39.878-8.086,54.272-22.48l0,0v14.71
	c0,56.79-46.038,102.828-102.828,102.828h-14.71l0,0c14.394-14.394,22.48-33.916,22.48-54.272v-9.863
	C386.078,400.041,399.922,386.197,417,386.197z"/>
<path style="opacity:0.15;enable-background:new    ;" d="M0.12,179.478v41.595c0,15.417,15.586,25.946,29.889,20.192l6-2.414
	c7.539-3.033,16.141-1.613,22.305,3.682l0,0c9.255,7.95,22.016,10.433,33.577,6.532l33.592-11.334
	c7.336-2.475,15.284-2.459,22.61,0.045l28.627,9.786c9.677,3.308,20.314,2.238,29.138-2.93l10.2-5.974
	c9.587-5.615,21.265-6.368,31.494-2.029l21.255,9.015c8.433,3.577,17.929,3.721,26.467,0.401l27.891-10.845
	c8.975-3.49,18.989-3.145,27.704,0.954l26.749,12.582c8.965,4.217,19.293,4.455,28.443,0.656l27.139-11.268
	c7.841-3.256,16.596-3.564,24.646-0.867l25.357,8.494c14.1,4.723,28.678-5.769,28.678-20.638v-45.635H0.12z"/>
<path style="fill:#EEF0F1;" d="M0.12,179.478v17.379c0,15.417,15.586,25.946,29.889,20.192l6-2.414
	c7.539-3.033,16.141-1.613,22.305,3.682l0,0c9.255,7.95,22.016,10.432,33.577,6.532l33.592-11.334
	c7.336-2.475,15.284-2.459,22.61,0.045l28.627,9.786c9.677,3.308,20.314,2.238,29.138-2.93l10.2-5.974
	c9.587-5.615,21.265-6.368,31.494-2.03l21.255,9.015c8.433,3.577,17.929,3.721,26.467,0.401l27.891-10.845
	c8.975-3.49,18.989-3.145,27.704,0.954l26.749,12.582c8.965,4.217,19.293,4.455,28.443,0.656l27.139-11.268
	c7.841-3.256,16.596-3.564,24.646-0.867l25.357,8.494c14.1,4.723,28.678-5.769,28.678-20.638v-21.418H0.12z"/>
<path style="fill:#BDC0C3;" d="M255.881,441.793c-50.249,0-91.129-40.88-91.129-91.128s40.88-91.128,91.129-91.128
	c50.248,0,91.128,40.88,91.128,91.128S306.129,441.793,255.881,441.793z M255.881,274.537c-41.978,0-76.129,34.151-76.129,76.128
	s34.151,76.128,76.129,76.128c41.977,0,76.128-34.151,76.128-76.128S297.858,274.537,255.881,274.537z"/>
<path style="fill:#495059;" d="M261.403,395.306c-4.143,0-7.5-3.358-7.5-7.5v-58.691l-9.626,6.966
	c-3.354,2.427-8.044,1.677-10.473-1.679c-2.428-3.356-1.677-8.044,1.68-10.473l21.522-15.575c2.282-1.652,5.299-1.885,7.808-0.603
	c2.51,1.281,4.089,3.861,4.089,6.679v73.376C268.903,391.948,265.546,395.306,261.403,395.306z"/>
<path style="opacity:0.1;enable-background:new    ;" d="M139.632,39.351H42.41c-11.678,0-22.251,4.734-29.904,12.387
	c-0.957,0.957-1.868,1.959-2.729,3.003c-0.862,1.044-1.675,2.131-2.435,3.256c-4.56,6.75-7.223,14.887-7.223,23.645V469.71
	c0,8.291,2.395,16.018,6.517,22.545c0.958,1.518,2.002,2.977,3.14,4.356c0.862,1.044,1.773,2.047,2.729,3.003
	c5.262,5.262,11.903,9.143,19.335,11.055c0.676,0.174,1.358,0.331,2.046,0.472C36.64,511.704,39.491,512,42.41,512h335.936
	C110.642,455.852,131.81,129.926,139.632,39.351z"/>
<g>
	<path style="fill:#495059;" d="M75.584,90.436H68.34c-14.527,0-26.304-11.776-26.304-26.303v-37.83C42.036,11.776,53.813,0,68.34,0
		h7.244c14.527,0,26.304,11.776,26.304,26.303v37.829C101.888,78.659,90.111,90.436,75.584,90.436z"/>
	<path style="fill:#495059;" d="M436.416,90.436h7.244c14.527,0,26.304-11.776,26.304-26.303v-37.83
		C469.964,11.776,458.188,0,443.66,0h-7.244c-14.527,0-26.303,11.776-26.303,26.303v37.829
		C410.112,78.659,421.889,90.436,436.416,90.436z"/>
</g>
<g>
</g>
<g>
</g>
<g>
</g>
<g>
</g>
<g>
</g>
<g>
</g>
<g>
</g>
<g>
</g>
<g>
</g>
<g>
</g>
<g>
</g>
<g>
</g>
<g>
</g>
<g>
</g>
<g>
</g>
</svg>
