<?xml version="1.0" encoding="iso-8859-1"?>
<!-- Generator: Adobe Illustrator 19.0.0, SVG Export Plug-In . SVG Version: 6.00 Build 0)  -->
<svg version="1.1" id="Capa_1" xmlns="http://www.w3.org/2000/svg" xmlns:xlink="http://www.w3.org/1999/xlink" x="0px" y="0px"
	 viewBox="0 0 512 512" style="enable-background:new 0 0 512 512;" xml:space="preserve">
<path style="fill:#5B6EA2;" d="M382.482,340.67H20.594C9.22,340.67,0,331.45,0,320.076V94.697c0-11.374,9.22-20.594,20.594-20.594
	h361.888c11.374,0,20.594,9.22,20.594,20.594v225.379C403.076,331.45,393.856,340.67,382.482,340.67z"/>
<path style="fill:#EEF0F1;" d="M32.338,277.005V114.984c0-4.718,3.825-8.543,8.543-8.543h321.314c4.718,0,8.543,3.825,8.543,8.543
	v162.021H32.338z"/>
<polygon style="fill:#5B6EA2;" points="253.28,340.67 149.796,340.67 137.751,399.514 265.325,399.514 "/>
<path style="opacity:0.1;enable-background:new    ;" d="M257.365,360.626l-4.085-19.956H149.796l-12.045,58.844h45.686
	c-4.002-9.371-5.065-20.073-4.694-28.705c0.245-5.697,4.939-10.182,10.641-10.182h67.981V360.626z"/>
<path style="fill:#609AD6;" d="M298.931,437.897H104.146c-7.577,0-13.719-6.142-13.719-13.719v-10.946
	c0-7.577,6.142-13.719,13.719-13.719h194.785c7.577,0,13.719,6.142,13.719,13.719v10.946
	C312.65,431.755,306.507,437.897,298.931,437.897z"/>
<path style="opacity:0.1;enable-background:new    ;" d="M104.146,399.514c-7.577,0-13.719,6.142-13.719,13.719v10.946
	c0,7.577,6.142,13.719,13.719,13.719h65.662c-16.417-6.349-18.058-24.405-12.587-38.384H104.146z"/>
<path style="fill:#609AD6;" d="M0,277.005v43.071c0,11.374,9.22,20.594,20.594,20.594h361.888c11.374,0,20.594-9.22,20.594-20.594
	v-43.071H0z"/>
<circle style="fill:#B8DBFF;" cx="201.54" cy="308.84" r="14.792"/>
<g>
	<ellipse style="fill:#EC7887;" cx="123.65" cy="212.43" rx="28.74" ry="22.887"/>
	<ellipse style="fill:#EC7887;" cx="279.43" cy="212.43" rx="28.74" ry="22.887"/>
</g>
<g>
	<path style="fill:#495059;" d="M140.398,197.102c-4.143,0-7.5-3.358-7.5-7.5v-10.149c0-4.142,3.357-7.5,7.5-7.5
		c4.142,0,7.5,3.358,7.5,7.5v10.149C147.898,193.744,144.54,197.102,140.398,197.102z"/>
	<path style="fill:#495059;" d="M262.678,197.102c-4.143,0-7.5-3.358-7.5-7.5v-10.149c0-4.142,3.357-7.5,7.5-7.5s7.5,3.358,7.5,7.5
		v10.149C270.178,193.744,266.82,197.102,262.678,197.102z"/>
	<path style="fill:#495059;" d="M201.537,204.895c-8.345,0-16.28-3.614-21.772-9.915c-2.722-3.123-2.397-7.86,0.726-10.582
		c3.122-2.722,7.86-2.396,10.581,0.726c2.643,3.032,6.458,4.771,10.466,4.771c4.009,0,7.823-1.739,10.467-4.771
		c2.722-3.123,7.459-3.447,10.581-0.726c3.123,2.722,3.447,7.46,0.725,10.582C217.818,201.281,209.882,204.895,201.537,204.895z"/>
</g>
<path style="opacity:0.1;enable-background:new    ;" d="M20.594,74.103C9.22,74.103,0,83.323,0,94.697v225.379
	c0,11.374,9.22,20.594,20.594,20.594h213.179c-106.122-51.364-141.69-181.967-97.629-266.568H20.594V74.103z"/>
<path style="fill:#B8DBFF;" d="M493.515,437.897H389.222c-10.209,0-18.485-8.276-18.485-18.485V204.407
	c0-10.209,8.276-18.485,18.485-18.485h104.293c10.209,0,18.485,8.276,18.485,18.485v215.005
	C512,429.621,503.724,437.897,493.515,437.897z"/>
<rect x="370.74" y="225.32" style="fill:#5B6EA2;" width="141.26" height="173.19"/>
<path style="fill:#86DBD5;" d="M422.833,292.336h-23.342c-3.447,0-6.242-2.795-6.242-6.242v-23.342c0-3.447,2.794-6.242,6.242-6.242
	h23.342c3.447,0,6.242,2.794,6.242,6.242v23.342C429.075,289.541,426.28,292.336,422.833,292.336z"/>
<path style="fill:#EC7887;" d="M483.247,292.336h-23.342c-3.447,0-6.242-2.795-6.242-6.242v-23.342c0-3.447,2.794-6.242,6.242-6.242
	h23.342c3.447,0,6.242,2.794,6.242,6.242v23.342C489.488,289.541,486.694,292.336,483.247,292.336z"/>
<path style="fill:#FFFFFF;" d="M422.833,360.626h-23.342c-3.447,0-6.242-2.794-6.242-6.242v-23.342c0-3.447,2.794-6.242,6.242-6.242
	h23.342c3.447,0,6.242,2.794,6.242,6.242v23.342C429.075,357.832,426.28,360.626,422.833,360.626z"/>
<path style="fill:#F7B96D;" d="M483.247,360.626h-23.342c-3.447,0-6.242-2.794-6.242-6.242v-23.342c0-3.447,2.794-6.242,6.242-6.242
	h23.342c3.447,0,6.242,2.794,6.242,6.242v23.342C489.488,357.832,486.694,360.626,483.247,360.626z"/>
<path style="fill:#5B6EA2;" d="M455.794,213.119h-28.851c-4.143,0-7.5-3.358-7.5-7.5s3.357-7.5,7.5-7.5h28.851
	c4.143,0,7.5,3.358,7.5,7.5S459.936,213.119,455.794,213.119z"/>
<path style="opacity:0.15;enable-background:new    ;" d="M467.922,437.897c-68.501-56.535-52.187-214.541-42.966-251.975h-35.733
	c-10.209,0-18.485,8.276-18.485,18.485v215.005c0,10.209,8.276,18.485,18.485,18.485L467.922,437.897L467.922,437.897z"/>
<g>
</g>
<g>
</g>
<g>
</g>
<g>
</g>
<g>
</g>
<g>
</g>
<g>
</g>
<g>
</g>
<g>
</g>
<g>
</g>
<g>
</g>
<g>
</g>
<g>
</g>
<g>
</g>
<g>
</g>
</svg>
