<?xml version="1.0" encoding="iso-8859-1"?>
<!-- Generator: Adobe Illustrator 19.0.0, SVG Export Plug-In . SVG Version: 6.00 Build 0)  -->
<svg version="1.1" id="Capa_1" xmlns="http://www.w3.org/2000/svg" xmlns:xlink="http://www.w3.org/1999/xlink" x="0px" y="0px"
	 viewBox="0 0 512 512" style="enable-background:new 0 0 512 512;" xml:space="preserve">
<path style="fill:#609AD6;" d="M272.12,347.103h-32.24l-28.946,114.993c-1.74,6.914,0.405,14.228,5.605,19.106l27.992,26.261
	c6.449,6.05,16.489,6.05,22.938,0l27.992-26.261c5.2-4.878,7.345-12.192,5.605-19.106L272.12,347.103z"/>
<path style="opacity:0.1;enable-background:new    ;" d="M292.132,484.324c-68.541,6.546-56.378-70.974-40.477-137.222H239.88
	l-28.946,114.993c-1.74,6.914,0.405,14.228,5.605,19.106l27.992,26.261c6.449,6.05,16.489,6.05,22.938,0L292.132,484.324z"/>
<ellipse style="fill:#B8DBFF;" cx="256" cy="201.99" rx="176.75" ry="164.91"/>
<ellipse style="fill:#F5D7B7;" cx="256" cy="201.99" rx="176.75" ry="164.91"/>
<path style="fill:#495059;" d="M417.539,134.978c-27.53-57.679-89.498-97.895-161.54-97.895
	c-75.342,0-139.663,43.986-165.101,105.93c27.81-1.45,79.893-24.091,104.878-41.097c4.258-2.898,9.887-2.72,13.958,0.435
	C246.924,131.182,335.203,147.181,417.539,134.978z"/>
<g>
	<ellipse style="fill:#EC7887;" cx="163.74" cy="222.6" rx="34.04" ry="27.11"/>
	<ellipse style="fill:#EC7887;" cx="348.25" cy="222.6" rx="34.04" ry="27.11"/>
</g>
<g>
	<path style="fill:#495059;" d="M169.434,198.088c-4.142,0-7.5-3.358-7.5-7.5v-14.611c0-4.142,3.358-7.5,7.5-7.5s7.5,3.358,7.5,7.5
		v14.611C176.934,194.73,173.576,198.088,169.434,198.088z"/>
	<path style="fill:#495059;" d="M255.999,226.431L255.999,226.431c-13.621,0-24.663-11.042-24.663-24.663v-17.93
		c0-3.718,3.014-6.732,6.732-6.732h35.86c3.718,0,6.732,3.014,6.732,6.732v17.93C280.662,215.389,269.62,226.431,255.999,226.431z"
		/>
	<path style="fill:#495059;" d="M342.565,198.088c-4.143,0-7.5-3.358-7.5-7.5v-14.611c0-4.142,3.357-7.5,7.5-7.5s7.5,3.358,7.5,7.5
		v14.611C350.065,194.73,346.707,198.088,342.565,198.088z"/>
</g>
<path style="opacity:0.1;enable-background:new    ;" d="M255.999,366.902c41.697,0,80.014-13.479,110.24-36.01
	C84.234,343.956,120.047,117.713,216.298,41.263c-78.501,16.81-137.053,82.389-137.053,160.73
	C79.245,293.07,158.381,366.902,255.999,366.902z"/>
<path style="fill:#5B6EA2;" d="M233.366,391.375H112.494c-38.658,0-70.109-31.451-70.109-70.109v-82.638
	c0-10.267,8.323-18.59,18.59-18.59s18.59,8.323,18.59,18.59v82.638c0,18.157,14.772,32.929,32.929,32.929h120.873
	c10.267,0,18.59,8.323,18.59,18.59S243.633,391.375,233.366,391.375z"/>
<path style="fill:#B8DBFF;" d="M274.593,334.806h-33.562c-20.976,0-37.979,17.004-37.979,37.979l0,0
	c0,20.975,17.004,37.979,37.979,37.979h33.562c20.975,0,37.979-17.004,37.979-37.979l0,0
	C312.572,351.81,295.568,334.806,274.593,334.806z"/>
<path style="opacity:0.1;enable-background:new    ;" d="M306.776,392.943c-84.754,7.758-73.836-43.76-65.917-58.133
	c-20.896,0.093-37.808,17.057-37.808,37.975l0,0c0,20.975,17.004,37.979,37.979,37.979h33.562
	C288.16,410.765,300.059,403.645,306.776,392.943z"/>
<path style="fill:#5B6EA2;" d="M458.479,184.049h-38.146c0-80.451-73.719-145.903-164.333-145.903S91.667,103.598,91.667,184.049
	H53.52c0-49.547,21.321-96.011,60.036-130.836C151.705,18.898,202.292,0,256,0s104.295,18.898,142.443,53.213
	C437.158,88.038,458.479,134.502,458.479,184.049z"/>
<path style="fill:#B8DBFF;" d="M442.902,290.624h13.992c22.067,0,39.956-17.889,39.956-39.956v-61.259
	c0-22.067-17.889-39.956-39.956-39.956h-13.992c-22.067,0-39.956,17.889-39.956,39.956v61.259
	C402.946,272.735,420.835,290.624,442.902,290.624z"/>
<path style="opacity:0.1;enable-background:new    ;" d="M491.497,270.636c-55.021,14.893-51.822-78.506-41.839-121.183h-6.756
	c-22.067,0-39.956,17.889-39.956,39.956v61.259c0,22.067,17.889,39.956,39.956,39.956h13.992
	C471.685,290.624,484.589,282.581,491.497,270.636z"/>
<path style="fill:#B8DBFF;" d="M55.106,290.624h13.992c22.067,0,39.956-17.889,39.956-39.956v-61.259
	c0-22.067-17.889-39.956-39.956-39.956H55.106c-22.067,0-39.956,17.889-39.956,39.956v61.259
	C15.15,272.735,33.039,290.624,55.106,290.624z"/>
<path style="opacity:0.1;enable-background:new    ;" d="M103.701,270.636C48.68,285.529,51.88,192.13,61.862,149.453h-6.756
	c-22.067,0-39.956,17.889-39.956,39.956v61.259c0,22.067,17.889,39.956,39.956,39.956h13.992
	C83.889,290.624,96.793,282.581,103.701,270.636z"/>
<g>
</g>
<g>
</g>
<g>
</g>
<g>
</g>
<g>
</g>
<g>
</g>
<g>
</g>
<g>
</g>
<g>
</g>
<g>
</g>
<g>
</g>
<g>
</g>
<g>
</g>
<g>
</g>
<g>
</g>
</svg>
