<?xml version="1.0" encoding="iso-8859-1"?>
<!-- Generator: Adobe Illustrator 19.0.0, SVG Export Plug-In . SVG Version: 6.00 Build 0)  -->
<svg version="1.1" id="Capa_1" xmlns="http://www.w3.org/2000/svg" xmlns:xlink="http://www.w3.org/1999/xlink" x="0px" y="0px"
	 viewBox="0 0 512 512" style="enable-background:new 0 0 512 512;" xml:space="preserve">
<path style="fill:#86DBD5;" d="M298.018,169.065c0-76.464-66.714-138.451-149.009-138.451C66.714,30.614,0,92.601,0,169.065
	c0,65.05,48.285,119.617,113.369,134.459c5.729,1.306,9.813,6.367,9.813,12.243v27.683c0,6.31,5.414,11.336,11.693,10.716
	c38.764-3.828,71.992-26.484,90.422-58.697c3.967-6.934,9.424-12.894,15.87-17.614C275.787,252.505,298.018,213.2,298.018,169.065z"
	/>
<g>
	<ellipse style="fill:#FFFFFF;" cx="66.24" cy="147.68" rx="30.541" ry="24.322"/>
	<ellipse style="fill:#FFFFFF;" cx="231.78" cy="147.68" rx="30.541" ry="24.322"/>
</g>
<g>
	<path style="fill:#495059;" d="M84.037,130.919c-4.142,0-7.5-3.358-7.5-7.5v-10.785c0-4.142,3.358-7.5,7.5-7.5s7.5,3.358,7.5,7.5
		v10.785C91.537,127.561,88.179,130.919,84.037,130.919z"/>
	<path style="fill:#495059;" d="M213.981,130.919c-4.142,0-7.5-3.358-7.5-7.5v-10.785c0-4.142,3.358-7.5,7.5-7.5s7.5,3.358,7.5,7.5
		v10.785C221.481,127.561,218.123,130.919,213.981,130.919z"/>
	<path style="fill:#495059;" d="M149.009,139.201c-8.733,0-17.037-3.782-22.784-10.376c-2.721-3.123-2.396-7.86,0.727-10.582
		c3.124-2.721,7.86-2.396,10.582,0.727c2.897,3.324,7.08,5.231,11.476,5.231c4.395,0,8.578-1.907,11.475-5.231
		c2.722-3.124,7.459-3.448,10.581-0.727c3.123,2.722,3.448,7.459,0.727,10.582C166.046,135.419,157.742,139.201,149.009,139.201z"/>
</g>
<path style="opacity:0.1;enable-background:new    ;" d="M225.296,295.47c1.262-2.207,2.691-4.302,4.239-6.303
	C25.857,270.202,39.894,103.319,95.208,39.922C39.503,59.971,0,110.228,0,169.065c0,65.05,48.284,119.617,113.369,134.459
	c5.729,1.306,9.813,6.367,9.813,12.243v27.683c0,6.31,5.414,11.336,11.693,10.716C173.638,350.339,206.866,327.682,225.296,295.47z"
	/>
<path style="fill:#609AD6;" d="M213.981,296.232c0-76.464,66.714-138.451,149.009-138.451S512,219.768,512,296.232
	c0,65.05-48.285,119.617-113.369,134.459c-5.729,1.307-9.813,6.367-9.813,12.243v27.683c0,6.31-5.413,11.336-11.693,10.716
	c-38.764-3.828-71.992-26.484-90.422-58.697c-3.967-6.934-9.424-12.895-15.87-17.614
	C236.213,379.672,213.981,340.367,213.981,296.232z"/>
<g>
	<circle style="fill:#B8DBFF;" cx="362.99" cy="290.25" r="24.373"/>
	<circle style="fill:#B8DBFF;" cx="280.65" cy="290.25" r="24.373"/>
	<circle style="fill:#B8DBFF;" cx="445.33" cy="290.25" r="24.373"/>
</g>
<path style="opacity:0.1;enable-background:new    ;" d="M377.126,481.334c6.279,0.62,11.693-4.406,11.693-10.716v-27.683
	c0-5.876,4.083-10.937,9.813-12.243c7.012-1.599,13.827-3.662,20.41-6.146c-182.158-48.022-152.571-202.969-97.297-261.386
	c-62.231,16.622-107.763,69.905-107.763,133.073c0,44.135,22.231,83.44,56.852,108.791c6.446,4.72,11.903,10.68,15.87,17.614
	C305.134,454.849,338.362,477.506,377.126,481.334z"/>
<g>
</g>
<g>
</g>
<g>
</g>
<g>
</g>
<g>
</g>
<g>
</g>
<g>
</g>
<g>
</g>
<g>
</g>
<g>
</g>
<g>
</g>
<g>
</g>
<g>
</g>
<g>
</g>
<g>
</g>
</svg>
