<?xml version="1.0" encoding="iso-8859-1"?>
<!-- Generator: Adobe Illustrator 19.0.0, SVG Export Plug-In . SVG Version: 6.00 Build 0)  -->
<svg version="1.1" id="Capa_1" xmlns="http://www.w3.org/2000/svg" xmlns:xlink="http://www.w3.org/1999/xlink" x="0px" y="0px"
	 viewBox="0 0 512 512" style="enable-background:new 0 0 512 512;" xml:space="preserve">
<path style="fill:#5B6EA2;" d="M124.319,512c-6.307,0-12.693-1.666-18.484-5.167C88.916,496.606,83.491,474.6,93.719,457.68
	l60.569-100.199c10.227-16.918,32.233-22.344,49.153-12.116c16.919,10.227,22.344,32.233,12.116,49.153l-60.568,100.199
	C148.261,505.844,136.437,512,124.319,512z"/>
<path style="opacity:0.1;enable-background:new    ;" d="M203.439,345.364c-16.92-10.228-38.926-4.802-49.153,12.116l-46.805,77.431
	c18.489,15.01,39.068,27.541,61.238,37.088l46.836-77.482C225.783,377.597,220.358,355.591,203.439,345.364z"/>
<path style="fill:#5B6EA2;" d="M420.011,512c6.307,0,12.693-1.666,18.484-5.167c16.919-10.227,22.344-32.233,12.116-49.153
	l-60.568-100.2c-10.227-16.918-32.233-22.344-49.153-12.116c-16.919,10.227-22.344,32.233-12.116,49.153l60.568,100.199
	C396.069,505.844,407.892,512,420.011,512z"/>
<path style="opacity:0.1;enable-background:new    ;" d="M340.891,345.364c16.92-10.228,38.926-4.802,49.153,12.116l46.805,77.431
	c-18.489,15.01-39.068,27.541-61.238,37.088l-46.836-77.482C318.547,377.597,323.972,355.591,340.891,345.364z"/>
<circle style="fill:#EC7887;" cx="275.614" cy="225.22" r="225.22"/>
<circle style="fill:#EEF0F1;" cx="275.614" cy="225.22" r="143.77"/>
<circle style="fill:#EC7887;" cx="275.614" cy="225.22" r="62.31"/>
<path style="opacity:0.1;enable-background:new    ;" d="M468.221,342.037c-143.077,34.522-227.23-4.319-267.069-69.022
	c-3.036-4.93,0.57-11.283,6.36-11.283h6.658c73.185,0,77.21-18.296,77.21-36.507H180.613
	c-20.443-74.31,0.401-163.734,47.744-220.242C126.679,26.698,50.419,117.02,50.394,225.171
	c-0.029,122.688,99.097,223.415,221.771,225.253C355.218,451.668,428.16,407.949,468.221,342.037z"/>
<path style="fill:#FDE27C;" d="M77.545,159.053H19.667c-6.924,0-10.934,7.845-6.879,13.458l26.701,36.953h89.939l-27.372-37.881
	C96.371,163.714,87.253,159.053,77.545,159.053z"/>
<polygon style="opacity:0.1;enable-background:new    ;" points="39.489,209.464 129.429,209.464 121.195,198.069 31.256,198.069 
	"/>
<path style="opacity:0.1;enable-background:new    ;" d="M38.78,159.053l36.425,50.411h18.312c-0.206-0.46-0.462-0.907-0.769-1.332
	l-35.463-49.079H38.78z"/>
<path style="fill:#FDE27C;" d="M77.545,291.396H19.667c-6.924,0-10.934-7.845-6.879-13.458l26.701-36.953h89.939l-27.372,37.881
	C96.371,286.736,87.253,291.396,77.545,291.396z"/>
<polygon style="opacity:0.1;enable-background:new    ;" points="31.256,252.38 121.195,252.38 129.429,240.986 39.489,240.986 "/>
<path style="opacity:0.1;enable-background:new    ;" d="M38.78,291.396h18.506l35.463-49.078c0.307-0.425,0.562-0.872,0.769-1.332
	H75.206L38.78,291.396z"/>
<path style="fill:#5B6EA2;" d="M275.618,209.464H29.548c-8.705,0-15.761,7.056-15.761,15.761l0,0
	c0,8.705,7.056,15.761,15.761,15.761h246.07c8.704,0,15.761-7.056,15.761-15.761l0,0
	C291.379,216.52,284.323,209.464,275.618,209.464z"/>
<rect x="57.104" y="209.46" style="fill:#609AD6;" width="59.13" height="31.522"/>
<g>
</g>
<g>
</g>
<g>
</g>
<g>
</g>
<g>
</g>
<g>
</g>
<g>
</g>
<g>
</g>
<g>
</g>
<g>
</g>
<g>
</g>
<g>
</g>
<g>
</g>
<g>
</g>
<g>
</g>
</svg>
