<?xml version="1.0" encoding="iso-8859-1"?>
<!-- Generator: Adobe Illustrator 19.0.0, SVG Export Plug-In . SVG Version: 6.00 Build 0)  -->
<svg version="1.1" id="Capa_1" xmlns="http://www.w3.org/2000/svg" xmlns:xlink="http://www.w3.org/1999/xlink" x="0px" y="0px"
	 viewBox="0 0 512 512" style="enable-background:new 0 0 512 512;" xml:space="preserve">
<path style="fill:#FDE27C;" d="M477.196,168.184H34.804v302.28c0,5.725,4.641,10.366,10.366,10.366h421.66
	c5.725,0,10.366-4.641,10.366-10.366V168.184z"/>
<path style="fill:#F7B96D;" d="M477.196,424.949H34.804v45.514c0,5.725,4.641,10.366,10.366,10.366h421.66
	c5.725,0,10.366-4.641,10.366-10.366V424.949z"/>
<path style="fill:#EEF0F1;" d="M400.762,375.259h-95.634c-10.217,0-18.499-8.282-18.499-18.499v-50.365
	c0-10.217,8.282-18.499,18.499-18.499h95.634c10.216,0,18.499,8.282,18.499,18.499v50.365
	C419.26,366.977,410.978,375.259,400.762,375.259z"/>
<path style="fill:#609AD6;" d="M400.762,386.759h-95.634c-16.542,0-29.999-13.458-29.999-29.999v-50.364
	c0-16.542,13.457-29.999,29.999-29.999h95.634c16.541,0,29.999,13.458,29.999,29.999v50.364
	C430.761,373.302,417.303,386.759,400.762,386.759z M308.155,301.434c-3.615,0-6.556,2.941-6.556,6.556v47.176
	c0,3.615,2.941,6.556,6.556,6.556h89.58c3.615,0,6.556-2.941,6.556-6.556V307.99c0-3.615-2.941-6.556-6.556-6.556H308.155z"/>
<path style="fill:#5B6EA2;" d="M202.182,287.897h-82.824c-10.217,0-18.499,8.282-18.499,18.499v174.433H220.68V306.396
	C220.681,296.179,212.399,287.897,202.182,287.897z"/>
<path style="fill:#EEF0F1;" d="M187.313,329.095h-53.086c-2.915,0-5.277,2.363-5.277,5.277v24.406c0,2.915,2.363,5.277,5.277,5.277
	h53.086c2.915,0,5.277-2.363,5.277-5.277v-24.406C192.591,331.458,190.228,329.095,187.313,329.095z"/>
<circle style="fill:#FDE27C;" cx="125.54" cy="404.619" r="7.524"/>
<path style="opacity:0.1;enable-background:new    ;" d="M34.804,168.184v302.28c0,5.725,4.641,10.366,10.366,10.366h284.667
	c-176.38-26.76-195.429-203.305-191.774-312.645H34.804V168.184z"/>
<path style="fill:#EC7887;" d="M260.444,234.16h-8.888c-28.505,0-50.682-24.778-47.533-53.108l16.658-149.883h70.638l16.658,149.883
	C311.125,209.382,288.949,234.16,260.444,234.16z"/>
<path style="fill:#EEF0F1;" d="M155.316,234.16h-6.594c-32.645,0-55.696-31.984-45.37-62.953l46.692-140.038h70.638L202.85,191.617
	C200.157,215.837,179.685,234.16,155.316,234.16z"/>
<path style="fill:#EC7887;" d="M47.895,234.16L47.895,234.16c-36.469,0-59.519-39.179-41.805-71.056l62.594-112.64
	c6.618-11.909,19.171-19.295,32.796-19.295h48.563L93.265,201.462C86.754,220.989,68.479,234.16,47.895,234.16z"/>
<path style="fill:#EEF0F1;" d="M356.684,234.16h6.594c32.645,0,55.696-31.984,45.37-62.953L361.957,31.169h-70.638l17.832,160.448
	C311.843,215.837,332.315,234.16,356.684,234.16z"/>
<path style="fill:#EC7887;" d="M464.105,234.16L464.105,234.16c36.469,0,59.519-39.179,41.805-71.056l-62.594-112.64
	c-6.618-11.909-19.172-19.295-32.797-19.295h-48.563l56.779,170.293C425.246,220.989,443.521,234.16,464.105,234.16z"/>
<path style="opacity:0.1;enable-background:new    ;" d="M204.023,181.052c-3.149,28.331,19.028,53.108,47.533,53.108h8.888
	c28.505,0,50.682-24.778,47.533-53.108l-1.43-12.868H205.453L204.023,181.052z"/>
<path style="opacity:0.1;enable-background:new    ;" d="M104.36,168.184l-1.008,3.023c-10.326,30.969,12.725,62.953,45.37,62.953
	h6.594c24.369,0,44.841-18.323,47.533-42.543l2.604-23.433H104.36z"/>
<path style="opacity:0.1;enable-background:new    ;" d="M3.657,168.184c-12.798,30.808,9.684,65.976,44.237,65.976l0,0
	c20.584,0,38.859-13.171,45.37-32.698l11.095-33.278H3.657z"/>
<path style="opacity:0.1;enable-background:new    ;" d="M407.64,168.184l1.008,3.023c10.326,30.969-12.725,62.953-45.37,62.953
	h-6.594c-24.369,0-44.841-18.323-47.533-42.543l-2.604-23.433H407.64z"/>
<path style="opacity:0.1;enable-background:new    ;" d="M508.343,168.184c12.798,30.808-9.684,65.976-44.237,65.976l0,0
	c-20.584,0-38.859-13.171-45.37-32.698l-11.095-33.278H508.343z"/>
<g>
</g>
<g>
</g>
<g>
</g>
<g>
</g>
<g>
</g>
<g>
</g>
<g>
</g>
<g>
</g>
<g>
</g>
<g>
</g>
<g>
</g>
<g>
</g>
<g>
</g>
<g>
</g>
<g>
</g>
</svg>
