<?xml version="1.0" encoding="iso-8859-1"?>
<!-- Generator: Adobe Illustrator 19.0.0, SVG Export Plug-In . SVG Version: 6.00 Build 0)  -->
<svg version="1.1" id="Capa_1" xmlns="http://www.w3.org/2000/svg" xmlns:xlink="http://www.w3.org/1999/xlink" x="0px" y="0px"
	 viewBox="0 0 512 512" style="enable-background:new 0 0 512 512;" xml:space="preserve">
<path id="SVGCleanerId_0" style="fill:#5B6EA2;" d="M322.174,497.572c149.86-68.495,171.989-245.776,174.534-400.656
	c0.318-19.326-15.162-35.102-34.486-35.496c-53.619-1.094-136.893-22.2-186.689-55.483c-11.843-7.916-27.225-7.916-39.068,0
	C186.671,39.219,103.397,60.326,49.778,61.419c-19.324,0.394-34.804,16.17-34.486,35.496
	c2.545,154.88,24.674,332.161,174.534,400.656C231.915,516.809,280.085,516.809,322.174,497.572z"/>
<g>
	<path id="SVGCleanerId_0_1_" style="fill:#5B6EA2;" d="M322.174,497.572c149.86-68.495,171.989-245.776,174.534-400.656
		c0.318-19.326-15.162-35.102-34.486-35.496c-53.619-1.094-136.893-22.2-186.689-55.483c-11.843-7.916-27.225-7.916-39.068,0
		C186.671,39.219,103.397,60.326,49.778,61.419c-19.324,0.394-34.804,16.17-34.486,35.496
		c2.545,154.88,24.674,332.161,174.534,400.656C231.915,516.809,280.085,516.809,322.174,497.572z"/>
</g>
<g>
	<path style="fill:#EC7887;" d="M199.668,501.665c36.331,13.762,76.333,13.762,112.664,0L256,415.4L199.668,501.665z"/>
	<path style="fill:#EC7887;" d="M15.292,96.915c0.297,18.046,0.865,36.397,1.864,54.844l98.231-11.526L93.258,57.174
		c-15.639,2.521-30.44,3.979-43.48,4.245C30.453,61.814,14.974,77.589,15.292,96.915z"/>
	<path style="fill:#EC7887;" d="M496.709,96.915c-0.297,18.046-0.865,36.397-1.864,54.844l-98.231-11.526l22.129-83.059
		c15.639,2.521,30.44,3.979,43.48,4.245C481.547,61.814,497.026,77.589,496.709,96.915z"/>
</g>
<path style="fill:#FDE27C;" d="M256,459.124c-15.326,0-30.195-3.245-44.195-9.643c-54.069-24.713-91.5-69.486-114.433-136.877
	C77.401,253.915,71.141,186.706,69.01,128.881c-0.316-8.581,6.012-15.957,14.54-16.961c50.625-5.957,112.669-22.817,161.326-49.378
	c6.942-3.79,15.306-3.79,22.248,0c48.657,26.561,110.701,43.421,161.326,49.378c8.529,1.004,14.856,8.379,14.54,16.96
	c-2.131,57.825-8.391,125.033-28.362,183.722c-22.933,67.391-60.365,112.164-114.433,136.877
	C286.195,455.88,271.326,459.124,256,459.124z"/>
<path style="fill:#C58F85;" d="M328.503,225.595H183.497c-13.073,0-23.67,10.597-23.67,23.67v91.121
	c0,13.073,10.597,23.67,23.67,23.67h145.006c13.073,0,23.67-10.598,23.67-23.67v-91.121
	C352.173,236.193,341.576,225.595,328.503,225.595z"/>
<g>
	<path style="fill:#495059;" d="M284.037,281.822c0-16.078-13.533-28.995-29.829-27.981c-13.942,0.867-25.295,12.2-26.186,26.141
		c-0.615,9.626,3.635,18.286,10.525,23.774c1.408,1.121,2.002,2.978,1.547,4.719l-5.636,21.565c-0.77,2.948,1.454,5.828,4.501,5.828
		h34.081c3.047,0,5.271-2.88,4.501-5.828l-5.635-21.562c-0.451-1.726,0.114-3.586,1.511-4.695
		C279.886,298.648,284.037,290.722,284.037,281.822z"/>
	<path style="fill:#495059;" d="M312.561,225.595h-26V190.79c0-16.851-13.709-30.56-30.561-30.56
		c-16.852,0-30.56,13.709-30.56,30.56v34.806h-26V190.79c0-31.188,25.373-56.56,56.56-56.56s56.561,25.373,56.561,56.56V225.595z"/>
</g>
<path style="opacity:0.15;enable-background:new    ;" d="M188.551,30.689C142.677,49.4,88.498,60.63,49.778,61.419
	c-19.324,0.394-34.804,16.17-34.486,35.496c2.545,154.88,24.674,332.161,174.534,400.657c42.09,19.238,90.259,19.238,132.349,0
	c8.472-3.872,16.515-8.11,24.19-12.654C227.172,413.789,167.733,199.087,188.551,30.689z"/>
<g>
</g>
<g>
</g>
<g>
</g>
<g>
</g>
<g>
</g>
<g>
</g>
<g>
</g>
<g>
</g>
<g>
</g>
<g>
</g>
<g>
</g>
<g>
</g>
<g>
</g>
<g>
</g>
<g>
</g>
</svg>
