<?xml version="1.0" encoding="iso-8859-1"?>
<!-- Generator: Adobe Illustrator 19.0.0, SVG Export Plug-In . SVG Version: 6.00 Build 0)  -->
<svg version="1.1" id="Capa_1" xmlns="http://www.w3.org/2000/svg" xmlns:xlink="http://www.w3.org/1999/xlink" x="0px" y="0px"
	 viewBox="0 0 512 512" style="enable-background:new 0 0 512 512;" xml:space="preserve">
<rect x="311.892" y="289.826" transform="matrix(-0.7071 0.7071 -0.7071 -0.7071 800.9328 331.7834)" style="fill:#55A6B5;" width="39.721" height="83.889"/>
<rect x="293.022" y="297.629" transform="matrix(-0.7071 0.7071 -0.7071 -0.7071 755.3726 312.9002)" style="opacity:0.1;enable-background:new    ;" width="39.721" height="30.529"/>
<circle style="fill:#EEF0F1;" cx="169.18" cy="169.19" r="139.59"/>
<g>
	<ellipse style="fill:#EC7887;" cx="104.85" cy="189.41" rx="23.737" ry="18.903"/>
	<ellipse style="fill:#EC7887;" cx="233.51" cy="189.41" rx="23.737" ry="18.903"/>
</g>
<g>
	<path style="fill:#495059;" d="M108.82,174.595c-4.142,0-7.5-3.358-7.5-7.5v-10.189c0-4.142,3.358-7.5,7.5-7.5s7.5,3.358,7.5,7.5
		v10.189C116.32,171.237,112.962,174.595,108.82,174.595z"/>
	<path style="fill:#495059;" d="M169.183,192.089L169.183,192.089c-9.498,0-17.198-7.7-17.198-17.198v-12.503
		c0-2.593,2.102-4.695,4.695-4.695h25.006c2.593,0,4.695,2.102,4.695,4.695v12.503C186.381,184.389,178.681,192.089,169.183,192.089
		z"/>
	<path style="fill:#495059;" d="M229.546,174.595c-4.142,0-7.5-3.358-7.5-7.5v-10.189c0-4.142,3.358-7.5,7.5-7.5s7.5,3.358,7.5,7.5
		v10.189C237.046,171.237,233.688,174.595,229.546,174.595z"/>
</g>
<path style="fill:#B8DBFF;" d="M268.874,339.104l-29.611-29.611l70.22-70.219l29.61,29.611c5.045,5.045,5.045,13.225,0,18.27
	l-51.95,51.949C282.098,344.149,273.919,344.149,268.874,339.104z"/>
<path style="opacity:0.1;enable-background:new    ;" d="M330.579,260.37l-21.096-21.096l-70.22,70.219l21.096,21.096
	C289.659,314.002,313.991,289.67,330.579,260.37z"/>
<path style="fill:#5B6EA2;" d="M169.183,338.377C75.895,338.377,0,262.482,0,169.194S75.895,0.01,169.183,0.01
	c93.289,0,169.184,75.896,169.184,169.184S262.472,338.377,169.183,338.377z M169.183,50.966
	c-65.191,0-118.227,53.037-118.227,118.228s53.036,118.227,118.227,118.227s118.228-53.037,118.228-118.227
	S234.374,50.966,169.183,50.966z"/>
<path style="fill:#B8DBFF;" d="M497.085,497.075L497.085,497.075c-20.77,20.77-54.757,19.709-74.19-2.316l-89.729-101.693
	c-5.656-6.411-5.353-16.114,0.692-22.16l37.058-37.058c6.045-6.045,15.749-6.348,22.16-0.692l101.693,89.729
	C516.794,442.319,517.855,476.305,497.085,497.075z"/>
<path style="fill:#5B6EA2;" d="M494.769,422.885l-16.799-14.823c-34.933,7.467-62.431,34.964-69.897,69.897l14.823,16.799
	c19.434,22.025,53.42,23.086,74.19,2.316l0,0C517.855,476.305,516.794,442.319,494.769,422.885z"/>
<path style="opacity:0.1;enable-background:new    ;" d="M497.085,497.075c3.013-3.013,5.552-6.311,7.649-9.795
	c-51.285-5.744-119.579-81.824-158.729-128.521l-12.146,12.146c-6.045,6.045-6.348,15.749-0.692,22.16l89.729,101.693
	C442.329,516.784,476.315,517.845,497.085,497.075L497.085,497.075z"/>
<path style="opacity:0.1;enable-background:new    ;" d="M275.142,300.981c-36.198-0.62-65.957-5.849-90.174-14.616
	c-5.166,0.692-10.434,1.057-15.786,1.057c-65.191,0-118.227-53.036-118.227-118.228c0-42.567,22.615-79.947,56.458-100.769
	c8.029-23.75,18.711-46.2,30.525-65.511C59.527,17.615,0,86.578,0,169.194c0,93.288,75.895,169.183,169.183,169.183
	C209.262,338.377,246.123,324.359,275.142,300.981z"/>
<g>
</g>
<g>
</g>
<g>
</g>
<g>
</g>
<g>
</g>
<g>
</g>
<g>
</g>
<g>
</g>
<g>
</g>
<g>
</g>
<g>
</g>
<g>
</g>
<g>
</g>
<g>
</g>
<g>
</g>
</svg>
