<?xml version="1.0" encoding="iso-8859-1"?>
<!-- Generator: Adobe Illustrator 19.0.0, SVG Export Plug-In . SVG Version: 6.00 Build 0)  -->
<svg version="1.1" id="Capa_1" xmlns="http://www.w3.org/2000/svg" xmlns:xlink="http://www.w3.org/1999/xlink" x="0px" y="0px"
	 viewBox="0 0 511.999 511.999" style="enable-background:new 0 0 511.999 511.999;" xml:space="preserve">
<circle style="fill:#5B6EA2;" cx="175.95" cy="127.31" r="114.63"/>
<path style="opacity:0.1;enable-background:new    ;" d="M100.653,127.311c0-4.142-3.358-7.5-7.5-7.5H61.565
	c-0.16,2.48-0.251,4.979-0.251,7.5c0,2.521,0.09,5.02,0.251,7.5h31.588C97.295,134.811,100.653,131.453,100.653,127.311z
	 M100.37,41.128c-3.762,3.301-7.305,6.845-10.607,10.606l22.336,22.336c1.464,1.464,3.384,2.197,5.303,2.197
	s3.839-0.732,5.303-2.197c2.929-2.929,2.929-7.678,0-10.606L100.37,41.128z M112.099,180.553l-22.336,22.336
	c3.302,3.762,6.845,7.305,10.607,10.606l22.336-22.336c2.929-2.929,2.929-7.678,0-10.606
	C119.777,177.624,115.028,177.624,112.099,180.553z M234.491,76.267c1.919,0,3.839-0.732,5.303-2.197l22.336-22.336
	c-3.302-3.762-6.845-7.305-10.607-10.606l-22.336,22.336c-2.929,2.929-2.929,7.678,0,10.606
	C230.653,75.534,232.572,76.267,234.491,76.267z M229.188,180.553c-2.929,2.929-2.929,7.678,0,10.606l22.336,22.336
	c3.762-3.301,7.305-6.845,10.607-10.606l-22.336-22.336C236.866,177.624,232.117,177.624,229.188,180.553z M175.947,202.606
	c-4.142,0-7.5,3.358-7.5,7.5v31.588c2.48,0.16,4.979,0.251,7.5,0.251s5.02-0.09,7.5-0.251v-31.588
	C183.447,205.964,180.089,202.606,175.947,202.606z M290.329,119.811h-31.588c-4.142,0-7.5,3.358-7.5,7.5s3.358,7.5,7.5,7.5h31.588
	c0.16-2.48,0.251-4.979,0.251-7.5C290.58,124.791,290.49,122.291,290.329,119.811z M168.447,12.929v31.588
	c0,4.142,3.358,7.5,7.5,7.5s7.5-3.358,7.5-7.5V12.929c-2.48-0.16-4.979-0.251-7.5-0.251
	C173.426,12.679,170.927,12.769,168.447,12.929z"/>
<circle style="fill:#B8DBFF;" cx="175.95" cy="127.31" r="82.79"/>
<g>
	<path style="fill:#5B6EA2;" d="M182.408,163.212h-27.123c-4.142,0-7.5-3.358-7.5-7.5s3.358-7.5,7.5-7.5h27.123
		c3.695,0,6.701-3.006,6.701-6.7c0-3.695-3.006-6.701-6.701-6.701h-12.922c-11.966,0-21.701-9.735-21.701-21.701
		c0-11.965,9.735-21.7,21.701-21.7h27.123c4.142,0,7.5,3.358,7.5,7.5s-3.358,7.5-7.5,7.5h-27.123c-3.695,0-6.701,3.006-6.701,6.7
		c0,3.695,3.006,6.701,6.701,6.701h12.922c11.966,0,21.701,9.735,21.701,21.701C204.109,153.477,194.374,163.212,182.408,163.212z"
		/>
	<path style="fill:#5B6EA2;" d="M175.947,106.411c-4.142,0-7.5-3.358-7.5-7.5V81.118c0-4.142,3.358-7.5,7.5-7.5s7.5,3.358,7.5,7.5
		v17.793C183.447,103.053,180.089,106.411,175.947,106.411z"/>
	<path style="fill:#5B6EA2;" d="M175.947,181.005c-4.142,0-7.5-3.358-7.5-7.5v-17.793c0-4.142,3.358-7.5,7.5-7.5s7.5,3.358,7.5,7.5
		v17.793C183.447,177.648,180.089,181.005,175.947,181.005z"/>
</g>
<path style="opacity:0.1;enable-background:new    ;" d="M259.851,205.408C98.514,216.026,98.037,60.226,164.591,13.238
	C106.612,18.94,61.314,67.834,61.314,127.312c0,63.31,51.323,114.633,114.633,114.633
	C209.08,241.945,238.923,227.883,259.851,205.408z"/>
<circle style="fill:#5B6EA2;" cx="337.36" cy="199.02" r="114.63"/>
<path style="opacity:0.1;enable-background:new    ;" d="M262.063,199.016c0-4.142-3.358-7.5-7.5-7.5h-31.588
	c-0.16,2.48-0.251,4.979-0.251,7.5c0,2.52,0.09,5.02,0.251,7.5h31.588C258.706,206.516,262.063,203.158,262.063,199.016z
	 M261.781,112.832c-3.762,3.301-7.305,6.845-10.606,10.606l22.336,22.336c1.464,1.464,3.384,2.197,5.303,2.197
	s3.839-0.732,5.303-2.197c2.929-2.929,2.929-7.678,0-10.606L261.781,112.832z M273.51,252.257l-22.336,22.336
	c3.301,3.762,6.845,7.305,10.607,10.606l22.336-22.336c2.929-2.929,2.929-7.678,0-10.606
	C281.188,249.329,276.439,249.329,273.51,252.257z M395.902,147.971c1.919,0,3.839-0.732,5.303-2.197l22.336-22.336
	c-3.301-3.762-6.845-7.305-10.606-10.606l-22.336,22.336c-2.929,2.929-2.929,7.678,0,10.606
	C392.063,147.239,393.983,147.971,395.902,147.971z M390.599,252.257c-2.929,2.929-2.929,7.678,0,10.606l22.336,22.336
	c3.762-3.301,7.305-6.845,10.607-10.606l-22.336-22.336C398.277,249.329,393.528,249.329,390.599,252.257z M337.358,274.31
	c-4.142,0-7.5,3.358-7.5,7.5v31.588c2.48,0.16,4.979,0.251,7.5,0.251s5.02-0.09,7.5-0.251V281.81
	C344.858,277.668,341.5,274.31,337.358,274.31z M451.74,191.516h-31.588c-4.142,0-7.5,3.358-7.5,7.5s3.358,7.5,7.5,7.5h31.588
	c0.16-2.48,0.251-4.979,0.251-7.5C451.991,196.495,451.9,193.996,451.74,191.516z M329.858,84.633v31.588c0,4.142,3.358,7.5,7.5,7.5
	s7.5-3.358,7.5-7.5V84.633c-2.48-0.16-4.979-0.251-7.5-0.251S332.338,84.473,329.858,84.633z"/>
<circle style="fill:#B8DBFF;" cx="337.36" cy="199.02" r="82.79"/>
<g>
	<path style="fill:#5B6EA2;" d="M343.819,234.917h-27.123c-4.142,0-7.5-3.358-7.5-7.5s3.358-7.5,7.5-7.5h27.123
		c3.694,0,6.7-3.006,6.7-6.701c0-3.694-3.006-6.7-6.7-6.7h-12.923c-11.965,0-21.7-9.735-21.7-21.701s9.735-21.701,21.7-21.701
		h27.123c4.142,0,7.5,3.358,7.5,7.5s-3.358,7.5-7.5,7.5h-27.123c-3.694,0-6.7,3.006-6.7,6.701s3.006,6.701,6.7,6.701h12.923
		c11.965,0,21.7,9.735,21.7,21.7C365.52,225.182,355.785,234.917,343.819,234.917z"/>
	<path style="fill:#5B6EA2;" d="M337.358,178.115c-4.142,0-7.5-3.358-7.5-7.5v-17.793c0-4.142,3.358-7.5,7.5-7.5s7.5,3.358,7.5,7.5
		v17.793C344.858,174.757,341.5,178.115,337.358,178.115z"/>
	<path style="fill:#5B6EA2;" d="M337.358,252.71c-4.142,0-7.5-3.358-7.5-7.5v-17.793c0-4.142,3.358-7.5,7.5-7.5s7.5,3.358,7.5,7.5
		v17.793C344.858,249.352,341.5,252.71,337.358,252.71z"/>
</g>
<path style="opacity:0.1;enable-background:new    ;" d="M421.262,277.112c-161.337,10.618-161.814-145.182-95.26-192.17
	c-57.979,5.702-103.277,54.596-103.277,114.073c0,63.31,51.323,114.633,114.633,114.633
	C370.49,313.649,400.334,299.587,421.262,277.112z"/>
<path style="fill:#55A6B5;" d="M0,472.346V254.392c0-14.898,12.077-26.975,26.975-26.975h458.049
	c14.898,0,26.975,12.077,26.975,26.975v217.954c0,14.898-12.077,26.975-26.975,26.975H26.975C12.077,499.322,0,487.244,0,472.346z"
	/>
<path style="fill:#86DBD5;" d="M448.576,262.418H63.424c-2.23,0-4.336,1.074-5.597,2.912c-5.354,7.8-12.112,14.558-19.912,19.912
	c-1.838,1.262-2.912,3.368-2.912,5.597v145.058c0,2.23,1.074,4.336,2.912,5.597c7.8,5.354,14.558,12.112,19.912,19.912
	c1.262,1.838,3.368,2.912,5.597,2.912h385.153c2.23,0,4.336-1.074,5.597-2.912c5.354-7.8,12.112-14.558,19.912-19.912
	c1.838-1.262,2.912-3.368,2.912-5.597V290.84c0-2.23-1.074-4.336-2.912-5.597c-7.8-5.354-14.558-12.112-19.912-19.912
	C452.912,263.492,450.806,262.418,448.576,262.418z"/>
<g>
	<circle style="fill:#55A6B5;" cx="256" cy="363.37" r="77.14"/>
	<circle style="fill:#55A6B5;" cx="110.95" cy="363.37" r="37.519"/>
	<circle style="fill:#55A6B5;" cx="401.05" cy="363.37" r="37.519"/>
</g>
<g>
	<path style="fill:#EEF0F1;" d="M262.461,399.27h-27.123c-4.142,0-7.5-3.358-7.5-7.5s3.358-7.5,7.5-7.5h27.123
		c3.694,0,6.7-3.006,6.7-6.7c0-3.695-3.006-6.701-6.7-6.701h-12.923c-11.965,0-21.7-9.735-21.7-21.701
		c0-11.965,9.735-21.7,21.7-21.7h27.123c4.142,0,7.5,3.358,7.5,7.5s-3.358,7.5-7.5,7.5h-27.123c-3.694,0-6.7,3.006-6.7,6.7
		c0,3.695,3.006,6.701,6.7,6.701h12.923c11.965,0,21.7,9.735,21.7,21.701C284.162,389.535,274.427,399.27,262.461,399.27z"/>
	<path style="fill:#EEF0F1;" d="M256,342.468c-4.142,0-7.5-3.358-7.5-7.5v-17.793c0-4.142,3.358-7.5,7.5-7.5s7.5,3.358,7.5,7.5
		v17.793C263.5,339.11,260.142,342.468,256,342.468z"/>
	<path style="fill:#EEF0F1;" d="M256,417.063c-4.142,0-7.5-3.358-7.5-7.5V391.77c0-4.142,3.358-7.5,7.5-7.5s7.5,3.358,7.5,7.5
		v17.793C263.5,413.705,260.142,417.063,256,417.063z"/>
</g>
<path style="opacity:0.1;enable-background:new    ;" d="M0,254.392v217.954c0,14.898,12.077,26.975,26.975,26.975h297.181
	c-134.365-73.63-151.959-198.447-153.821-271.904H26.975C12.077,227.417,0,239.494,0,254.392z"/>
<g>
</g>
<g>
</g>
<g>
</g>
<g>
</g>
<g>
</g>
<g>
</g>
<g>
</g>
<g>
</g>
<g>
</g>
<g>
</g>
<g>
</g>
<g>
</g>
<g>
</g>
<g>
</g>
<g>
</g>
</svg>
